<svg width="396" height="67" viewBox="0 0 396 67" fill="none" xmlns="http://www.w3.org/2000/svg">
<path d="M14.6797 57.4609C14.9401 56.7578 15.3828 55.5078 16.0078 53.7109C16.6328 51.9141 17.375 49.7786 18.2344 47.3047C19.0938 44.8307 20.0312 42.1224 21.0469 39.1797C22.0625 36.2109 23.0781 33.2161 24.0938 30.1953C25.1354 27.1745 26.138 24.2318 27.1016 21.3672C28.0651 18.4766 28.9245 15.8594 29.6797 13.5156C30.4349 11.1458 31.0599 9.16667 31.5547 7.57812C32.0495 5.96354 32.3229 4.92188 32.375 4.45312C32.375 4.24479 32.2969 3.98438 32.1406 3.67188C31.9844 3.35938 31.8411 3.16406 31.7109 3.08594C30.6693 3.16406 29.7448 3.29427 28.9375 3.47656C28.1302 3.65885 27.2448 3.95833 26.2812 4.375C25.9427 4.50521 25.5781 4.70052 25.1875 4.96094C24.7969 5.22135 24.4323 5.54688 24.0938 5.9375C23.7552 6.32812 23.4688 6.78385 23.2344 7.30469C23.026 7.79948 22.9219 8.35938 22.9219 8.98438C22.9219 9.32292 22.9479 9.76562 23 10.3125C23.0521 10.8333 23.1562 11.3542 23.3125 11.875L22.8438 12.3438C21.5156 11.3802 20.4609 10.3776 19.6797 9.33594C18.8984 8.26823 18.5078 7.27865 18.5078 6.36719C18.5078 5.84635 18.6771 5.27344 19.0156 4.64844C19.3802 4.02344 19.8229 3.4375 20.3438 2.89062C20.8646 2.34375 21.4245 1.88802 22.0234 1.52344C22.6224 1.13281 23.1562 0.9375 23.625 0.9375C24.4323 0.9375 25.1615 0.963542 25.8125 1.01562C26.4896 1.06771 27.1667 1.11979 27.8438 1.17188C28.5469 1.22396 29.2891 1.27604 30.0703 1.32812C30.8776 1.38021 31.8281 1.40625 32.9219 1.40625C33.3906 1.40625 33.9245 1.40625 34.5234 1.40625C35.1484 1.38021 35.7734 1.35417 36.3984 1.32812C37.0495 1.27604 37.6745 1.23698 38.2734 1.21094C38.8724 1.1849 39.4062 1.14583 39.875 1.09375L40.1094 2.1875C39.875 2.86458 39.4844 4.01042 38.9375 5.625C38.3906 7.23958 37.7396 9.16667 36.9844 11.4062C36.2292 13.6458 35.3958 16.1328 34.4844 18.8672C33.5729 21.6016 32.6354 24.4271 31.6719 27.3438C30.7083 30.2344 29.7318 33.138 28.7422 36.0547C27.7786 38.9714 26.8542 41.7578 25.9688 44.4141C25.1094 47.0443 24.3021 49.4661 23.5469 51.6797C22.8177 53.8672 22.2057 55.6901 21.7109 57.1484C21.3984 58.0599 20.8385 58.9193 20.0312 59.7266C19.25 60.5339 18.3385 61.263 17.2969 61.9141C16.2552 62.5911 15.1615 63.1901 14.0156 63.7109C12.8958 64.2578 11.8411 64.7135 10.8516 65.0781C9.86198 65.4427 9.02865 65.7161 8.35156 65.8984C7.64844 66.1068 7.21875 66.2109 7.0625 66.2109C6.93229 66.2109 6.76302 66.1979 6.55469 66.1719C6.34635 66.1719 6.13802 66.1589 5.92969 66.1328C5.69531 66.1068 5.47396 66.0547 5.26562 65.9766C5.03125 65.9245 4.86198 65.8594 4.75781 65.7812C4.47135 65.625 4.14583 65.3385 3.78125 64.9219C3.41667 64.5052 3.0651 64.0234 2.72656 63.4766C2.36198 62.9297 2.02344 62.3307 1.71094 61.6797C1.3724 61.0547 1.11198 60.4297 0.929688 59.8047L6.4375 55.8984C6.82812 57.1484 7.25781 58.2552 7.72656 59.2188C7.9349 59.6354 8.15625 60.0391 8.39062 60.4297C8.625 60.8464 8.88542 61.2109 9.17188 61.5234C9.43229 61.8359 9.71875 62.0833 10.0312 62.2656C10.3177 62.4479 10.6172 62.5391 10.9297 62.5391C11.2682 62.5391 11.6328 62.3568 12.0234 61.9922C12.388 61.6536 12.7396 61.224 13.0781 60.7031C13.4167 60.1823 13.7292 59.6224 14.0156 59.0234C14.3021 58.4505 14.5234 57.9297 14.6797 57.4609Z" fill="#1EFF00"/>
<path d="M35.7734 55.5469C35.2005 55.5469 34.6276 55.3646 34.0547 55C33.4818 54.6094 32.9609 54.1276 32.4922 53.5547C32.0234 52.9557 31.6458 52.3047 31.3594 51.6016C31.0469 50.8984 30.8906 50.2214 30.8906 49.5703C30.8906 48.7891 30.9948 47.9036 31.2031 46.9141C31.3854 45.9245 31.6328 44.8958 31.9453 43.8281C32.2318 42.7604 32.5573 41.7057 32.9219 40.6641C33.2865 39.6224 33.638 38.6719 33.9766 37.8125C34.2891 36.9271 34.5755 36.1719 34.8359 35.5469C35.0703 34.9219 35.2396 34.5052 35.3438 34.2969C35.8646 33.0469 36.6719 31.8359 37.7656 30.6641C38.8854 29.4922 40.0964 28.4505 41.3984 27.5391C42.7266 26.6276 44.0547 25.8984 45.3828 25.3516C46.737 24.8047 47.9219 24.5312 48.9375 24.5312C49.7708 24.5312 50.4479 24.987 50.9688 25.8984C51.4896 26.8099 51.75 27.9557 51.75 29.3359C51.75 30.0391 51.5807 30.7292 51.2422 31.4062C50.9297 32.0833 50.513 32.7214 49.9922 33.3203C49.4974 33.9193 48.9505 34.4792 48.3516 35C47.7786 35.5208 47.2318 35.9766 46.7109 36.3672L38.5469 42.6172C38.0781 44.388 37.6875 45.9635 37.375 47.3438C37.0885 48.6979 36.9453 49.6224 36.9453 50.1172C36.9453 50.8724 37.0495 51.4453 37.2578 51.8359C37.4661 52.2266 37.8958 52.4219 38.5469 52.4219C39.9271 52.4219 41.3594 51.7448 42.8438 50.3906C44.3281 49.0104 45.7734 46.8099 47.1797 43.7891L48.3125 44.5312C47.6094 46.1719 46.7891 47.6693 45.8516 49.0234C44.9401 50.3776 43.9505 51.5365 42.8828 52.5C41.8151 53.4635 40.6693 54.2188 39.4453 54.7656C38.2474 55.2865 37.0234 55.5469 35.7734 55.5469ZM46.0859 26.7578C45.5651 26.7578 45.0052 27.1615 44.4062 27.9688C43.8073 28.776 43.2083 29.8307 42.6094 31.1328C42.0104 32.4089 41.4245 33.8672 40.8516 35.5078C40.2786 37.1224 39.7578 38.737 39.2891 40.3516L45.9297 35.0781C46.2422 33.9583 46.5286 32.8646 46.7891 31.7969C47.0495 30.7031 47.1797 29.8828 47.1797 29.3359C47.1797 29.0495 47.1536 28.763 47.1016 28.4766C47.0755 28.1641 47.0234 27.8776 46.9453 27.6172C46.8672 27.3568 46.75 27.1484 46.5938 26.9922C46.4635 26.8359 46.2943 26.7578 46.0859 26.7578Z" fill="#1EFF00" fill-opacity="0.9"/>
<path d="M77.8047 24.2969C78.3516 24.2969 78.8203 24.4922 79.2109 24.8828C79.6016 25.2474 79.9141 25.7292 80.1484 26.3281C80.3828 26.9271 80.513 27.6172 80.5391 28.3984C80.5911 29.1797 80.526 29.9609 80.3438 30.7422C80.1354 31.6797 79.7188 32.4479 79.0938 33.0469C78.4948 33.6198 77.8568 34.0755 77.1797 34.4141C76.3984 34.8047 75.5391 35.1042 74.6016 35.3125C75.1484 34.2708 75.487 33.3854 75.6172 32.6562C75.7734 31.9271 75.8516 31.237 75.8516 30.5859C75.8516 30.3255 75.8255 30.0651 75.7734 29.8047C75.7474 29.5182 75.6823 29.2578 75.5781 29.0234C75.5 28.7891 75.3828 28.5938 75.2266 28.4375C75.0703 28.2812 74.888 28.2031 74.6797 28.2031C74.4453 28.2031 74.1589 28.2943 73.8203 28.4766C73.5078 28.6328 73.1953 28.8672 72.8828 29.1797C72.5964 29.4922 72.349 29.8698 72.1406 30.3125C71.9583 30.7292 71.8672 31.1979 71.8672 31.7188C71.8672 31.9271 71.9714 32.3438 72.1797 32.9688C72.388 33.5938 72.6354 34.362 72.9219 35.2734C73.2344 36.1589 73.5599 37.1354 73.8984 38.2031C74.263 39.2708 74.5885 40.3385 74.875 41.4062C75.1875 42.474 75.4479 43.5026 75.6562 44.4922C75.8646 45.4818 75.9688 46.3411 75.9688 47.0703C75.9688 47.7995 75.7344 48.5286 75.2656 49.2578C74.7969 49.9609 74.2109 50.638 73.5078 51.2891C72.8047 51.9401 72.0234 52.5521 71.1641 53.125C70.3307 53.6719 69.5234 54.1536 68.7422 54.5703C67.987 54.987 67.3229 55.3125 66.75 55.5469C66.2031 55.7812 65.8516 55.8984 65.6953 55.8984C65.4609 55.8984 65.1484 55.8594 64.7578 55.7812C64.3672 55.7292 64.0417 55.625 63.7812 55.4688C63.4948 55.3125 63.1953 55.0391 62.8828 54.6484C62.5703 54.2578 62.2708 53.8021 61.9844 53.2812C61.6719 52.7604 61.3984 52.2005 61.1641 51.6016C60.9036 51.0026 60.7083 50.4297 60.5781 49.8828L65.3828 45.5469C65.5911 46.7969 65.8646 47.9036 66.2031 48.8672C66.3594 49.2839 66.5286 49.7005 66.7109 50.1172C66.8932 50.5078 67.1016 50.8594 67.3359 51.1719C67.5703 51.4844 67.8307 51.7318 68.1172 51.9141C68.4036 52.0964 68.7161 52.1875 69.0547 52.1875C69.5755 52.1875 69.9661 51.9661 70.2266 51.5234C70.513 51.0547 70.6562 50.4818 70.6562 49.8047C70.6562 49.5964 70.5521 49.1276 70.3438 48.3984C70.1615 47.6432 69.9141 46.7708 69.6016 45.7812C69.2891 44.7917 68.9635 43.737 68.625 42.6172C68.2865 41.4714 67.9609 40.4167 67.6484 39.4531C67.3359 38.4635 67.0755 37.6172 66.8672 36.9141C66.6849 36.2109 66.5938 35.7812 66.5938 35.625C66.5938 35.1823 66.6719 34.6224 66.8281 33.9453C67.0104 33.2682 67.2839 32.6823 67.6484 32.1875C67.7786 32.0052 68.0781 31.6797 68.5469 31.2109C69.0156 30.7422 69.5625 30.2214 70.1875 29.6484C70.8385 29.0495 71.5286 28.4375 72.2578 27.8125C72.987 27.1875 73.7031 26.6146 74.4062 26.0938C75.1354 25.5729 75.7865 25.1432 76.3594 24.8047C76.9583 24.4661 77.4401 24.2969 77.8047 24.2969ZM91.3984 47.4609C91.3984 47.4349 91.4115 47.3828 91.4375 47.3047C91.4635 47.2526 91.5026 47.1224 91.5547 46.9141C90.7474 47.9557 89.9271 48.9974 89.0938 50.0391C88.2604 51.0807 87.4531 52.0182 86.6719 52.8516C85.8906 53.6589 85.1615 54.3229 84.4844 54.8438C83.8333 55.3646 83.2865 55.625 82.8438 55.625C82.6615 55.625 82.3359 55.5469 81.8672 55.3906C81.3984 55.2344 80.9297 54.987 80.4609 54.6484C79.9661 54.2839 79.5234 53.8281 79.1328 53.2812C78.7422 52.7344 78.5339 52.0833 78.5078 51.3281C78.5078 51.0677 78.6771 50.4297 79.0156 49.4141C79.3281 48.3984 79.7448 47.1745 80.2656 45.7422C80.7604 44.2839 81.2943 42.7214 81.8672 41.0547C82.4401 39.362 82.974 37.7214 83.4688 36.1328C83.9896 34.5182 84.4062 33.0339 84.7188 31.6797C85.0573 30.3255 85.2266 29.2708 85.2266 28.5156C85.2266 28.3073 85.2005 28.125 85.1484 27.9688C85.0964 27.8125 85.0443 27.6823 84.9922 27.5781C84.9141 27.474 84.8359 27.3828 84.7578 27.3047V26.7578C85.3307 26.3932 86.0208 26.0938 86.8281 25.8594C87.6354 25.599 88.4167 25.4036 89.1719 25.2734C90.0312 25.1172 90.9297 25 91.8672 24.9219L92.0234 25.1562C91.8411 26.5365 91.5286 28.0729 91.0859 29.7656C90.6432 31.4323 90.1484 33.151 89.6016 34.9219C89.0547 36.6667 88.4818 38.3984 87.8828 40.1172C87.3099 41.8359 86.776 43.4245 86.2812 44.8828C85.7865 46.3411 85.3828 47.6302 85.0703 48.75C84.7578 49.8438 84.6016 50.651 84.6016 51.1719C84.6016 51.5365 84.7057 51.7188 84.9141 51.7188C85.0964 51.7188 85.3698 51.5755 85.7344 51.2891C86.099 50.9766 86.5156 50.5859 86.9844 50.1172C87.4792 49.6224 88 49.0755 88.5469 48.4766C89.0938 47.8776 89.6406 47.2656 90.1875 46.6406C90.7344 45.9896 91.2422 45.3776 91.7109 44.8047C92.2057 44.2057 92.6354 43.6849 93 43.2422C93.4167 42.0703 93.8724 40.7682 94.3672 39.3359C94.862 37.9036 95.3307 36.5104 95.7734 35.1562C96.2422 33.8021 96.6328 32.5521 96.9453 31.4062C97.2839 30.2604 97.4922 29.375 97.5703 28.75C97.6224 28.4635 97.6224 28.2422 97.5703 28.0859C97.5182 27.9036 97.4531 27.7474 97.375 27.6172C97.2708 27.487 97.1667 27.3828 97.0625 27.3047V26.7578C97.6615 26.3932 98.3646 26.0938 99.1719 25.8594C99.9792 25.599 100.76 25.4036 101.516 25.2734C102.375 25.1172 103.273 25 104.211 24.9219L104.367 25.1562C104.081 26.5365 103.69 28.0339 103.195 29.6484C102.727 31.263 102.206 32.9167 101.633 34.6094C101.086 36.276 100.526 37.9297 99.9531 39.5703C99.4062 41.1849 98.8984 42.6953 98.4297 44.1016C97.987 45.5078 97.6224 46.7578 97.3359 47.8516C97.0495 48.9193 96.9062 49.7266 96.9062 50.2734C96.9062 50.612 96.9323 50.8464 96.9844 50.9766C97.0625 51.1068 97.2318 51.1719 97.4922 51.1719C97.7526 51.1458 98.1693 51.0026 98.7422 50.7422C99.3411 50.4557 100.018 50.0391 100.773 49.4922C101.529 48.9453 102.336 48.2812 103.195 47.5C104.081 46.6927 104.953 45.7552 105.812 44.6875L106.672 45.4688C105.578 46.849 104.354 48.1641 103 49.4141C101.646 50.638 100.292 51.7188 98.9375 52.6562C97.6094 53.5938 96.3594 54.3359 95.1875 54.8828C94.0156 55.4297 93.0781 55.7031 92.375 55.7031C92.2448 55.7031 92.0755 55.651 91.8672 55.5469C91.6589 55.4427 91.4505 55.2734 91.2422 55.0391C91.0339 54.8047 90.8516 54.4922 90.6953 54.1016C90.5391 53.6849 90.4609 53.1641 90.4609 52.5391C90.4609 52.2266 90.5 51.8229 90.5781 51.3281C90.6562 50.8333 90.7474 50.3385 90.8516 49.8438C90.9557 49.3229 91.0599 48.8542 91.1641 48.4375C91.2682 47.9948 91.3464 47.6693 91.3984 47.4609Z" fill="#1EFF00" fill-opacity="0.7"/>
<path d="M120.188 11.1719C120.734 11.1719 121.229 11.4062 121.672 11.875C122.115 12.3177 122.336 12.9557 122.336 13.7891C122.336 14.5964 122.154 15.3776 121.789 16.1328C121.451 16.862 121.021 17.513 120.5 18.0859C119.979 18.6589 119.393 19.1146 118.742 19.4531C118.117 19.7917 117.531 19.9609 116.984 19.9609C116.75 19.9609 116.49 19.9349 116.203 19.8828C115.943 19.8047 115.695 19.6745 115.461 19.4922C115.227 19.2839 115.031 19.0104 114.875 18.6719C114.719 18.3333 114.641 17.9036 114.641 17.3828C114.641 16.6276 114.797 15.8854 115.109 15.1562C115.448 14.401 115.878 13.737 116.398 13.1641C116.945 12.5651 117.544 12.0833 118.195 11.7188C118.846 11.3542 119.51 11.1719 120.188 11.1719ZM118.273 25.1562C117.987 25.5469 117.635 26.1719 117.219 27.0312C116.828 27.8906 116.398 28.9193 115.93 30.1172C115.461 31.2891 114.979 32.5651 114.484 33.9453C113.99 35.3255 113.495 36.7318 113 38.1641C112.531 39.5703 112.089 40.9505 111.672 42.3047C111.255 43.6328 110.878 44.8568 110.539 45.9766C110.227 47.0703 109.979 48.0078 109.797 48.7891C109.615 49.5443 109.523 50.0391 109.523 50.2734C109.523 50.7682 109.719 51.0156 110.109 51.0156C110.422 50.9896 110.865 50.8464 111.438 50.5859C112.01 50.3255 112.661 49.9349 113.391 49.4141C114.146 48.8932 114.966 48.2292 115.852 47.4219C116.737 46.6146 117.648 45.651 118.586 44.5312L119.445 45.3125C118.299 46.7708 117.049 48.125 115.695 49.375C114.367 50.599 113.039 51.6797 111.711 52.6172C110.409 53.5286 109.172 54.2448 108 54.7656C106.828 55.2865 105.852 55.5469 105.07 55.5469C104.862 55.5469 104.667 55.4688 104.484 55.3125C104.302 55.1823 104.146 55.0521 104.016 54.9219C103.573 54.401 103.339 53.9453 103.312 53.5547C103.26 53.1641 103.234 52.7604 103.234 52.3438C103.234 51.7448 103.404 50.7422 103.742 49.3359C104.055 47.9297 104.458 46.3411 104.953 44.5703C105.448 42.7734 106.008 40.8984 106.633 38.9453C107.232 36.9922 107.818 35.1823 108.391 33.5156C108.99 31.849 109.523 30.4297 109.992 29.2578C110.487 28.0859 110.865 27.3828 111.125 27.1484C111.646 26.6797 112.297 26.3021 113.078 26.0156C113.859 25.7031 114.628 25.4688 115.383 25.3125C116.242 25.1302 117.154 25 118.117 24.9219L118.273 25.1562ZM131.164 24.2969C131.711 24.2969 132.18 24.4922 132.57 24.8828C132.961 25.2474 133.273 25.7292 133.508 26.3281C133.742 26.9271 133.872 27.6172 133.898 28.3984C133.951 29.1797 133.885 29.9609 133.703 30.7422C133.495 31.6797 133.078 32.4479 132.453 33.0469C131.854 33.6198 131.216 34.0755 130.539 34.4141C129.758 34.8047 128.898 35.1042 127.961 35.3125C128.508 34.2708 128.846 33.3854 128.977 32.6562C129.133 31.9271 129.211 31.237 129.211 30.5859C129.211 30.3255 129.185 30.0651 129.133 29.8047C129.107 29.5182 129.042 29.2578 128.938 29.0234C128.859 28.7891 128.742 28.5938 128.586 28.4375C128.43 28.2812 128.247 28.2031 128.039 28.2031C127.805 28.2031 127.518 28.2943 127.18 28.4766C126.867 28.6328 126.555 28.8672 126.242 29.1797C125.956 29.4922 125.708 29.8698 125.5 30.3125C125.318 30.7292 125.227 31.1979 125.227 31.7188C125.227 31.9271 125.331 32.3438 125.539 32.9688C125.747 33.5938 125.995 34.362 126.281 35.2734C126.594 36.1589 126.919 37.1354 127.258 38.2031C127.622 39.2708 127.948 40.3385 128.234 41.4062C128.547 42.474 128.807 43.5026 129.016 44.4922C129.224 45.4818 129.328 46.3411 129.328 47.0703C129.328 47.7995 129.094 48.5286 128.625 49.2578C128.156 49.9609 127.57 50.638 126.867 51.2891C126.164 51.9401 125.383 52.5521 124.523 53.125C123.69 53.6719 122.883 54.1536 122.102 54.5703C121.346 54.987 120.682 55.3125 120.109 55.5469C119.562 55.7812 119.211 55.8984 119.055 55.8984C118.82 55.8984 118.508 55.8594 118.117 55.7812C117.727 55.7292 117.401 55.625 117.141 55.4688C116.854 55.3125 116.555 55.0391 116.242 54.6484C115.93 54.2578 115.63 53.8021 115.344 53.2812C115.031 52.7604 114.758 52.2005 114.523 51.6016C114.263 51.0026 114.068 50.4297 113.938 49.8828L118.742 45.5469C118.951 46.7969 119.224 47.9036 119.562 48.8672C119.719 49.2839 119.888 49.7005 120.07 50.1172C120.253 50.5078 120.461 50.8594 120.695 51.1719C120.93 51.4844 121.19 51.7318 121.477 51.9141C121.763 52.0964 122.076 52.1875 122.414 52.1875C122.935 52.1875 123.326 51.9661 123.586 51.5234C123.872 51.0547 124.016 50.4818 124.016 49.8047C124.016 49.5964 123.911 49.1276 123.703 48.3984C123.521 47.6432 123.273 46.7708 122.961 45.7812C122.648 44.7917 122.323 43.737 121.984 42.6172C121.646 41.4714 121.32 40.4167 121.008 39.4531C120.695 38.4635 120.435 37.6172 120.227 36.9141C120.044 36.2109 119.953 35.7812 119.953 35.625C119.953 35.1823 120.031 34.6224 120.188 33.9453C120.37 33.2682 120.643 32.6823 121.008 32.1875C121.138 32.0052 121.438 31.6797 121.906 31.2109C122.375 30.7422 122.922 30.2214 123.547 29.6484C124.198 29.0495 124.888 28.4375 125.617 27.8125C126.346 27.1875 127.062 26.6146 127.766 26.0938C128.495 25.5729 129.146 25.1432 129.719 24.8047C130.318 24.4661 130.799 24.2969 131.164 24.2969Z" fill="#1EFF00" fill-opacity="0.5"/>
<path d="M151.164 57.4609C151.424 56.7578 151.867 55.5078 152.492 53.7109C153.117 51.9141 153.859 49.7786 154.719 47.3047C155.578 44.8307 156.516 42.1224 157.531 39.1797C158.547 36.2109 159.562 33.2161 160.578 30.1953C161.62 27.1745 162.622 24.2318 163.586 21.3672C164.549 18.4766 165.409 15.8594 166.164 13.5156C166.919 11.1458 167.544 9.16667 168.039 7.57812C168.534 5.96354 168.807 4.92188 168.859 4.45312C168.859 4.24479 168.781 3.98438 168.625 3.67188C168.469 3.35938 168.326 3.16406 168.195 3.08594C167.154 3.16406 166.229 3.29427 165.422 3.47656C164.615 3.65885 163.729 3.95833 162.766 4.375C162.427 4.50521 162.062 4.70052 161.672 4.96094C161.281 5.22135 160.917 5.54688 160.578 5.9375C160.24 6.32812 159.953 6.78385 159.719 7.30469C159.51 7.79948 159.406 8.35938 159.406 8.98438C159.406 9.32292 159.432 9.76562 159.484 10.3125C159.536 10.8333 159.641 11.3542 159.797 11.875L159.328 12.3438C158 11.3802 156.945 10.3776 156.164 9.33594C155.383 8.26823 154.992 7.27865 154.992 6.36719C154.992 5.84635 155.161 5.27344 155.5 4.64844C155.865 4.02344 156.307 3.4375 156.828 2.89062C157.349 2.34375 157.909 1.88802 158.508 1.52344C159.107 1.13281 159.641 0.9375 160.109 0.9375C160.917 0.9375 161.646 0.963542 162.297 1.01562C162.974 1.06771 163.651 1.11979 164.328 1.17188C165.031 1.22396 165.773 1.27604 166.555 1.32812C167.362 1.38021 168.312 1.40625 169.406 1.40625C169.875 1.40625 170.409 1.40625 171.008 1.40625C171.633 1.38021 172.258 1.35417 172.883 1.32812C173.534 1.27604 174.159 1.23698 174.758 1.21094C175.357 1.1849 175.891 1.14583 176.359 1.09375L176.594 2.1875C176.359 2.86458 175.969 4.01042 175.422 5.625C174.875 7.23958 174.224 9.16667 173.469 11.4062C172.714 13.6458 171.88 16.1328 170.969 18.8672C170.057 21.6016 169.12 24.4271 168.156 27.3438C167.193 30.2344 166.216 33.138 165.227 36.0547C164.263 38.9714 163.339 41.7578 162.453 44.4141C161.594 47.0443 160.786 49.4661 160.031 51.6797C159.302 53.8672 158.69 55.6901 158.195 57.1484C157.883 58.0599 157.323 58.9193 156.516 59.7266C155.734 60.5339 154.823 61.263 153.781 61.9141C152.74 62.5911 151.646 63.1901 150.5 63.7109C149.38 64.2578 148.326 64.7135 147.336 65.0781C146.346 65.4427 145.513 65.7161 144.836 65.8984C144.133 66.1068 143.703 66.2109 143.547 66.2109C143.417 66.2109 143.247 66.1979 143.039 66.1719C142.831 66.1719 142.622 66.1589 142.414 66.1328C142.18 66.1068 141.958 66.0547 141.75 65.9766C141.516 65.9245 141.346 65.8594 141.242 65.7812C140.956 65.625 140.63 65.3385 140.266 64.9219C139.901 64.5052 139.549 64.0234 139.211 63.4766C138.846 62.9297 138.508 62.3307 138.195 61.6797C137.857 61.0547 137.596 60.4297 137.414 59.8047L142.922 55.8984C143.312 57.1484 143.742 58.2552 144.211 59.2188C144.419 59.6354 144.641 60.0391 144.875 60.4297C145.109 60.8464 145.37 61.2109 145.656 61.5234C145.917 61.8359 146.203 62.0833 146.516 62.2656C146.802 62.4479 147.102 62.5391 147.414 62.5391C147.753 62.5391 148.117 62.3568 148.508 61.9922C148.872 61.6536 149.224 61.224 149.562 60.7031C149.901 60.1823 150.214 59.6224 150.5 59.0234C150.786 58.4505 151.008 57.9297 151.164 57.4609ZM179.836 47.4609C179.836 47.4349 179.849 47.3828 179.875 47.3047C179.901 47.2526 179.94 47.1224 179.992 46.9141C179.185 47.9557 178.365 48.9974 177.531 50.0391C176.698 51.0807 175.891 52.0182 175.109 52.8516C174.328 53.6589 173.599 54.3229 172.922 54.8438C172.271 55.3646 171.724 55.625 171.281 55.625C171.099 55.625 170.773 55.5469 170.305 55.3906C169.836 55.2344 169.367 54.987 168.898 54.6484C168.404 54.2839 167.961 53.8281 167.57 53.2812C167.18 52.7344 166.971 52.0833 166.945 51.3281C166.945 51.0677 167.115 50.4297 167.453 49.4141C167.766 48.3984 168.182 47.1745 168.703 45.7422C169.198 44.2839 169.732 42.7214 170.305 41.0547C170.878 39.362 171.411 37.7214 171.906 36.1328C172.427 34.5182 172.844 33.0339 173.156 31.6797C173.495 30.3255 173.664 29.2708 173.664 28.5156C173.664 28.3073 173.638 28.125 173.586 27.9688C173.534 27.8125 173.482 27.6823 173.43 27.5781C173.352 27.474 173.273 27.3828 173.195 27.3047V26.7578C173.768 26.3932 174.458 26.0938 175.266 25.8594C176.073 25.599 176.854 25.4036 177.609 25.2734C178.469 25.1172 179.367 25 180.305 24.9219L180.461 25.1562C180.279 26.5365 179.966 28.0729 179.523 29.7656C179.081 31.4323 178.586 33.151 178.039 34.9219C177.492 36.6667 176.919 38.3984 176.32 40.1172C175.747 41.8359 175.214 43.4245 174.719 44.8828C174.224 46.3411 173.82 47.6302 173.508 48.75C173.195 49.8438 173.039 50.651 173.039 51.1719C173.039 51.5365 173.143 51.7188 173.352 51.7188C173.534 51.7188 173.807 51.5755 174.172 51.2891C174.536 50.9766 174.953 50.5859 175.422 50.1172C175.917 49.6224 176.438 49.0755 176.984 48.4766C177.531 47.8776 178.078 47.2656 178.625 46.6406C179.172 45.9896 179.68 45.3776 180.148 44.8047C180.643 44.2057 181.073 43.6849 181.438 43.2422C181.854 42.0703 182.31 40.7682 182.805 39.3359C183.299 37.9036 183.768 36.5104 184.211 35.1562C184.68 33.8021 185.07 32.5521 185.383 31.4062C185.721 30.2604 185.93 29.375 186.008 28.75C186.06 28.4635 186.06 28.2422 186.008 28.0859C185.956 27.9036 185.891 27.7474 185.812 27.6172C185.708 27.487 185.604 27.3828 185.5 27.3047V26.7578C186.099 26.3932 186.802 26.0938 187.609 25.8594C188.417 25.599 189.198 25.4036 189.953 25.2734C190.812 25.1172 191.711 25 192.648 24.9219L192.805 25.1562C192.518 26.5365 192.128 28.0339 191.633 29.6484C191.164 31.263 190.643 32.9167 190.07 34.6094C189.523 36.276 188.964 37.9297 188.391 39.5703C187.844 41.1849 187.336 42.6953 186.867 44.1016C186.424 45.5078 186.06 46.7578 185.773 47.8516C185.487 48.9193 185.344 49.7266 185.344 50.2734C185.344 50.612 185.37 50.8464 185.422 50.9766C185.5 51.1068 185.669 51.1719 185.93 51.1719C186.19 51.1458 186.607 51.0026 187.18 50.7422C187.779 50.4557 188.456 50.0391 189.211 49.4922C189.966 48.9453 190.773 48.2812 191.633 47.5C192.518 46.6927 193.391 45.7552 194.25 44.6875L195.109 45.4688C194.016 46.849 192.792 48.1641 191.438 49.4141C190.083 50.638 188.729 51.7188 187.375 52.6562C186.047 53.5938 184.797 54.3359 183.625 54.8828C182.453 55.4297 181.516 55.7031 180.812 55.7031C180.682 55.7031 180.513 55.651 180.305 55.5469C180.096 55.4427 179.888 55.2734 179.68 55.0391C179.471 54.8047 179.289 54.4922 179.133 54.1016C178.977 53.6849 178.898 53.1641 178.898 52.5391C178.898 52.2266 178.938 51.8229 179.016 51.3281C179.094 50.8333 179.185 50.3385 179.289 49.8438C179.393 49.3229 179.497 48.8542 179.602 48.4375C179.706 47.9948 179.784 47.6693 179.836 47.4609Z" fill="#1EFF00" fill-opacity="0.25"/>
<path d="M210.305 12.6953C209.654 14.6224 208.885 16.8229 208 19.2969C207.115 21.7448 206.203 24.2708 205.266 26.875C204.354 29.4531 203.443 32.0182 202.531 34.5703C201.62 37.1224 200.812 39.4531 200.109 41.5625C199.406 43.6458 198.833 45.4297 198.391 46.9141C197.948 48.3984 197.727 49.362 197.727 49.8047C197.727 50.2734 197.922 50.5078 198.312 50.5078C198.573 50.4818 198.99 50.3385 199.562 50.0781C200.135 49.7917 200.799 49.375 201.555 48.8281C202.31 48.2812 203.117 47.6172 203.977 46.8359C204.862 46.0286 205.747 45.0911 206.633 44.0234L207.492 44.8438C206.346 46.224 205.109 47.5651 203.781 48.8672C202.479 50.1432 201.19 51.276 199.914 52.2656C198.664 53.2552 197.492 54.0495 196.398 54.6484C195.305 55.2474 194.393 55.5469 193.664 55.5469C193.299 55.5469 193 55.3776 192.766 55.0391C192.531 54.7266 192.349 54.3359 192.219 53.8672C192.062 53.3724 191.958 52.8516 191.906 52.3047C191.854 51.7318 191.828 51.2109 191.828 50.7422C191.828 50.638 191.841 50.4818 191.867 50.2734C191.867 50.0391 191.88 49.7917 191.906 49.5312C191.932 49.2448 191.971 48.9714 192.023 48.7109C192.049 48.4245 192.089 48.1771 192.141 47.9688C192.635 46.224 193.221 44.3229 193.898 42.2656C194.549 40.2083 195.253 38.0859 196.008 35.8984C196.763 33.7109 197.544 31.4974 198.352 29.2578C199.159 27.0182 199.94 24.8568 200.695 22.7734C201.477 20.6641 202.206 18.6849 202.883 16.8359C203.56 14.9609 204.159 13.3073 204.68 11.875C205.201 10.4167 205.604 9.23177 205.891 8.32031C206.203 7.38281 206.359 6.8099 206.359 6.60156C206.359 6.02865 206.203 5.63802 205.891 5.42969C205.604 5.19531 205.24 5.09115 204.797 5.11719C204.354 5.14323 203.872 5.2474 203.352 5.42969C202.831 5.58594 202.349 5.76823 201.906 5.97656L201.398 4.92188C204.081 3.61979 206.229 2.70833 207.844 2.1875C209.484 1.66667 210.617 1.40625 211.242 1.40625C211.424 1.40625 211.633 1.48438 211.867 1.64062C212.128 1.77083 212.362 1.96615 212.57 2.22656C212.779 2.48698 212.961 2.78646 213.117 3.125C213.273 3.4375 213.352 3.76302 213.352 4.10156C213.352 4.3099 213.052 5.18229 212.453 6.71875C211.854 8.22917 211.138 10.2214 210.305 12.6953ZM209.367 55.5469C208.794 55.5469 208.221 55.3646 207.648 55C207.076 54.6094 206.555 54.1276 206.086 53.5547C205.617 52.9557 205.24 52.3047 204.953 51.6016C204.641 50.8984 204.484 50.2214 204.484 49.5703C204.484 48.7891 204.589 47.9036 204.797 46.9141C204.979 45.9245 205.227 44.8958 205.539 43.8281C205.826 42.7604 206.151 41.7057 206.516 40.6641C206.88 39.6224 207.232 38.6719 207.57 37.8125C207.883 36.9271 208.169 36.1719 208.43 35.5469C208.664 34.9219 208.833 34.5052 208.938 34.2969C209.458 33.0469 210.266 31.8359 211.359 30.6641C212.479 29.4922 213.69 28.4505 214.992 27.5391C216.32 26.6276 217.648 25.8984 218.977 25.3516C220.331 24.8047 221.516 24.5312 222.531 24.5312C223.365 24.5312 224.042 24.987 224.562 25.8984C225.083 26.8099 225.344 27.9557 225.344 29.3359C225.344 30.0391 225.174 30.7292 224.836 31.4062C224.523 32.0833 224.107 32.7214 223.586 33.3203C223.091 33.9193 222.544 34.4792 221.945 35C221.372 35.5208 220.826 35.9766 220.305 36.3672L212.141 42.6172C211.672 44.388 211.281 45.9635 210.969 47.3438C210.682 48.6979 210.539 49.6224 210.539 50.1172C210.539 50.8724 210.643 51.4453 210.852 51.8359C211.06 52.2266 211.49 52.4219 212.141 52.4219C213.521 52.4219 214.953 51.7448 216.438 50.3906C217.922 49.0104 219.367 46.8099 220.773 43.7891L221.906 44.5312C221.203 46.1719 220.383 47.6693 219.445 49.0234C218.534 50.3776 217.544 51.5365 216.477 52.5C215.409 53.4635 214.263 54.2188 213.039 54.7656C211.841 55.2865 210.617 55.5469 209.367 55.5469ZM219.68 26.7578C219.159 26.7578 218.599 27.1615 218 27.9688C217.401 28.776 216.802 29.8307 216.203 31.1328C215.604 32.4089 215.018 33.8672 214.445 35.5078C213.872 37.1224 213.352 38.737 212.883 40.3516L219.523 35.0781C219.836 33.9583 220.122 32.8646 220.383 31.7969C220.643 30.7031 220.773 29.8828 220.773 29.3359C220.773 29.0495 220.747 28.763 220.695 28.4766C220.669 28.1641 220.617 27.8776 220.539 27.6172C220.461 27.3568 220.344 27.1484 220.188 26.9922C220.057 26.8359 219.888 26.7578 219.68 26.7578Z" fill="#1EFF00" fill-opacity="0.15"/>
<path d="M238.195 24.2969C238.742 24.2969 239.211 24.4922 239.602 24.8828C239.992 25.2474 240.305 25.7292 240.539 26.3281C240.773 26.9271 240.904 27.6172 240.93 28.3984C240.982 29.1797 240.917 29.9609 240.734 30.7422C240.526 31.6797 240.109 32.4479 239.484 33.0469C238.885 33.6198 238.247 34.0755 237.57 34.4141C236.789 34.8047 235.93 35.1042 234.992 35.3125C235.539 34.2708 235.878 33.3854 236.008 32.6562C236.164 31.9271 236.242 31.237 236.242 30.5859C236.242 30.3255 236.216 30.0651 236.164 29.8047C236.138 29.5182 236.073 29.2578 235.969 29.0234C235.891 28.7891 235.773 28.5938 235.617 28.4375C235.461 28.2812 235.279 28.2031 235.07 28.2031C234.836 28.2031 234.549 28.2943 234.211 28.4766C233.898 28.6328 233.586 28.8672 233.273 29.1797C232.987 29.4922 232.74 29.8698 232.531 30.3125C232.349 30.7292 232.258 31.1979 232.258 31.7188C232.258 31.9271 232.362 32.3438 232.57 32.9688C232.779 33.5938 233.026 34.362 233.312 35.2734C233.625 36.1589 233.951 37.1354 234.289 38.2031C234.654 39.2708 234.979 40.3385 235.266 41.4062C235.578 42.474 235.839 43.5026 236.047 44.4922C236.255 45.4818 236.359 46.3411 236.359 47.0703C236.359 47.7995 236.125 48.5286 235.656 49.2578C235.188 49.9609 234.602 50.638 233.898 51.2891C233.195 51.9401 232.414 52.5521 231.555 53.125C230.721 53.6719 229.914 54.1536 229.133 54.5703C228.378 54.987 227.714 55.3125 227.141 55.5469C226.594 55.7812 226.242 55.8984 226.086 55.8984C225.852 55.8984 225.539 55.8594 225.148 55.7812C224.758 55.7292 224.432 55.625 224.172 55.4688C223.885 55.3125 223.586 55.0391 223.273 54.6484C222.961 54.2578 222.661 53.8021 222.375 53.2812C222.062 52.7604 221.789 52.2005 221.555 51.6016C221.294 51.0026 221.099 50.4297 220.969 49.8828L225.773 45.5469C225.982 46.7969 226.255 47.9036 226.594 48.8672C226.75 49.2839 226.919 49.7005 227.102 50.1172C227.284 50.5078 227.492 50.8594 227.727 51.1719C227.961 51.4844 228.221 51.7318 228.508 51.9141C228.794 52.0964 229.107 52.1875 229.445 52.1875C229.966 52.1875 230.357 51.9661 230.617 51.5234C230.904 51.0547 231.047 50.4818 231.047 49.8047C231.047 49.5964 230.943 49.1276 230.734 48.3984C230.552 47.6432 230.305 46.7708 229.992 45.7812C229.68 44.7917 229.354 43.737 229.016 42.6172C228.677 41.4714 228.352 40.4167 228.039 39.4531C227.727 38.4635 227.466 37.6172 227.258 36.9141C227.076 36.2109 226.984 35.7812 226.984 35.625C226.984 35.1823 227.062 34.6224 227.219 33.9453C227.401 33.2682 227.674 32.6823 228.039 32.1875C228.169 32.0052 228.469 31.6797 228.938 31.2109C229.406 30.7422 229.953 30.2214 230.578 29.6484C231.229 29.0495 231.919 28.4375 232.648 27.8125C233.378 27.1875 234.094 26.6146 234.797 26.0938C235.526 25.5729 236.177 25.1432 236.75 24.8047C237.349 24.4661 237.831 24.2969 238.195 24.2969Z" fill="#1EFF00" fill-opacity="0.1"/>
<path d="M278.273 40.0391C277.102 42.4349 275.865 44.5964 274.562 46.5234C273.286 48.4505 271.932 50.1042 270.5 51.4844C269.094 52.8646 267.622 53.9323 266.086 54.6875C264.549 55.4167 262.961 55.7812 261.32 55.7812C260.565 55.7812 259.797 55.5469 259.016 55.0781C258.26 54.6354 257.57 53.9974 256.945 53.1641C256.346 52.3047 255.865 51.2891 255.5 50.1172C255.109 48.9193 254.914 47.5911 254.914 46.1328C254.914 44.8047 255.096 43.2422 255.461 41.4453C255.826 39.6224 256.281 37.7214 256.828 35.7422C257.401 33.737 258.013 31.7318 258.664 29.7266C259.341 27.7214 259.979 25.8724 260.578 24.1797C261.203 22.487 261.75 21.0417 262.219 19.8438C262.688 18.6198 263 17.7995 263.156 17.3828C263.781 15.7682 264.602 14.2318 265.617 12.7734C266.633 11.3151 267.753 9.96094 268.977 8.71094C270.201 7.4349 271.477 6.28906 272.805 5.27344C274.159 4.25781 275.487 3.39844 276.789 2.69531C278.091 1.96615 279.328 1.40625 280.5 1.01562C281.698 0.625 282.74 0.429688 283.625 0.429688C284.328 0.429688 284.901 0.611979 285.344 0.976562C285.812 1.34115 286.177 1.82292 286.438 2.42188C286.698 3.02083 286.88 3.71094 286.984 4.49219C287.089 5.27344 287.141 6.08073 287.141 6.91406C287.141 8.08594 286.802 9.21875 286.125 10.3125C285.448 11.3802 284.654 12.3438 283.742 13.2031C282.857 14.0365 281.971 14.7396 281.086 15.3125C280.201 15.8594 279.562 16.2109 279.172 16.3672L278.898 15.7031C279.289 15.2083 279.628 14.6484 279.914 14.0234C280.227 13.3984 280.487 12.7474 280.695 12.0703C280.93 11.3932 281.099 10.7031 281.203 10C281.333 9.29688 281.398 8.61979 281.398 7.96875C281.424 7.52604 281.398 7.09635 281.32 6.67969C281.268 6.26302 281.177 5.88542 281.047 5.54688C280.917 5.20833 280.734 4.94792 280.5 4.76562C280.292 4.55729 280.031 4.45312 279.719 4.45312C278.755 4.45312 277.753 4.98698 276.711 6.05469C275.695 7.09635 274.68 8.5026 273.664 10.2734C272.674 12.0443 271.698 14.0755 270.734 16.3672C269.771 18.6589 268.859 21.0417 268 23.5156C267.141 25.9896 266.346 28.4635 265.617 30.9375C264.888 33.4115 264.25 35.7161 263.703 37.8516C263.182 39.987 262.766 41.862 262.453 43.4766C262.141 45.0911 261.971 46.263 261.945 46.9922C261.945 47.4349 262.01 47.9036 262.141 48.3984C262.271 48.8932 262.453 49.362 262.688 49.8047C262.922 50.2214 263.195 50.5729 263.508 50.8594C263.846 51.1198 264.211 51.25 264.602 51.25C265.409 51.25 266.294 51.0026 267.258 50.5078C268.221 50.013 269.224 49.2708 270.266 48.2812C271.333 47.2917 272.414 46.0417 273.508 44.5312C274.602 43.0208 275.682 41.263 276.75 39.2578L278.273 40.0391Z" fill="#1EFF00" fill-opacity="0.05"/>
<path d="M284.055 55.5469C283.482 55.5469 282.909 55.3646 282.336 55C281.763 54.6094 281.242 54.1276 280.773 53.5547C280.305 52.9557 279.927 52.3047 279.641 51.6016C279.328 50.8984 279.172 50.2214 279.172 49.5703C279.172 48.7891 279.276 47.9036 279.484 46.9141C279.667 45.9245 279.914 44.8958 280.227 43.8281C280.513 42.7604 280.839 41.7057 281.203 40.6641C281.568 39.6224 281.919 38.6719 282.258 37.8125C282.57 36.9271 282.857 36.1719 283.117 35.5469C283.352 34.9219 283.521 34.5052 283.625 34.2969C284.146 33.0469 284.953 31.8359 286.047 30.6641C287.167 29.4922 288.378 28.4505 289.68 27.5391C291.008 26.6276 292.336 25.8984 293.664 25.3516C295.018 24.8047 296.203 24.5312 297.219 24.5312C298.052 24.5312 298.729 24.987 299.25 25.8984C299.771 26.8099 300.031 27.9557 300.031 29.3359C300.031 30.0391 299.862 30.7292 299.523 31.4062C299.211 32.0833 298.794 32.7214 298.273 33.3203C297.779 33.9193 297.232 34.4792 296.633 35C296.06 35.5208 295.513 35.9766 294.992 36.3672L286.828 42.6172C286.359 44.388 285.969 45.9635 285.656 47.3438C285.37 48.6979 285.227 49.6224 285.227 50.1172C285.227 50.8724 285.331 51.4453 285.539 51.8359C285.747 52.2266 286.177 52.4219 286.828 52.4219C288.208 52.4219 289.641 51.7448 291.125 50.3906C292.609 49.0104 294.055 46.8099 295.461 43.7891L296.594 44.5312C295.891 46.1719 295.07 47.6693 294.133 49.0234C293.221 50.3776 292.232 51.5365 291.164 52.5C290.096 53.4635 288.951 54.2188 287.727 54.7656C286.529 55.2865 285.305 55.5469 284.055 55.5469ZM294.367 26.7578C293.846 26.7578 293.286 27.1615 292.688 27.9688C292.089 28.776 291.49 29.8307 290.891 31.1328C290.292 32.4089 289.706 33.8672 289.133 35.5078C288.56 37.1224 288.039 38.737 287.57 40.3516L294.211 35.0781C294.523 33.9583 294.81 32.8646 295.07 31.7969C295.331 30.7031 295.461 29.8828 295.461 29.3359C295.461 29.0495 295.435 28.763 295.383 28.4766C295.357 28.1641 295.305 27.8776 295.227 27.6172C295.148 27.3568 295.031 27.1484 294.875 26.9922C294.745 26.8359 294.576 26.7578 294.367 26.7578ZM307.453 12.1094L292.805 21.3281L291.984 20.2734L303.938 7.8125L307.453 12.1094ZM312.883 24.2969C313.43 24.2969 313.898 24.4922 314.289 24.8828C314.68 25.2474 314.992 25.7292 315.227 26.3281C315.461 26.9271 315.591 27.6172 315.617 28.3984C315.669 29.1797 315.604 29.9609 315.422 30.7422C315.214 31.6797 314.797 32.4479 314.172 33.0469C313.573 33.6198 312.935 34.0755 312.258 34.4141C311.477 34.8047 310.617 35.1042 309.68 35.3125C310.227 34.2708 310.565 33.3854 310.695 32.6562C310.852 31.9271 310.93 31.237 310.93 30.5859C310.93 30.3255 310.904 30.0651 310.852 29.8047C310.826 29.5182 310.76 29.2578 310.656 29.0234C310.578 28.7891 310.461 28.5938 310.305 28.4375C310.148 28.2812 309.966 28.2031 309.758 28.2031C309.523 28.2031 309.237 28.2943 308.898 28.4766C308.586 28.6328 308.273 28.8672 307.961 29.1797C307.674 29.4922 307.427 29.8698 307.219 30.3125C307.036 30.7292 306.945 31.1979 306.945 31.7188C306.945 31.9271 307.049 32.3438 307.258 32.9688C307.466 33.5938 307.714 34.362 308 35.2734C308.312 36.1589 308.638 37.1354 308.977 38.2031C309.341 39.2708 309.667 40.3385 309.953 41.4062C310.266 42.474 310.526 43.5026 310.734 44.4922C310.943 45.4818 311.047 46.3411 311.047 47.0703C311.047 47.7995 310.812 48.5286 310.344 49.2578C309.875 49.9609 309.289 50.638 308.586 51.2891C307.883 51.9401 307.102 52.5521 306.242 53.125C305.409 53.6719 304.602 54.1536 303.82 54.5703C303.065 54.987 302.401 55.3125 301.828 55.5469C301.281 55.7812 300.93 55.8984 300.773 55.8984C300.539 55.8984 300.227 55.8594 299.836 55.7812C299.445 55.7292 299.12 55.625 298.859 55.4688C298.573 55.3125 298.273 55.0391 297.961 54.6484C297.648 54.2578 297.349 53.8021 297.062 53.2812C296.75 52.7604 296.477 52.2005 296.242 51.6016C295.982 51.0026 295.786 50.4297 295.656 49.8828L300.461 45.5469C300.669 46.7969 300.943 47.9036 301.281 48.8672C301.438 49.2839 301.607 49.7005 301.789 50.1172C301.971 50.5078 302.18 50.8594 302.414 51.1719C302.648 51.4844 302.909 51.7318 303.195 51.9141C303.482 52.0964 303.794 52.1875 304.133 52.1875C304.654 52.1875 305.044 51.9661 305.305 51.5234C305.591 51.0547 305.734 50.4818 305.734 49.8047C305.734 49.5964 305.63 49.1276 305.422 48.3984C305.24 47.6432 304.992 46.7708 304.68 45.7812C304.367 44.7917 304.042 43.737 303.703 42.6172C303.365 41.4714 303.039 40.4167 302.727 39.4531C302.414 38.4635 302.154 37.6172 301.945 36.9141C301.763 36.2109 301.672 35.7812 301.672 35.625C301.672 35.1823 301.75 34.6224 301.906 33.9453C302.089 33.2682 302.362 32.6823 302.727 32.1875C302.857 32.0052 303.156 31.6797 303.625 31.2109C304.094 30.7422 304.641 30.2214 305.266 29.6484C305.917 29.0495 306.607 28.4375 307.336 27.8125C308.065 27.1875 308.781 26.6146 309.484 26.0938C310.214 25.5729 310.865 25.1432 311.438 24.8047C312.036 24.4661 312.518 24.2969 312.883 24.2969Z" fill="#1EFF00" fill-opacity="0.03"/>
<path d="M339.836 44.6875C338.69 46.0677 337.453 47.4089 336.125 48.7109C334.823 49.987 333.534 51.1198 332.258 52.1094C331.008 53.099 329.836 53.8932 328.742 54.4922C327.648 55.0911 326.737 55.3906 326.008 55.3906C325.852 55.3906 325.656 55.3125 325.422 55.1562C325.188 55.026 325.031 54.8958 324.953 54.7656C324.667 54.2448 324.458 53.5938 324.328 52.8125C324.224 52.0052 324.172 51.263 324.172 50.5859C324.172 50.3776 324.198 50.0911 324.25 49.7266C324.328 49.3359 324.406 48.9323 324.484 48.5156C323.625 49.4271 322.727 50.3125 321.789 51.1719C320.878 52.0052 319.992 52.7474 319.133 53.3984C318.299 54.0495 317.557 54.5703 316.906 54.9609C316.229 55.3516 315.734 55.5469 315.422 55.5469C315.214 55.5469 315.044 55.4688 314.914 55.3125C314.758 55.1562 314.628 54.9479 314.523 54.6875C314.393 54.4271 314.302 54.1536 314.25 53.8672C314.172 53.5807 314.12 53.2943 314.094 53.0078C314.016 52.0964 314.055 51.1068 314.211 50.0391C314.341 48.9453 314.536 47.8385 314.797 46.7188C315.057 45.599 315.357 44.5052 315.695 43.4375C316.008 42.3438 316.32 41.3542 316.633 40.4688C316.945 39.5573 317.219 38.7891 317.453 38.1641C317.688 37.5391 317.844 37.1224 317.922 36.9141C318.026 36.6016 318.195 36.237 318.43 35.8203C318.69 35.3776 318.977 34.9479 319.289 34.5312C319.602 34.0885 319.914 33.6719 320.227 33.2812C320.565 32.8646 320.891 32.5 321.203 32.1875C321.776 31.6406 322.518 31.0547 323.43 30.4297C324.341 29.8047 325.331 29.1927 326.398 28.5938C327.492 27.9948 328.612 27.4089 329.758 26.8359C330.904 26.263 331.984 25.7682 333 25.3516C334.042 24.9349 334.966 24.5964 335.773 24.3359C336.581 24.0755 337.193 23.9453 337.609 23.9453C337.974 23.9453 338.286 23.9583 338.547 23.9844C338.833 24.0104 339.055 24.0495 339.211 24.1016L339.289 24.2969C339.003 24.6615 338.651 25.2865 338.234 26.1719C337.818 27.0573 337.362 28.0859 336.867 29.2578C336.372 30.4297 335.865 31.7188 335.344 33.125C334.823 34.5312 334.302 35.9505 333.781 37.3828C333.286 38.8151 332.818 40.2214 332.375 41.6016C331.932 42.9557 331.529 44.1927 331.164 45.3125C330.826 46.4323 330.552 47.3828 330.344 48.1641C330.161 48.9193 330.07 49.4141 330.07 49.6484C330.07 50.1172 330.266 50.3516 330.656 50.3516C330.917 50.3255 331.333 50.1823 331.906 49.9219C332.479 49.6354 333.143 49.2188 333.898 48.6719C334.654 48.125 335.461 47.4609 336.32 46.6797C337.206 45.8724 338.091 44.9349 338.977 43.8672L339.836 44.6875ZM320.656 49.8828C320.865 49.8828 321.138 49.7656 321.477 49.5312C321.815 49.2969 322.18 48.9974 322.57 48.6328C322.961 48.2682 323.378 47.8516 323.82 47.3828C324.263 46.888 324.693 46.3932 325.109 45.8984C325.37 44.987 325.656 43.9844 325.969 42.8906C326.307 41.7969 326.659 40.6771 327.023 39.5312C327.388 38.3854 327.766 37.2396 328.156 36.0938C328.547 34.9479 328.924 33.8672 329.289 32.8516C329.68 31.8099 330.044 30.8724 330.383 30.0391C330.721 29.1797 331.021 28.4635 331.281 27.8906C330.865 28.0208 330.318 28.2161 329.641 28.4766C328.964 28.7109 328.208 29.1536 327.375 29.8047C326.672 30.3516 326.008 31.1719 325.383 32.2656C324.758 33.3594 324.185 34.5964 323.664 35.9766C323.143 37.3307 322.661 38.737 322.219 40.1953C321.802 41.6536 321.438 43.0078 321.125 44.2578C320.839 45.5078 320.617 46.5755 320.461 47.4609C320.305 48.3464 320.227 48.8802 320.227 49.0625C320.227 49.2708 320.24 49.4661 320.266 49.6484C320.318 49.8047 320.448 49.8828 320.656 49.8828Z" fill="#1EFF00" fill-opacity="0.01"/>
</svg>
