<svg width="1440" height="900" viewBox="0 0 1440 900" fill="none" xmlns="http://www.w3.org/2000/svg">
<path d="M121.775 203.445C120.683 202.037 119.724 200.743 118.896 199.564C118.059 198.36 117.273 197.178 116.537 196.017C115.792 194.832 115.049 193.618 114.308 192.375C113.567 191.131 112.742 189.754 111.833 188.242C113.635 186.536 115.139 184.827 116.346 183.114C117.552 181.401 118.435 179.654 118.992 177.872C119.55 176.09 119.762 174.255 119.627 172.365C119.506 170.442 119.016 168.446 118.158 166.377C118.088 166.209 117.898 165.851 117.586 165.304C117.299 164.746 116.953 164.185 116.549 163.619C116.17 163.044 115.772 162.56 115.356 162.169C114.964 161.768 114.623 161.627 114.335 161.747C114.046 161.866 113.722 162.24 113.362 162.869C113.003 163.497 112.628 164.259 112.238 165.154C111.862 166.014 111.48 166.962 111.091 167.997C110.717 168.998 110.381 169.955 110.083 170.868C110.257 173.192 110.431 175.685 110.605 178.348C110.803 181.001 111.014 183.718 111.238 186.501C111.452 189.26 111.665 192.019 111.879 194.777C112.083 197.512 112.278 200.124 112.464 202.612C112.674 205.09 112.863 207.38 113.03 209.482C113.21 211.549 113.361 213.306 113.481 214.75C112.895 215.106 112.258 215.44 111.571 215.753C110.989 216.051 110.297 216.352 109.493 216.657C108.689 216.963 107.841 217.23 106.95 217.459L106.583 217.188C106.653 216.539 106.662 215.337 106.61 213.582C106.549 211.803 106.46 209.683 106.342 207.223C106.238 204.729 106.092 201.998 105.904 199.031C105.717 196.064 105.515 193.061 105.297 190.022C105.094 186.949 104.88 183.95 104.654 181.027C104.429 178.104 104.202 175.45 103.973 173.064C103.769 170.667 103.572 168.663 103.382 167.05C103.217 165.427 103.068 164.389 102.937 163.936C102.827 163.672 102.655 163.461 102.421 163.304C101.537 163.756 100.692 164.233 99.8856 164.736C99.0795 165.24 98.3775 165.757 97.7797 166.286C97.5169 166.536 97.2649 166.881 97.0238 167.319C96.7727 167.733 96.5756 168.209 96.4325 168.748C96.2893 169.287 96.2143 169.854 96.2073 170.448C96.2144 171.009 96.3227 171.542 96.5322 172.048C96.6618 172.36 96.8505 172.747 97.0981 173.208C97.3358 173.645 97.6266 174.075 97.9704 174.496L97.717 175.108C96.1211 174.727 94.7627 174.205 93.6421 173.542C92.5114 172.855 91.7715 172.091 91.4223 171.249C91.2228 170.768 91.1597 170.174 91.2329 169.467C91.3303 168.75 91.5198 168.051 91.8013 167.37C92.0729 166.666 92.4155 166.03 92.8291 165.464C93.2427 164.898 93.666 164.525 94.099 164.345C95.5904 163.727 97.2511 163.108 99.0811 162.49C100.911 161.873 102.824 161.15 104.821 160.322C105.254 160.142 105.639 159.982 105.976 159.843C106.312 159.703 106.637 159.568 106.95 159.439C107.252 159.285 107.56 159.143 107.873 159.013C108.2 158.85 108.57 158.654 108.983 158.426L109.349 158.697C109.382 159.389 109.439 160.478 109.521 161.967C109.602 163.455 109.712 165.214 109.848 167.244C110.191 166.031 110.584 164.768 111.027 163.457C111.469 162.145 111.935 160.923 112.424 159.79C112.937 158.647 113.449 157.674 113.961 156.869C114.463 156.041 114.967 155.522 115.472 155.312C116.025 155.083 116.676 155.053 117.422 155.222C118.159 155.368 118.896 155.682 119.632 156.166C120.383 156.616 121.087 157.227 121.745 157.997C122.427 158.757 122.967 159.618 123.366 160.581C124.424 163.131 125.011 165.565 125.127 167.885C125.233 170.181 124.98 172.358 124.368 174.416C123.745 176.451 122.827 178.382 121.612 180.211C120.387 182.016 118.96 183.707 117.331 185.285C117.884 186.212 118.506 187.236 119.197 188.359C119.903 189.448 120.655 190.616 121.454 191.864C122.243 193.087 123.099 194.367 124.02 195.705C124.931 197.019 125.877 198.346 126.856 199.688C128.233 201.513 129.459 203.007 130.532 204.168C131.606 205.33 132.597 206.258 133.506 206.953C134.414 207.647 135.259 208.157 136.042 208.48C136.859 208.818 137.67 209.074 138.475 209.248L138.395 210.38C137.469 210.595 136.373 210.74 135.107 210.814C133.851 210.912 132.49 210.757 131.024 210.35C129.592 209.957 128.079 209.231 126.484 208.173C124.914 207.105 123.344 205.529 121.775 203.445ZM138.034 215.731C140.094 211.86 141.694 208.138 142.833 204.564C144.007 201.005 144.627 197.435 144.693 193.855C143.845 195.278 143.015 196.37 142.203 197.129C141.38 197.865 140.476 198.438 139.49 198.847C139.032 199.036 138.485 199.108 137.846 199.063C137.207 199.018 136.571 198.845 135.938 198.543C135.272 198.228 134.65 197.781 134.072 197.203C133.46 196.611 132.974 195.882 132.615 195.016C132.046 193.645 131.607 192.178 131.297 190.615C130.977 189.028 130.815 187.446 130.809 185.869C130.77 184.279 130.885 182.723 131.156 181.201C131.417 179.655 131.839 178.225 132.423 176.912C133.03 175.589 133.789 174.428 134.7 173.43C135.635 172.422 136.752 171.649 138.051 171.11C138.893 170.761 139.767 170.624 140.672 170.7C141.577 170.775 142.441 171.023 143.264 171.443C144.087 171.863 144.829 172.429 145.491 173.141C146.177 173.844 146.704 174.64 147.073 175.53C148.51 178.994 149.386 182.296 149.701 185.435C150.016 188.575 149.827 191.754 149.132 194.974C148.428 198.17 147.23 201.501 145.537 204.965C143.869 208.42 141.757 212.2 139.202 216.304L138.034 215.731ZM140.796 195.471C141.037 195.372 141.318 195.199 141.638 194.953C141.973 194.673 142.318 194.347 142.671 193.975C143.014 193.579 143.359 193.154 143.706 192.7C144.044 192.222 144.354 191.712 144.638 191.172C144.399 186.45 143.162 181.395 140.928 176.006C140.549 175.092 140.126 174.38 139.66 173.868C139.194 173.356 138.661 173.225 138.059 173.475C137.41 173.744 136.939 174.376 136.647 175.371C136.369 176.332 136.212 177.483 136.175 178.823C136.129 180.139 136.169 181.56 136.295 183.087C136.434 184.58 136.609 185.987 136.819 187.31C137.02 188.608 137.22 189.737 137.421 190.697C137.636 191.623 137.788 192.194 137.878 192.411C137.997 192.699 138.142 193.048 138.312 193.457C138.505 193.856 138.73 194.228 138.986 194.573C139.242 194.918 139.514 195.2 139.802 195.419C140.104 195.603 140.435 195.621 140.796 195.471ZM179.998 129.398C180.017 130.123 180.073 131.312 180.167 132.965C180.284 134.607 180.42 136.567 180.575 138.843C180.729 141.119 180.901 143.641 181.091 146.41C181.295 149.144 181.502 151.99 181.714 154.947C181.915 157.88 182.127 160.837 182.348 163.819C182.584 166.766 182.81 169.59 183.028 172.29C183.246 174.991 183.444 177.474 183.623 179.74C183.801 182.006 183.958 183.914 184.094 185.465C183.825 185.633 183.528 185.799 183.201 185.962C182.932 186.13 182.593 186.299 182.184 186.469C181.785 186.662 181.345 186.859 180.864 187.058C179.854 187.477 178.766 187.844 177.599 188.159L177.233 187.888C177.272 187.167 177.262 185.747 177.201 183.63C177.141 181.512 177.029 178.965 176.865 175.988C176.576 177.602 176.23 179.282 175.826 181.028C175.447 182.764 174.993 184.39 174.466 185.906C173.953 187.387 173.377 188.684 172.738 189.794C172.089 190.881 171.392 191.579 170.646 191.888C170.093 192.118 169.474 192.121 168.789 191.897C168.104 191.674 167.415 191.269 166.721 190.683C166.051 190.087 165.391 189.345 164.741 188.459C164.106 187.538 163.549 186.501 163.07 185.346C162.671 184.384 162.315 183.051 162.004 181.348C161.692 179.645 161.414 177.716 161.169 175.562C160.938 173.374 160.735 171.048 160.558 168.584C160.382 166.12 160.223 163.663 160.081 161.213C159.929 158.738 159.794 156.341 159.678 154.021C159.586 151.691 159.494 149.601 159.403 147.75C159.312 145.899 159.222 144.357 159.134 143.125C159.036 141.869 158.946 141.074 158.865 140.742C158.755 140.477 158.583 140.266 158.349 140.11C157.465 140.561 156.62 141.038 155.814 141.542C155.008 142.045 154.306 142.562 153.708 143.092C153.445 143.342 153.193 143.686 152.952 144.124C152.701 144.539 152.504 145.015 152.36 145.554C152.217 146.092 152.142 146.659 152.135 147.254C152.142 147.815 152.251 148.348 152.46 148.853C152.59 149.166 152.778 149.553 153.026 150.014C153.264 150.451 153.555 150.88 153.898 151.301L153.645 151.914C152.049 151.533 150.691 151.011 149.57 150.348C148.439 149.661 147.699 148.896 147.35 148.054C147.151 147.573 147.088 146.979 147.161 146.272C147.258 145.555 147.448 144.856 147.729 144.176C148.001 143.471 148.344 142.836 148.757 142.269C149.171 141.703 149.594 141.33 150.027 141.151C150.773 140.841 151.444 140.591 152.041 140.4C152.653 140.175 153.281 139.956 153.927 139.745C154.572 139.534 155.265 139.302 156.007 139.051C156.739 138.776 157.61 138.429 158.62 138.01C159.053 137.83 159.546 137.626 160.099 137.396C160.643 137.143 161.191 136.901 161.744 136.672C162.312 136.408 162.855 136.155 163.374 135.911C163.917 135.658 164.396 135.417 164.809 135.19L165.277 135.503C165.335 136.663 165.39 138.12 165.441 139.875C165.482 141.606 165.521 143.535 165.557 145.663C165.618 147.78 165.687 150.021 165.766 152.385C165.844 154.749 165.932 157.137 166.03 159.549C166.142 161.927 166.274 164.283 166.424 166.617C166.599 168.941 166.8 171.127 167.029 173.174C167.282 175.212 167.567 177.053 167.882 178.698C168.188 180.32 168.551 181.635 168.97 182.646C169.029 182.79 169.129 183.03 169.269 183.367C169.409 183.704 169.572 184.031 169.76 184.348C169.972 184.654 170.205 184.91 170.459 185.115C170.713 185.32 170.984 185.362 171.273 185.243C171.514 185.143 171.874 184.584 172.354 183.568C172.825 182.527 173.322 181.278 173.845 179.82C174.358 178.339 174.866 176.775 175.367 175.129C175.869 173.483 176.266 171.994 176.559 170.66C176.416 168.21 176.256 165.682 176.078 163.078C175.89 160.449 175.705 157.862 175.523 155.316C175.341 152.769 175.151 150.339 174.953 148.025C174.778 145.701 174.604 143.616 174.431 141.771C174.282 139.916 174.134 138.37 173.988 137.134C173.832 135.874 173.698 135.041 173.587 134.636C173.417 134.227 173.177 133.989 172.867 133.92L172.687 133.487C173.257 133.025 173.781 132.624 174.261 132.285C174.754 131.911 175.262 131.573 175.786 131.272C176.323 130.936 176.907 130.609 177.536 130.292C178.166 129.974 178.908 129.624 179.764 129.241L179.998 129.398ZM206.591 118.369C206.61 119.094 206.654 120.288 206.724 121.951C206.817 123.604 206.917 125.578 207.023 127.874C207.154 130.16 207.29 132.697 207.431 135.486C207.587 138.24 207.747 141.106 207.91 144.083C208.087 147.026 208.263 149.998 208.436 152.999C208.623 155.967 208.802 158.81 208.972 161.531C209.165 164.242 209.34 166.735 209.494 169.011C209.649 171.287 209.794 173.2 209.929 174.751L209.857 174.781C209.612 174.939 209.339 175.094 209.036 175.248C208.513 175.55 207.782 175.895 206.844 176.284C206.411 176.464 205.908 176.644 205.334 176.825C204.795 177.021 204.234 177.197 203.651 177.355L203.285 177.084C202.787 175.542 202.193 173.772 201.506 171.774C200.842 169.766 200.111 167.63 199.314 165.367C198.54 163.094 197.72 160.742 196.853 158.311C195.999 155.845 195.139 153.397 194.272 150.966C193.428 148.524 192.576 146.129 191.714 143.78C190.877 141.421 190.082 139.199 189.331 137.114C189.729 141.065 190.144 145.023 190.576 148.988C190.998 152.929 191.414 156.788 191.825 160.565C192.259 164.332 192.668 167.968 193.051 171.475C193.458 174.971 193.816 178.248 194.125 181.305C193.991 181.389 193.82 181.488 193.614 181.602C193.431 181.706 193.208 181.812 192.943 181.922C192.664 182.066 192.345 182.213 191.984 182.362C191.575 182.532 191.137 182.699 190.67 182.865C190.203 183.03 189.659 183.214 189.037 183.415L188.9 182.88C189.02 182.83 189.137 182.669 189.249 182.397C189.352 182.1 189.43 181.744 189.483 181.327C189.573 179.711 189.607 177.752 189.583 175.45C189.548 173.124 189.465 170.579 189.334 167.815C189.192 165.026 189.022 162.066 188.823 158.934C188.624 155.803 188.399 152.612 188.15 149.36C187.926 146.098 187.684 142.83 187.425 139.554C187.166 136.278 186.929 133.092 186.716 129.995L186.432 129.309C186.262 128.9 186.022 128.661 185.712 128.593L185.532 128.16C186.102 127.698 186.603 127.307 187.034 126.987C187.479 126.634 187.939 126.316 188.415 126.034C188.904 125.718 189.439 125.412 190.021 125.114C190.602 124.817 191.309 124.481 192.141 124.108L192.375 124.265C192.857 125.7 193.42 127.398 194.064 129.358C194.708 131.318 195.409 133.452 196.169 135.759C196.952 138.056 197.762 140.483 198.597 143.04C199.456 145.588 200.33 148.171 201.219 150.791C202.132 153.401 203.045 156.01 203.958 158.62C204.862 161.206 205.749 163.685 206.62 166.058C206.532 163.67 206.407 161.058 206.246 158.221C206.098 155.35 205.919 152.436 205.707 149.479C205.51 146.488 205.28 143.553 205.016 140.674C204.766 137.761 204.493 135.097 204.197 132.683C203.914 130.235 203.614 128.118 203.297 126.332C202.993 124.513 202.682 123.218 202.363 122.448C202.193 122.04 201.953 121.801 201.643 121.732L201.448 121.263C201.807 120.973 202.207 120.68 202.649 120.385C203.09 120.089 203.524 119.81 203.951 119.548C204.402 119.277 204.834 119.027 205.247 118.799C205.661 118.572 206.018 118.381 206.321 118.227L206.591 118.369ZM235.589 112.221C235.509 112.029 235.354 111.825 235.124 111.61C234.894 111.396 234.638 111.22 234.356 111.083C234.088 110.913 233.823 110.783 233.56 110.694C233.298 110.606 233.095 110.591 232.95 110.651C232.565 110.811 232.199 111.118 231.852 111.572C231.529 112.016 231.251 112.399 231.018 112.721L230.286 112.179C230.587 111.547 230.92 110.887 231.283 110.201C231.671 109.504 232.067 108.861 232.471 108.271C232.888 107.646 233.317 107.116 233.756 106.68C234.186 106.22 234.593 105.91 234.978 105.751C235.796 105.412 236.651 105.367 237.544 105.617C238.437 105.867 239.252 106.234 239.988 106.718C240.739 107.168 241.364 107.655 241.864 108.181C242.388 108.697 242.69 109.051 242.769 109.243C242.999 109.797 243.254 110.889 243.536 112.52C243.832 114.117 244.065 116.106 244.235 118.489C244.396 120.847 244.465 123.496 244.445 126.437C244.414 129.353 244.198 132.403 243.798 135.585C243.423 138.758 242.81 141.972 241.961 145.228C241.127 148.449 239.974 151.549 238.503 154.528C237.031 157.506 235.202 160.266 233.014 162.809C230.826 165.351 228.199 167.512 225.131 169.292L224.008 168.828C223.915 167.654 223.796 166.04 223.649 163.986C223.516 161.899 223.349 159.558 223.147 156.963C222.959 154.335 222.747 151.547 222.512 148.6C222.29 145.619 222.062 142.654 221.826 139.707C221.581 136.736 221.339 133.876 221.101 131.127C220.888 128.369 220.677 125.89 220.471 123.692C220.264 121.495 220.077 119.683 219.909 118.259C219.755 116.8 219.637 115.905 219.556 115.572C219.446 115.307 219.274 115.097 219.04 114.94C218.18 115.381 217.347 115.854 216.541 116.357C215.734 116.861 215.045 117.372 214.471 117.892C214.208 118.142 213.956 118.486 213.715 118.925C213.464 119.339 213.267 119.815 213.124 120.354C212.98 120.893 212.905 121.459 212.898 122.054C212.905 122.615 213.014 123.148 213.223 123.653C213.353 123.966 213.542 124.353 213.789 124.814C214.027 125.251 214.318 125.68 214.661 126.102L214.408 126.714C212.812 126.333 211.454 125.811 210.333 125.148C209.202 124.461 208.463 123.697 208.113 122.855C207.914 122.374 207.851 121.78 207.924 121.072C208.021 120.356 208.211 119.657 208.492 118.976C208.764 118.271 209.107 117.636 209.52 117.07C209.934 116.504 210.357 116.131 210.79 115.951C212.281 115.333 213.942 114.714 215.772 114.096C217.602 113.478 219.515 112.755 221.512 111.927C221.945 111.748 222.33 111.588 222.667 111.449C223.003 111.309 223.316 111.179 223.605 111.059C223.907 110.906 224.215 110.764 224.528 110.634C224.831 110.481 225.188 110.29 225.602 110.062L225.968 110.333C226.073 111.812 226.2 113.578 226.347 115.631C226.507 117.651 226.68 119.835 226.864 122.183C227.049 124.531 227.254 126.997 227.48 129.582C227.696 132.142 227.917 134.714 228.143 137.299C228.36 139.859 228.573 142.379 228.783 144.857C229.017 147.325 229.233 149.647 229.429 151.82C229.64 153.96 229.824 155.9 229.982 157.639C230.139 159.378 230.273 160.788 230.383 161.87C232.268 159.82 233.792 157.412 234.957 154.645C236.145 151.869 237.053 148.926 237.682 145.818C238.3 142.686 238.671 139.502 238.794 136.265C238.908 133.004 238.837 129.876 238.581 126.881C238.35 123.875 237.962 121.104 237.417 118.567C236.897 116.02 236.287 113.905 235.589 112.221Z" fill="#141414"/>
<path d="M243.79 570.167C245.407 572.276 246.756 573.968 247.836 575.244C248.953 576.525 249.951 577.442 250.832 577.995C251.728 578.57 252.578 578.791 253.382 578.661C254.187 578.53 255.096 578.099 256.11 577.368C256.3 577.231 256.493 577.075 256.689 576.902C256.885 576.728 257.074 576.544 257.254 576.35L257.937 576.628C257.955 577.321 257.872 578.007 257.687 578.686C257.539 579.371 257.324 580.008 257.042 580.597C256.797 581.191 256.498 581.712 256.145 582.158C255.809 582.626 255.461 582.989 255.101 583.248C254.848 583.431 254.467 583.593 253.959 583.735C253.467 583.897 252.924 583.968 252.33 583.946C251.752 583.946 251.166 583.823 250.571 583.577C249.977 583.332 249.458 582.903 249.017 582.29C248.255 581.234 247.579 580.229 246.987 579.275C246.411 578.342 245.845 577.402 245.289 576.454C244.734 575.506 244.146 574.534 243.523 573.537C242.901 572.541 242.179 571.473 241.357 570.332C241.265 570.206 241.064 569.949 240.754 569.563C240.443 569.177 240.084 568.746 239.676 568.269C239.268 567.793 238.85 567.324 238.421 566.863C237.956 566.395 237.533 566.01 237.153 565.706L237.536 564.9C238.235 564.846 239.272 564.659 240.648 564.341C242.009 564.002 243.609 563.571 245.447 563.048C247.285 562.525 249.341 561.926 251.614 561.249C253.894 560.537 256.283 559.777 258.783 558.969C261.299 558.183 263.895 557.354 266.574 556.482C269.288 555.616 272.013 554.742 274.749 553.861C276.499 553.305 278.16 552.959 279.73 552.821C281.322 552.669 282.784 552.626 284.116 552.692C285.464 552.78 286.625 552.922 287.601 553.117C288.613 553.318 289.407 553.484 289.983 553.615C290.756 553.796 291.606 554.018 292.533 554.28C293.476 554.563 294.38 554.859 295.244 555.167C296.123 555.496 296.898 555.836 297.569 556.187C298.276 556.544 298.759 556.902 299.018 557.261C299.536 557.98 299.464 558.77 298.801 559.633C298.16 560.48 296.9 561.582 295.02 562.938C294.175 563.547 293.19 563.872 292.064 563.914C290.953 563.976 289.871 563.922 288.816 563.751C287.617 563.557 286.383 563.226 285.115 562.76L285.44 562.141C285.664 562.14 285.959 562.104 286.325 562.032C286.712 561.946 287.133 561.818 287.59 561.65C288.061 561.502 288.542 561.3 289.031 561.044C289.536 560.808 290.01 560.531 290.453 560.211C291.383 559.541 291.953 558.84 292.165 558.11C292.413 557.385 292.346 556.759 291.965 556.231C291.767 555.956 291.332 555.82 290.66 555.823C289.988 555.826 289.161 555.926 288.178 556.121C287.231 556.322 286.168 556.607 284.989 556.975C283.847 557.35 282.685 557.786 281.503 558.285C281.062 558.475 280.31 558.745 279.246 559.095C278.197 559.466 276.923 559.903 275.423 560.406C273.945 560.894 272.292 561.428 270.463 562.009C268.634 562.589 266.737 563.187 264.772 563.801C262.843 564.421 260.868 565.043 258.845 565.667C256.859 566.296 254.944 566.891 253.1 567.45C251.256 568.009 249.522 568.521 247.899 568.986C246.311 569.456 244.942 569.85 243.79 570.167ZM314.887 581.071C314.186 581.255 313.041 581.583 311.454 582.053C309.882 582.545 308.006 583.127 305.827 583.8C303.647 584.473 301.231 585.219 298.58 586.04C295.965 586.866 293.243 587.721 290.414 588.606C287.62 589.496 284.798 590.392 281.948 591.291C279.133 592.197 276.437 593.066 273.858 593.898C271.28 594.73 268.908 595.493 266.744 596.187C264.58 596.881 262.758 597.472 261.28 597.96C261.055 597.737 260.833 597.496 260.614 597.237C260.2 596.797 259.704 596.175 259.125 595.373C258.47 594.464 257.81 593.415 257.145 592.226L257.324 591.807C257.972 591.725 259.144 591.458 260.84 591.005C262.557 590.538 264.6 589.964 266.967 589.284C269.371 588.61 271.995 587.841 274.84 586.978C277.685 586.114 280.561 585.228 283.469 584.319C286.414 583.415 289.283 582.518 292.076 581.628C294.869 580.737 297.401 579.907 299.671 579.137C301.956 578.388 303.862 577.736 305.388 577.181C306.929 576.647 307.906 576.265 308.316 576.033C308.549 575.865 308.714 575.649 308.813 575.386C308.171 574.629 307.512 573.916 306.837 573.247C306.162 572.578 305.498 572.013 304.845 571.553C304.541 571.354 304.148 571.188 303.666 571.054C303.206 570.905 302.697 570.822 302.14 570.807C301.582 570.791 301.014 570.848 300.433 570.978C299.889 571.113 299.395 571.341 298.951 571.661C298.677 571.859 298.343 572.132 297.951 572.478C297.58 572.81 297.229 573.192 296.898 573.623L296.244 573.517C296.249 571.876 296.445 570.434 296.833 569.191C297.242 567.933 297.816 567.038 298.555 566.504C298.978 566.2 299.542 566.002 300.247 565.911C300.967 565.841 301.69 565.865 302.417 565.983C303.166 566.085 303.863 566.273 304.509 566.546C305.155 566.818 305.615 567.145 305.889 567.525C306.834 568.834 307.817 570.309 308.838 571.948C309.86 573.587 311.003 575.283 312.267 577.036C312.541 577.417 312.785 577.755 312.998 578.05C313.211 578.346 313.417 578.631 313.615 578.906C313.834 579.165 314.043 579.432 314.241 579.707C314.475 579.987 314.75 580.302 315.067 580.652L314.887 581.071ZM313.793 590.239C314.026 590.072 314.259 589.839 314.494 589.541C314.765 589.249 314.992 588.941 315.176 588.616C315.359 588.292 315.477 587.966 315.53 587.638C315.583 587.311 315.518 587.021 315.335 586.768C315.046 586.366 314.701 586.021 314.3 585.732L314.624 585.113C315.436 585.394 316.233 585.719 317.012 586.088C317.807 586.478 318.519 586.864 319.147 587.245C319.797 587.612 320.33 587.95 320.746 588.26C321.162 588.57 321.416 588.788 321.507 588.915C321.781 589.295 321.895 589.742 321.849 590.257C321.824 590.757 321.708 591.242 321.501 591.712C321.331 592.188 321.104 592.608 320.821 592.973C320.575 593.343 320.357 593.597 320.166 593.734C318.836 594.694 317.228 595.291 315.343 595.527C313.473 595.784 311.472 595.814 309.34 595.618C307.229 595.406 305.059 595.045 302.828 594.535C300.619 594.009 298.499 593.451 296.468 592.861C295.277 593.88 293.924 595.032 292.41 596.316C290.933 597.607 289.415 598.974 287.856 600.419C286.318 601.849 284.786 603.308 283.258 604.795C281.745 606.303 280.378 607.77 279.159 609.195C277.632 610.907 276.456 612.349 275.632 613.521C274.844 614.699 274.278 615.717 273.934 616.575C273.605 617.455 273.46 618.234 273.499 618.912C273.554 619.611 273.668 620.347 273.841 621.121L272.838 621.267C272.301 620.434 271.828 619.443 271.417 618.294C270.985 617.161 270.75 615.901 270.714 614.515C270.672 613.165 270.886 611.726 271.357 610.198C271.844 608.691 272.72 607.145 273.984 605.559C275.104 604.173 276.346 602.78 277.711 601.378C279.076 599.976 280.496 598.583 281.97 597.199C283.48 595.821 284.998 594.453 286.524 593.096C288.05 591.739 289.536 590.394 290.983 589.062C294.234 590.185 297.026 591.03 299.359 591.594C301.729 592.165 303.794 592.49 305.553 592.57C307.312 592.65 308.831 592.485 310.11 592.077C311.425 591.674 312.653 591.062 313.793 590.239ZM290.833 614.165C292.499 615.051 294.171 615.611 295.85 615.845C297.564 616.086 299.131 616.144 300.55 616.019C301.985 615.916 303.202 615.712 304.203 615.408C305.204 615.104 305.852 614.845 306.148 614.632C306.697 614.236 307.002 613.791 307.063 613.297C307.146 612.788 307.012 612.291 306.662 611.805C306.342 611.361 305.827 611.026 305.118 610.799C304.429 610.557 303.637 610.438 302.741 610.442C301.866 610.431 300.95 610.562 299.991 610.836C299.033 611.11 298.131 611.551 297.286 612.16L297.036 612.148C297.036 610.768 297.17 609.595 297.438 608.631C297.743 607.673 298.201 606.974 298.814 606.532C299.342 606.151 300.007 605.96 300.809 605.96C301.632 605.944 302.511 606.161 303.446 606.611C304.401 607.045 305.402 607.721 306.447 608.636C307.514 609.536 308.565 610.705 309.601 612.141C310.15 612.902 310.481 613.674 310.597 614.457C310.734 615.225 310.717 615.96 310.548 616.66C310.415 617.366 310.163 617.996 309.794 618.552C309.46 619.114 309.093 619.539 308.691 619.829C307.973 620.346 307.165 620.673 306.266 620.807C305.389 620.926 304.441 620.903 303.423 620.738C302.421 620.594 301.345 620.326 300.196 619.935C299.068 619.528 297.905 619.051 296.706 618.502C296.857 619.068 296.945 619.679 296.969 620.336C297.014 620.977 296.947 621.619 296.769 622.262C296.611 622.889 296.323 623.514 295.905 624.137C295.508 624.744 294.94 625.314 294.201 625.847C293.082 626.655 291.812 627.298 290.391 627.776C289.007 628.261 287.537 628.582 285.981 628.741C284.447 628.884 282.885 628.855 281.295 628.653C279.699 628.488 278.161 628.136 276.681 627.598C275.201 627.059 273.834 626.344 272.58 625.45C271.289 624.551 270.187 623.467 269.273 622.2C269.06 621.904 268.82 621.483 268.554 620.936C268.273 620.369 268.052 619.773 267.892 619.15C267.732 618.527 267.681 617.922 267.739 617.335C267.797 616.747 268.058 616.286 268.523 615.951C268.987 615.615 269.671 615.428 270.573 615.387C271.453 615.362 272.474 615.397 273.634 615.492L273.951 616.466C273.407 616.602 272.91 616.848 272.461 617.204C271.99 617.576 271.63 618.012 271.381 618.512C271.132 619.013 271.023 619.574 271.053 620.194C271.083 620.815 271.327 621.442 271.783 622.075C272.347 622.857 273.201 623.573 274.345 624.225C275.453 624.871 276.755 625.297 278.252 625.502C279.727 625.722 281.325 625.645 283.046 625.271C284.788 624.882 286.546 624.047 288.32 622.768C289.186 622.143 289.824 621.491 290.232 620.811C290.662 620.116 290.922 619.431 291.013 618.755C291.119 618.101 291.092 617.462 290.932 616.839C290.772 616.216 290.545 615.657 290.252 615.162L290.833 614.165ZM293.315 639.778C293.726 640.349 294.557 640.633 295.807 640.63C297.073 640.648 298.545 640.486 300.224 640.142C301.923 639.783 303.727 639.301 305.634 638.696C307.563 638.076 309.385 637.42 311.102 636.728C312.855 636.042 314.399 635.378 315.734 634.737C317.105 634.101 318.076 633.577 318.646 633.166C318.879 632.998 319.104 632.82 319.321 632.631C319.559 632.428 319.735 632.204 319.849 631.962C319.999 631.725 320.077 631.476 320.082 631.216C320.087 630.955 319.982 630.677 319.769 630.382C319.358 629.811 318.519 629.517 317.254 629.498C316.004 629.501 314.529 629.682 312.829 630.041C311.15 630.384 309.347 630.866 307.418 631.486C305.511 632.091 303.681 632.737 301.928 633.423C300.211 634.115 298.667 634.779 297.296 635.415C295.961 636.057 295.008 636.583 294.438 636.994C293.931 637.36 293.509 637.777 293.172 638.244C292.871 638.718 292.919 639.229 293.315 639.778ZM291.179 640.356C290.722 639.722 290.402 638.989 290.22 638.158C290.053 637.347 290.026 636.531 290.141 635.71C290.276 634.874 290.554 634.08 290.975 633.327C291.38 632.553 291.931 631.915 292.628 631.413C293.642 630.681 294.785 630.018 296.056 629.422C297.313 628.805 298.555 628.278 299.782 627.843C301.015 627.371 302.168 626.989 303.242 626.696C304.321 626.368 305.182 626.116 305.826 625.94C307.387 625.521 308.923 625.248 310.436 625.12C311.986 624.998 313.456 625.078 314.847 625.359C316.259 625.625 317.56 626.116 318.75 626.831C319.939 627.546 320.991 628.537 321.905 629.804C322.362 630.438 322.674 631.16 322.841 631.971C323.024 632.802 323.047 633.636 322.912 634.472C322.797 635.293 322.53 636.08 322.11 636.833C321.704 637.607 321.153 638.245 320.456 638.748C319.442 639.479 318.3 640.142 317.028 640.738C315.771 641.356 314.519 641.889 313.271 642.34C312.059 642.797 310.906 643.179 309.811 643.486C308.753 643.8 307.902 644.045 307.258 644.22C305.676 644.654 304.122 644.924 302.593 645.031C301.08 645.159 299.618 645.09 298.206 644.824C296.815 644.543 295.525 644.045 294.335 643.329C293.145 642.614 292.093 641.623 291.179 640.356ZM345.529 647.203C345.768 647.223 346.1 647.193 346.523 647.112C346.968 647.016 347.447 646.879 347.961 646.702C348.496 646.508 349.039 646.261 349.592 645.959C350.181 645.662 350.74 645.324 351.268 644.943C352.324 644.181 352.942 643.414 353.124 642.641C353.341 641.874 353.267 641.237 352.901 640.731C352.703 640.456 352.413 640.232 352.031 640.058C351.649 639.884 351.194 639.81 350.668 639.837C350.162 639.848 349.585 639.96 348.935 640.172C348.3 640.405 347.613 640.788 346.874 641.321C346.494 641.595 345.879 642.167 345.029 643.037C344.194 643.927 343.221 644.982 342.11 646.201C340.998 647.42 339.778 648.734 338.449 650.141C337.157 651.555 335.849 652.947 334.527 654.318C333.204 655.69 331.906 656.963 330.634 658.137C329.398 659.317 328.273 660.273 327.259 661.004C326.246 661.735 325.049 662.325 323.671 662.773C322.329 663.227 320.921 663.568 319.448 663.796C317.996 664.008 316.558 664.129 315.136 664.16C313.713 664.191 312.411 664.166 311.23 664.087C310.07 663.992 309.104 663.854 308.331 663.673C307.558 663.492 307.096 663.296 306.943 663.085C306.685 662.726 306.462 662.372 306.276 662.025C306.105 661.699 305.964 661.303 305.853 660.837C305.745 659.887 305.728 658.84 305.802 657.695C305.891 656.572 306.055 655.442 306.295 654.305C306.52 653.148 306.801 652.046 307.139 651C307.482 649.918 307.87 648.964 308.302 648.139C309.328 648.137 310.348 648.172 311.363 648.243C312.232 648.29 313.16 648.376 314.148 648.498C315.12 648.6 316.029 648.747 316.874 648.94L316.92 649.003C316.325 649.914 315.706 650.971 315.063 652.172C314.421 653.374 313.865 654.562 313.395 655.735C312.94 656.93 312.63 658.037 312.465 659.055C312.321 660.057 312.44 660.823 312.821 661.351C312.897 661.456 313.043 661.592 313.259 661.757C313.489 661.944 313.787 662.067 314.15 662.126C314.535 662.169 315.002 662.105 315.552 661.933C316.139 661.767 316.834 661.395 317.636 660.816C318.185 660.42 319.028 659.652 320.164 658.511C321.316 657.392 322.601 656.08 324.02 654.575C325.439 653.07 326.927 651.483 328.485 649.814C330.058 648.166 331.532 646.605 332.909 645.13C334.286 643.656 335.5 642.379 336.552 641.299C337.64 640.226 338.406 639.529 338.849 639.209C339.779 638.539 340.814 638.082 341.954 637.837C343.13 637.599 344.279 637.477 345.399 637.472C346.555 637.473 347.624 637.553 348.606 637.712C349.587 637.871 350.358 638.005 350.919 638.115C351.707 638.317 352.565 638.549 353.492 638.812C354.435 639.095 355.338 639.39 356.203 639.698C357.082 640.027 357.857 640.368 358.528 640.719C359.219 641.055 359.695 641.402 359.954 641.761C360.213 642.12 360.364 642.509 360.409 642.926C360.474 643.329 360.382 643.78 360.133 644.281C359.92 644.787 359.504 645.345 358.883 645.953C358.298 646.567 357.467 647.262 356.39 648.039C355.904 648.39 355.368 648.648 354.782 648.814C354.231 648.986 353.643 649.105 353.017 649.172C352.412 649.223 351.794 649.235 351.164 649.207C350.556 649.165 349.96 649.096 349.379 649.002C347.997 648.778 346.611 648.414 345.219 647.908L345.529 647.203Z" fill="#141414"/>
<path d="M1115.5 315.629C1115.51 315.421 1115.47 315.17 1115.36 314.874C1115.25 314.579 1115.1 314.306 1114.91 314.057C1114.75 313.783 1114.57 313.548 1114.38 313.351C1114.18 313.153 1114.01 313.049 1113.85 313.037C1113.44 313.005 1112.97 313.114 1112.46 313.362C1111.97 313.613 1111.55 313.829 1111.19 314.011L1110.78 313.197C1111.34 312.769 1111.93 312.331 1112.57 311.882C1113.23 311.436 1113.87 311.04 1114.5 310.696C1115.15 310.328 1115.78 310.048 1116.36 309.857C1116.95 309.641 1117.46 309.548 1117.87 309.579C1118.76 309.646 1119.54 309.992 1120.22 310.619C1120.91 311.245 1121.47 311.94 1121.91 312.704C1122.37 313.445 1122.71 314.162 1122.92 314.857C1123.16 315.554 1123.26 316.006 1123.25 316.214C1123.2 316.811 1122.94 317.901 1122.45 319.483C1122 321.042 1121.31 322.922 1120.38 325.125C1119.46 327.301 1118.33 329.697 1116.98 332.311C1115.64 334.9 1114.07 337.523 1112.27 340.183C1110.51 342.844 1108.51 345.435 1106.28 347.957C1104.08 350.455 1101.65 352.7 1099 354.694C1096.34 356.687 1093.46 358.324 1090.36 359.605C1087.26 360.886 1083.94 361.628 1080.4 361.831L1079.61 360.909C1080.06 359.82 1080.68 358.326 1081.47 356.427C1082.3 354.505 1083.2 352.34 1084.2 349.934C1085.21 347.504 1086.28 344.921 1087.41 342.185C1088.55 339.425 1089.69 336.677 1090.81 333.941C1091.93 331.179 1093.01 328.518 1094.04 325.958C1095.09 323.4 1096.02 321.093 1096.83 319.039C1097.64 316.985 1098.29 315.284 1098.78 313.937C1099.3 312.566 1099.6 311.714 1099.68 311.38C1099.7 311.094 1099.64 310.829 1099.5 310.583C1098.54 310.589 1097.58 310.634 1096.63 310.72C1095.69 310.805 1094.84 310.95 1094.09 311.155C1093.75 311.259 1093.37 311.452 1092.95 311.735C1092.54 311.991 1092.15 312.327 1091.78 312.743C1091.41 313.159 1091.09 313.631 1090.81 314.159C1090.56 314.662 1090.42 315.187 1090.38 315.732C1090.35 316.07 1090.35 316.5 1090.36 317.023C1090.38 317.521 1090.44 318.035 1090.56 318.566L1090.06 318.998C1088.8 317.937 1087.83 316.858 1087.13 315.761C1086.43 314.637 1086.11 313.621 1086.18 312.712C1086.22 312.193 1086.43 311.635 1086.82 311.037C1087.23 310.441 1087.71 309.903 1088.27 309.423C1088.83 308.917 1089.42 308.504 1090.05 308.186C1090.67 307.867 1091.22 307.726 1091.69 307.761C1093.3 307.882 1095.06 308.08 1096.97 308.355C1098.88 308.63 1100.91 308.849 1103.07 309.011C1103.54 309.047 1103.95 309.078 1104.32 309.105C1104.68 309.133 1105.02 309.158 1105.33 309.182C1105.67 309.181 1106.01 309.194 1106.34 309.219C1106.68 309.219 1107.09 309.21 1107.56 309.193L1107.77 309.601C1107.19 310.968 1106.51 312.6 1105.71 314.499C1104.94 316.374 1104.11 318.4 1103.22 320.578C1102.32 322.757 1101.39 325.05 1100.42 327.458C1099.46 329.841 1098.5 332.236 1097.53 334.644C1096.57 337.026 1095.62 339.37 1094.69 341.677C1093.79 343.985 1092.93 346.153 1092.12 348.182C1091.35 350.186 1090.63 352 1089.99 353.623C1089.34 355.245 1088.83 356.564 1088.44 357.58C1091.04 356.601 1093.49 355.14 1095.78 353.198C1098.09 351.257 1100.23 349.042 1102.2 346.552C1104.16 344.036 1105.93 341.362 1107.5 338.53C1109.08 335.671 1110.43 332.848 1111.55 330.06C1112.7 327.274 1113.6 324.627 1114.26 322.117C1114.95 319.609 1115.36 317.447 1115.5 315.629ZM1135.92 318.541C1136.82 317.72 1137.77 316.891 1138.77 316.053C1139.78 315.188 1140.75 314.426 1141.69 313.765C1142.65 313.107 1143.55 312.574 1144.39 312.168C1145.23 311.761 1145.93 311.578 1146.47 311.619C1147.12 311.668 1147.71 311.974 1148.24 312.536C1148.81 313.075 1149.27 313.776 1149.65 314.64C1150.03 315.479 1150.3 316.426 1150.46 317.482C1150.64 318.541 1150.69 319.589 1150.61 320.628C1150.49 322.186 1150.17 323.911 1149.63 325.803C1149.13 327.672 1148.42 329.551 1147.52 331.442C1146.63 333.307 1145.54 335.118 1144.25 336.875C1142.97 338.607 1141.5 340.128 1139.84 341.439C1138.17 342.75 1136.32 343.759 1134.28 344.467C1132.24 345.175 1130.03 345.439 1127.64 345.259C1126.7 345.188 1125.81 345.043 1124.97 344.822C1124.15 346.745 1123.35 348.631 1122.58 350.479C1121.85 352.304 1121.14 354.04 1120.47 355.686C1119.82 357.309 1119.21 358.817 1118.64 360.21C1118.09 361.579 1117.61 362.783 1117.19 363.822C1116.87 363.851 1116.53 363.864 1116.17 363.863C1115.85 363.891 1115.47 363.889 1115.03 363.856C1114.59 363.848 1114.11 363.825 1113.59 363.786C1112.47 363.702 1111.34 363.537 1110.18 363.294L1109.94 362.883C1110.29 362.336 1110.84 361.267 1111.59 359.678C1112.34 358.063 1113.23 356.133 1114.26 353.886C1115.26 351.612 1116.35 349.108 1117.53 346.376C1118.7 343.644 1119.87 340.873 1121.05 338.063C1122.26 335.229 1123.42 332.457 1124.54 329.747C1125.66 327.037 1126.67 324.567 1127.57 322.337C1128.47 320.107 1129.2 318.229 1129.75 316.704C1130.34 315.181 1130.68 314.188 1130.76 313.725C1130.78 313.517 1130.75 313.332 1130.69 313.171C1130.62 312.983 1130.53 312.845 1130.4 312.758L1130.44 312.29C1131.16 312.135 1131.82 312.015 1132.43 311.931C1133.03 311.82 1133.64 311.748 1134.24 311.715C1134.87 311.658 1135.54 311.63 1136.25 311.631C1136.95 311.632 1137.76 311.654 1138.67 311.697L1138.81 311.942L1135.92 318.541ZM1125.94 342.349C1126.63 342.872 1127.52 343.174 1128.61 343.256C1130.04 343.364 1131.37 343.124 1132.58 342.537C1133.83 341.952 1134.96 341.124 1135.98 340.051C1137.01 338.979 1137.91 337.729 1138.7 336.299C1139.51 334.846 1140.2 333.305 1140.77 331.677C1141.36 330.05 1141.83 328.4 1142.16 326.728C1142.52 325.032 1142.76 323.418 1142.88 321.886C1142.89 321.73 1142.9 321.391 1142.92 320.87C1142.93 320.349 1142.9 319.811 1142.84 319.258C1142.78 318.679 1142.66 318.161 1142.49 317.704C1142.31 317.247 1142.06 317.005 1141.72 316.98C1141.25 316.945 1140.75 317.076 1140.2 317.375C1139.66 317.647 1139.07 318.034 1138.43 318.534C1137.82 319.01 1137.16 319.574 1136.46 320.226C1135.79 320.855 1135.09 321.507 1134.36 322.183L1125.94 342.349ZM1145.21 368.403C1145.52 367.722 1146.05 366.509 1146.81 364.764C1147.57 363.019 1148.47 360.946 1149.51 358.543C1150.56 356.141 1151.7 353.511 1152.93 350.653C1154.17 347.769 1155.4 344.859 1156.64 341.923C1157.91 338.989 1159.13 336.13 1160.31 333.346C1161.49 330.536 1162.54 327.991 1163.47 325.711C1164.4 323.405 1165.17 321.478 1165.79 319.931C1166.4 318.358 1166.75 317.34 1166.84 316.877C1166.85 316.669 1166.8 316.403 1166.66 316.08C1166.53 315.757 1166.4 315.551 1166.28 315.464C1165.23 315.463 1164.3 315.523 1163.48 315.644C1162.67 315.765 1161.76 315.998 1160.77 316.341C1160.42 316.445 1160.04 316.612 1159.63 316.843C1159.22 317.073 1158.84 317.37 1158.47 317.734C1158.1 318.098 1157.78 318.531 1157.51 319.033C1157.26 319.51 1157.12 320.061 1157.07 320.684C1157.05 321.022 1157.04 321.465 1157.05 322.014C1157.06 322.538 1157.13 323.065 1157.24 323.596L1156.74 324.028C1155.49 322.967 1154.51 321.888 1153.81 320.791C1153.11 319.667 1152.8 318.651 1152.87 317.742C1152.91 317.223 1153.12 316.664 1153.5 316.067C1153.91 315.471 1154.4 314.92 1154.96 314.414C1155.52 313.908 1156.11 313.495 1156.74 313.177C1157.36 312.832 1157.91 312.678 1158.38 312.713C1159.18 312.774 1159.91 312.855 1160.55 312.955C1161.22 313.058 1161.9 313.161 1162.57 313.264C1163.26 313.369 1164 313.477 1164.78 313.587C1165.58 313.7 1166.52 313.797 1167.61 313.88C1168.08 313.915 1168.61 313.955 1169.21 314C1169.84 314.021 1170.46 314.042 1171.09 314.063C1171.74 314.06 1172.36 314.068 1172.96 314.087C1173.56 314.107 1174.1 314.108 1174.57 314.091L1174.72 315.199C1174.44 315.857 1173.96 316.97 1173.29 318.539C1172.63 320.108 1171.83 321.98 1170.91 324.157C1169.99 326.333 1168.97 328.751 1167.86 331.409C1166.74 334.067 1165.6 336.814 1164.42 339.65C1163.24 342.46 1162.05 345.282 1160.84 348.116C1159.66 350.952 1158.53 353.661 1157.44 356.243C1156.39 358.801 1155.4 361.155 1154.48 363.306C1153.59 365.432 1152.84 367.204 1152.24 368.621C1151.86 369.506 1151.24 370.321 1150.37 371.065C1149.53 371.811 1148.57 372.47 1147.48 373.041C1146.39 373.638 1145.26 374.153 1144.07 374.586C1142.92 375.047 1141.83 375.422 1140.82 375.711C1139.8 376 1138.95 376.21 1138.26 376.341C1137.54 376.496 1137.11 376.568 1136.95 376.556C1136.82 376.546 1136.65 376.52 1136.45 376.479C1136.24 376.463 1136.03 376.434 1135.83 376.393C1135.6 376.349 1135.38 376.28 1135.18 376.187C1134.95 376.117 1134.78 376.04 1134.69 375.954C1134.41 375.777 1134.11 375.466 1133.78 375.024C1133.45 374.581 1133.13 374.074 1132.83 373.503C1132.51 372.93 1132.22 372.308 1131.96 371.635C1131.67 370.986 1131.45 370.343 1131.32 369.706L1137.1 366.225C1137.4 367.501 1137.75 368.637 1138.14 369.633C1138.32 370.065 1138.51 370.484 1138.71 370.891C1138.91 371.324 1139.15 371.707 1139.41 372.04C1139.64 372.371 1139.91 372.64 1140.21 372.845C1140.48 373.048 1140.77 373.162 1141.08 373.185C1141.42 373.211 1141.8 373.056 1142.22 372.722C1142.61 372.412 1142.99 372.01 1143.37 371.516C1143.74 371.022 1144.1 370.487 1144.43 369.912C1144.76 369.362 1145.02 368.859 1145.21 368.403ZM1204.56 316.902C1204.25 317.557 1203.76 318.643 1203.1 320.16C1202.46 321.679 1201.7 323.489 1200.81 325.589C1199.92 327.69 1198.94 330.018 1197.85 332.574C1196.8 335.107 1195.7 337.74 1194.56 340.474C1193.44 343.184 1192.3 345.919 1191.16 348.679C1190.04 351.415 1188.95 354.036 1187.9 356.542C1186.87 359.05 1185.93 361.355 1185.07 363.458C1184.2 365.56 1183.48 367.334 1182.9 368.779C1182.59 368.807 1182.25 368.821 1181.88 368.819C1181.25 368.85 1180.39 368.825 1179.3 368.742C1178.78 368.703 1178.23 368.635 1177.63 368.538C1177.06 368.469 1176.48 368.373 1175.89 368.25L1175.69 367.843C1176.04 367.295 1176.59 366.201 1177.34 364.56C1178.12 362.921 1179.01 360.951 1180.02 358.651C1181.06 356.352 1182.18 353.825 1183.38 351.069C1184.58 348.287 1185.78 345.466 1186.99 342.606L1177.48 342.045C1176.42 344.551 1175.37 347.044 1174.33 349.525C1173.3 352.007 1172.33 354.375 1171.4 356.629C1170.5 358.86 1169.67 360.925 1168.9 362.826C1168.13 364.7 1167.49 366.284 1166.97 367.577C1166.66 367.606 1166.31 367.619 1165.95 367.618C1165.63 367.646 1165.26 367.644 1164.81 367.61C1164.37 367.603 1163.89 367.58 1163.37 367.541C1162.25 367.456 1161.12 367.292 1159.96 367.048L1159.72 366.638C1160.07 366.09 1160.62 365.022 1161.37 363.433C1162.12 361.818 1163.01 359.887 1164.04 357.641C1165.05 355.367 1166.13 352.863 1167.31 350.131C1168.48 347.399 1169.65 344.628 1170.83 341.818C1172.04 338.984 1173.2 336.212 1174.32 333.502C1175.44 330.792 1176.45 328.322 1177.35 326.092C1178.25 323.861 1178.98 321.984 1179.53 320.459C1180.12 318.936 1180.46 317.943 1180.54 317.48C1180.56 317.272 1180.53 317.087 1180.47 316.925C1180.4 316.738 1180.31 316.6 1180.18 316.512L1180.22 316.045C1180.94 315.89 1181.6 315.77 1182.21 315.686C1182.81 315.575 1183.42 315.503 1184.02 315.47C1184.66 315.413 1185.32 315.385 1186.03 315.386C1186.73 315.387 1187.54 315.409 1188.45 315.452L1188.59 315.697C1188.28 316.353 1187.79 317.465 1187.12 319.034C1186.46 320.577 1185.67 322.436 1184.74 324.613C1183.83 326.763 1182.81 329.141 1181.7 331.748C1180.61 334.356 1179.5 337.04 1178.35 339.8L1187.94 340.367C1189.03 337.785 1190.05 335.276 1191.02 332.842C1192.01 330.41 1192.9 328.218 1193.67 326.265C1194.44 324.313 1195.08 322.663 1195.57 321.316C1196.09 319.971 1196.39 319.093 1196.47 318.681C1196.51 318.24 1196.4 317.918 1196.16 317.717L1196.19 317.25C1196.91 317.095 1197.57 316.975 1198.18 316.89C1198.79 316.779 1199.39 316.708 1199.99 316.675C1200.63 316.618 1201.29 316.59 1202 316.591C1202.7 316.592 1203.51 316.614 1204.42 316.656L1204.56 316.902ZM1200.06 366.156L1189.78 365.38L1189.16 363.649C1191.37 361.361 1193.32 359.314 1194.99 357.508C1196.67 355.676 1198.24 353.966 1199.69 352.378C1201.14 350.79 1202.56 349.252 1203.96 347.764C1205.37 346.278 1206.93 344.698 1208.62 343.023C1208.96 342.683 1209.31 342.357 1209.68 342.045C1210.07 341.735 1210.42 341.475 1210.75 341.265C1211.08 341.028 1211.37 340.841 1211.62 340.703C1211.86 340.565 1212.03 340.499 1212.1 340.505C1212.31 340.52 1212.59 340.62 1212.94 340.803C1213.32 340.988 1213.68 341.211 1214.03 341.472C1214.38 341.708 1214.67 341.952 1214.91 342.205C1215.18 342.46 1215.31 342.666 1215.3 342.822C1215.29 342.9 1215.26 343.027 1215.19 343.205C1215.15 343.359 1215.1 343.525 1215.04 343.703C1215 343.857 1214.95 344.01 1214.88 344.162C1214.85 344.315 1214.81 344.417 1214.78 344.467C1213.53 347.533 1212.2 350.763 1210.8 354.156C1209.42 357.526 1208.05 360.987 1206.69 364.54L1211.95 364.937L1211.05 366.984L1205.87 366.594C1205.27 368.194 1204.69 369.769 1204.1 371.318C1203.51 372.893 1202.96 374.457 1202.45 376.012C1202.16 376.042 1201.85 376.071 1201.51 376.097C1200.9 376.13 1200.12 376.11 1199.16 376.038C1198.72 376.005 1198.25 375.943 1197.76 375.854C1197.27 375.791 1196.78 375.689 1196.3 375.548L1196.09 375.141L1200.06 366.156ZM1208.45 345.36C1207.92 345.765 1207.19 346.415 1206.26 347.311C1205.33 348.207 1204.32 349.319 1203.23 350.647C1202.88 351.065 1202.32 351.767 1201.54 352.753C1200.79 353.741 1199.97 354.854 1199.1 356.094C1198.25 357.335 1197.42 358.644 1196.61 360.019C1195.8 361.369 1195.16 362.626 1194.68 363.791L1200.84 364.177C1201.53 362.559 1202.22 360.978 1202.88 359.435C1203.55 357.866 1204.15 356.423 1204.7 355.106C1205.27 353.765 1205.76 352.575 1206.18 351.536C1206.6 350.47 1206.94 349.608 1207.2 348.948C1207.29 348.721 1207.46 348.289 1207.69 347.654C1207.92 346.992 1208.17 346.228 1208.45 345.36Z" fill="#141414"/>
<path d="M819.268 525C819.713 525.317 820.119 525.511 820.485 525.58C820.873 525.664 821.26 525.637 821.648 525.497L821.998 526.083C821.251 526.637 820.387 527.221 819.407 527.833C818.448 528.461 817.469 528.914 816.47 529.194L816.061 529.094C815.264 528.462 814.584 527.914 814.021 527.448C813.463 527.019 812.969 526.635 812.539 526.296C812.109 525.957 811.711 525.641 811.344 525.348C810.984 525.091 810.591 524.811 810.167 524.509C809.785 524.237 809.245 523.852 808.545 523.353C807.809 522.86 807.059 522.342 806.296 521.797C805.496 521.259 804.739 520.751 804.024 520.274C803.294 519.817 802.73 519.464 802.334 519.213L802.514 518.286C803.931 518.273 805.549 518.179 807.368 518.005C809.166 517.815 811.043 517.538 812.998 517.173C814.953 516.808 816.912 516.349 818.873 515.796C820.834 515.243 822.686 514.596 824.429 513.856C826.187 513.094 827.771 512.241 829.181 511.295C830.591 510.349 831.711 509.293 832.543 508.127C832.648 507.978 832.724 507.76 832.769 507.472C832.851 507.179 832.882 506.865 832.864 506.532C832.866 506.215 832.807 505.916 832.686 505.638C832.579 505.338 832.41 505.105 832.176 504.939C831.264 504.289 830.345 503.986 829.419 504.029C828.508 504.051 827.623 504.284 826.763 504.726C825.94 505.163 825.157 505.724 824.413 506.409C823.69 507.109 823.058 507.794 822.517 508.463L822.267 508.477C821.824 507.17 821.594 505.967 821.578 504.868C821.555 503.733 821.763 502.857 822.202 502.242C822.58 501.712 823.188 501.33 824.026 501.096C824.88 500.841 825.868 500.778 826.991 500.907C828.151 501.03 829.412 501.37 830.775 501.925C832.153 502.46 833.563 503.241 835.005 504.269C835.726 504.783 836.283 505.436 836.678 506.229C837.093 507.037 837.345 507.872 837.434 508.735C837.559 509.591 837.532 510.436 837.355 511.269C837.177 512.101 836.884 512.804 836.476 513.377C835.372 514.925 833.869 516.092 831.965 516.878C830.098 517.657 828.025 518.21 825.746 518.536C823.467 518.863 821.062 519.051 818.531 519.102C816.036 519.147 813.61 519.208 811.252 519.286L819.268 525ZM851.531 530.009C851.894 529.5 852.062 529.108 852.034 528.833C852.028 528.572 851.994 528.372 851.934 528.233L852.206 527.852C852.914 528.069 853.565 528.277 854.159 528.476C854.774 528.691 855.373 528.926 855.958 529.183C856.564 529.455 857.178 529.781 857.802 530.162C858.442 530.522 859.15 530.963 859.929 531.486L859.92 531.767C858.725 532.547 857.451 533.414 856.099 534.369C854.762 535.302 853.258 536.357 851.588 537.533C849.94 538.725 848.099 540.051 846.066 541.512C844.033 542.973 841.745 544.636 839.2 546.5C837.5 547.719 835.809 548.656 834.126 549.311C832.444 549.967 830.8 550.41 829.196 550.642C827.598 550.91 826.066 551.017 824.601 550.964C823.136 550.911 821.789 550.782 820.559 550.578C819.315 550.394 818.195 550.171 817.198 549.909C816.208 549.683 815.386 549.512 814.732 549.398L814.931 548.245C816.075 548.389 817.242 548.501 818.432 548.582C819.628 548.699 820.924 548.631 822.319 548.378C823.72 548.162 825.256 547.69 826.927 546.961C828.582 546.255 830.444 545.167 832.513 543.7C833.164 543.236 833.925 542.707 834.796 542.113C835.688 541.534 836.655 540.896 837.696 540.199C835.846 540.415 834.156 540.41 832.624 540.181C831.113 539.967 829.838 539.49 828.799 538.75C828.184 538.311 827.694 537.675 827.33 536.839C826.972 536.04 826.781 535.12 826.755 534.079C826.766 533.032 826.964 531.925 827.347 530.759C827.724 529.557 828.336 528.362 829.183 527.174C829.954 526.093 831.009 524.926 832.349 523.675C833.704 522.402 835.178 521.119 836.772 519.824C838.403 518.524 840.065 517.247 841.759 515.992C843.475 514.752 845.067 513.617 846.538 512.586C848.029 511.57 849.313 510.711 850.39 510.007C851.482 509.283 852.213 508.796 852.582 508.548C854.028 507.596 855.588 506.821 857.262 506.223C858.935 505.625 860.633 505.172 862.355 504.865C864.114 504.551 865.829 504.366 867.5 504.31C869.192 504.269 870.772 504.34 872.241 504.524C873.745 504.701 875.088 504.97 876.269 505.333C877.471 505.71 878.433 506.155 879.154 506.669C879.726 507.078 880.108 507.574 880.3 508.158C880.491 508.742 880.54 509.368 880.447 510.037C880.375 510.722 880.165 511.42 879.818 512.131C879.491 512.858 879.086 513.561 878.603 514.24C878.149 514.876 877.565 515.403 876.851 515.822C876.159 516.255 875.414 516.604 874.618 516.868C873.837 517.111 873.026 517.284 872.185 517.388C871.343 517.492 870.55 517.55 869.806 517.563C869.097 517.57 868.448 517.539 867.857 517.47C867.288 517.416 866.867 517.355 866.595 517.289L866.789 516.612C867.395 516.436 867.995 516.177 868.591 515.834C869.209 515.507 869.799 515.128 870.361 514.697C870.924 514.267 871.452 513.795 871.945 513.283C872.459 512.786 872.905 512.273 873.283 511.743C873.561 511.397 873.779 511.025 873.936 510.625C874.093 510.225 874.195 509.835 874.243 509.453C874.291 509.072 874.262 508.731 874.156 508.432C874.065 508.111 873.892 507.86 873.638 507.678C872.853 507.119 871.734 506.961 870.281 507.205C868.865 507.442 867.226 507.969 865.365 508.785C863.54 509.595 861.568 510.635 859.447 511.906C857.347 513.192 855.219 514.585 853.062 516.085C850.92 517.565 848.816 519.103 846.75 520.7C844.705 522.313 842.817 523.862 841.087 525.347C839.393 526.826 837.913 528.185 836.646 529.424C835.4 530.679 834.504 531.688 833.96 532.451C833.703 532.811 833.484 533.231 833.303 533.709C833.122 534.188 833.006 534.665 832.955 535.14C832.904 535.615 832.922 536.06 833.011 536.475C833.135 536.884 833.356 537.201 833.674 537.428C834.353 537.912 835.308 538.209 836.541 538.32C837.809 538.425 839.291 538.298 840.986 537.939C842.205 537.081 843.398 536.237 844.566 535.406C845.77 534.569 846.853 533.79 847.815 533.069C848.777 532.347 849.588 531.726 850.247 531.205C850.922 530.662 851.35 530.264 851.531 530.009ZM870.783 546.61C870.692 546.738 870.541 546.95 870.329 547.247C870.118 547.543 869.927 547.855 869.758 548.182C869.61 548.525 869.516 548.858 869.477 549.182C869.438 549.506 869.546 549.758 869.8 549.94C870.203 550.227 870.941 550.337 872.012 550.269C873.099 550.18 874.326 549.984 875.694 549.68C877.099 549.37 878.545 548.978 880.034 548.504C881.523 548.03 882.89 547.549 884.133 547.061C886.75 545.184 889.3 543.356 891.784 541.577C894.304 539.791 896.552 538.164 898.527 536.693C900.518 535.202 902.172 533.935 903.491 532.892C904.81 531.85 905.606 531.138 905.878 530.756C906.089 530.459 906.213 530.196 906.249 529.965C906.322 529.729 906.343 529.52 906.312 529.339C906.282 529.157 906.229 529.007 906.153 528.889C906.077 528.771 906.033 528.676 906.021 528.603L906.452 527.999C906.894 528.186 907.382 528.422 907.915 528.706C908.484 528.984 909.038 529.283 909.578 529.603C910.153 529.918 910.703 530.246 911.227 530.587C911.772 530.944 912.267 531.281 912.713 531.598L913.89 532.437L913.446 533.464C912.862 533.879 911.86 534.589 910.442 535.592C909.023 536.596 907.312 537.807 905.309 539.225C903.322 540.623 901.109 542.179 898.67 543.895C896.268 545.605 893.774 547.377 891.188 549.211C888.637 551.039 886.051 552.873 883.428 554.713C880.826 556.568 878.339 558.329 875.968 559.997C873.617 561.679 871.448 563.219 869.46 564.616C867.494 566.029 865.853 567.21 864.537 568.159C863.753 568.719 862.806 569.084 861.695 569.251C860.591 569.455 859.425 569.52 858.199 569.445C856.958 569.392 855.72 569.245 854.484 569.004C853.255 568.799 852.139 568.547 851.137 568.249C850.141 567.986 849.303 567.725 848.625 567.466C847.931 567.227 847.532 567.07 847.426 566.994C846.429 566.284 845.78 565.198 845.479 563.736C845.184 562.31 845.412 560.442 846.164 558.132L853.125 558.393C852.718 559.638 852.425 560.788 852.248 561.845C852.154 562.29 852.09 562.74 852.054 563.194C852.003 563.669 851.993 564.11 852.023 564.515C852.075 564.936 852.165 565.304 852.292 565.618C852.42 565.933 852.611 566.181 852.865 566.363C853.141 566.559 853.533 566.615 854.041 566.529C854.556 566.48 855.102 566.342 855.68 566.115C856.279 565.902 856.862 565.646 857.428 565.345C857.994 565.045 858.487 564.757 858.907 564.481C859.461 564.108 860.406 563.455 861.743 562.521C863.065 561.609 864.646 560.513 866.485 559.234C868.361 557.948 870.418 556.521 872.657 554.95C874.932 553.374 877.274 551.749 879.682 550.076C878.196 550.679 876.649 551.256 875.043 551.806C873.451 552.334 871.927 552.767 870.471 553.104C869.03 553.42 867.714 553.585 866.521 553.598C865.365 553.606 864.468 553.382 863.832 552.929C863.344 552.581 863.014 552.058 862.841 551.359C862.667 550.66 862.645 549.86 862.775 548.961C862.904 548.062 863.183 547.11 863.612 546.104C864.056 545.077 864.641 544.055 865.366 543.037C865.971 542.189 866.806 541.265 867.87 540.265C868.971 539.259 870.196 538.213 871.545 537.128C872.931 536.037 874.397 534.923 875.942 533.786C877.509 532.665 879.072 531.572 880.63 530.508C882.203 529.423 883.72 528.393 885.182 527.42C886.658 526.426 887.983 525.531 889.157 524.737C890.352 523.958 891.349 523.277 892.147 522.695C892.946 522.113 893.465 521.7 893.704 521.454C893.87 521.221 893.957 520.964 893.966 520.682C893.115 520.171 892.262 519.707 891.408 519.29C890.554 518.873 889.744 518.552 888.978 518.326C888.627 518.235 888.201 518.204 887.702 518.231C887.218 518.238 886.709 518.323 886.176 518.487C885.644 518.651 885.123 518.888 884.615 519.197C884.143 519.5 883.748 519.874 883.431 520.32C883.234 520.595 883.006 520.96 882.746 521.415C882.502 521.848 882.292 522.322 882.117 522.837L881.463 522.946C880.941 521.391 880.664 519.962 880.632 518.661C880.616 517.338 880.872 516.305 881.401 515.563C881.703 515.139 882.174 514.77 882.812 514.458C883.472 514.161 884.165 513.951 884.891 513.829C885.633 513.686 886.353 513.64 887.053 513.691C887.752 513.742 888.293 513.903 888.674 514.175C889.989 515.113 891.393 516.193 892.887 517.418C894.381 518.643 896.007 519.882 897.767 521.137C898.149 521.409 898.488 521.651 898.785 521.863C899.082 522.074 899.368 522.278 899.644 522.475C899.935 522.65 900.218 522.836 900.494 523.032C900.806 523.223 901.168 523.433 901.58 523.663L901.544 524.117C900.273 525.002 898.742 526.005 896.951 527.127C895.181 528.264 893.301 529.466 891.31 530.734C889.32 532.001 887.281 533.314 885.193 534.672C883.142 536.024 881.177 537.39 879.298 538.769C877.456 540.142 875.788 541.495 874.294 542.829C872.799 544.162 871.629 545.423 870.783 546.61ZM911.785 558.809C909.978 558.831 908.144 559.027 906.282 559.395C904.421 559.763 902.603 560.227 900.83 560.785C899.093 561.338 897.425 561.972 895.828 562.688C894.23 563.404 892.776 564.143 891.466 564.904C890.171 565.644 889.053 566.382 888.112 567.119C887.187 567.834 886.512 568.488 886.089 569.082C885.515 569.888 885.135 570.577 884.951 571.149C884.804 571.716 884.753 572.191 884.798 572.575C884.844 572.96 884.95 573.259 885.117 573.474C885.305 573.704 885.452 573.857 885.558 573.932C886.088 574.31 886.843 574.417 887.824 574.253C888.82 574.067 889.893 573.728 891.043 573.237C892.214 572.761 893.388 572.19 894.565 571.526C895.742 570.862 896.784 570.23 897.692 569.63L897.755 569.675C897.932 570.504 898.075 571.358 898.185 572.236C898.316 573.129 898.409 573.962 898.464 574.737C898.538 575.621 898.579 576.482 898.589 577.321C897.766 577.758 896.851 578.145 895.843 578.482C894.835 578.819 893.79 579.097 892.706 579.316C891.659 579.529 890.599 579.669 889.528 579.736C888.492 579.798 887.533 579.754 886.649 579.603C886.167 579.516 885.816 579.425 885.595 579.332C885.38 579.274 885.113 579.132 884.795 578.906C884.604 578.769 884.43 578.565 884.273 578.293C884.121 578.057 883.974 577.792 883.831 577.499C883.485 576.773 883.121 575.825 882.739 574.657C882.356 573.489 882.089 572.227 881.936 570.871C881.804 569.53 881.862 568.148 882.109 566.725C882.335 565.287 882.901 563.931 883.808 562.659C884.654 561.472 885.925 560.362 887.619 559.331C889.328 558.279 891.241 557.324 893.356 556.465C895.471 555.606 897.659 554.847 899.92 554.188C902.217 553.523 904.384 552.973 906.421 552.538C906.208 551.267 906.116 550.05 906.145 548.888C906.21 547.719 906.523 546.742 907.082 545.958C907.747 545.025 908.537 544.276 909.45 543.712C910.379 543.127 911.376 542.671 912.442 542.343C913.528 542.03 914.658 541.812 915.833 541.69C917.044 541.562 918.261 541.47 919.484 541.414C920.28 541.374 921.165 541.365 922.14 541.389C923.13 541.391 924.1 541.443 925.051 541.545C926.002 541.647 926.889 541.815 927.712 542.051C928.572 542.28 929.278 542.591 929.829 542.984C930.19 543.241 930.458 543.56 930.634 543.942C930.825 544.302 930.883 544.759 930.808 545.313C930.769 545.861 930.564 546.53 930.192 547.32C929.836 548.09 929.272 549.015 928.501 550.097C928.153 550.584 927.729 551.001 927.226 551.347C926.76 551.686 926.242 551.988 925.67 552.252C925.113 552.494 924.532 552.704 923.927 552.88C923.336 553.035 922.751 553.161 922.17 553.259C920.789 553.49 919.359 553.59 917.879 553.558L917.946 552.79C918.179 552.733 918.483 552.598 918.858 552.385C919.249 552.152 919.648 551.861 920.056 551.512C920.501 551.158 920.947 550.756 921.395 550.308C921.858 549.838 922.278 549.338 922.656 548.808C923.412 547.748 923.772 546.838 923.738 546.078C923.719 545.297 923.413 544.695 922.819 544.271C922.395 543.969 921.775 543.831 920.957 543.856C920.155 543.859 919.279 544.034 918.329 544.38C917.415 544.72 916.474 545.233 915.506 545.918C914.537 546.603 913.691 547.454 912.965 548.472C912.678 548.875 912.361 549.433 912.013 550.144C911.681 550.835 911.429 551.615 911.257 552.484C911.122 553.346 911.107 554.264 911.214 555.235C911.342 556.222 911.72 557.195 912.348 558.154L911.785 558.809ZM904.997 587.309L896.6 581.324L896.97 579.525C900.045 578.711 902.767 577.965 905.137 577.287C907.522 576.589 909.746 575.936 911.81 575.328C913.874 574.721 915.887 574.141 917.848 573.588C919.83 573.05 921.979 572.503 924.295 571.947C924.761 571.832 925.23 571.734 925.702 571.655C926.195 571.591 926.637 571.554 927.028 571.545C927.434 571.514 927.777 571.503 928.059 571.512C928.34 571.521 928.513 571.548 928.576 571.593C928.746 571.714 928.934 571.944 929.14 572.283C929.368 572.637 929.562 573.015 929.722 573.418C929.898 573.799 930.024 574.16 930.1 574.502C930.198 574.86 930.201 575.102 930.11 575.229C930.065 575.293 929.968 575.384 929.82 575.502C929.708 575.614 929.578 575.729 929.43 575.847C929.318 575.959 929.195 576.064 929.062 576.161C928.95 576.273 928.869 576.343 928.817 576.37C926.161 578.346 923.354 580.423 920.395 582.599C917.473 584.77 914.508 587.022 911.502 589.356L915.796 592.417L913.967 593.703L909.736 590.688C908.402 591.752 907.083 592.794 905.78 593.816C904.461 594.858 903.181 595.913 901.941 596.98C901.678 596.856 901.393 596.717 901.087 596.563C900.554 596.279 899.895 595.857 899.111 595.298C898.75 595.041 898.383 594.748 898.011 594.418C897.623 594.11 897.258 593.77 896.915 593.398L896.951 592.943L904.997 587.309ZM922.934 573.856C922.274 573.929 921.315 574.108 920.056 574.394C918.797 574.68 917.356 575.108 915.734 575.679C915.223 575.858 914.378 576.168 913.201 576.608C912.045 577.063 910.771 577.594 909.379 578.201C908.008 578.823 906.621 579.513 905.217 580.271C903.828 581.008 902.627 581.751 901.614 582.499L906.685 586.018C908.119 584.994 909.52 583.993 910.887 583.017C912.269 582.02 913.534 581.098 914.68 580.253C915.863 579.401 916.902 578.638 917.798 577.965C918.708 577.271 919.445 576.709 920.008 576.279C920.207 576.133 920.57 575.848 921.097 575.424C921.638 574.978 922.251 574.456 922.934 573.856Z" fill="#141414"/>
<path d="M199.438 206.843L199.553 207.186L194.171 208.982L194.056 208.639L194.501 208.491C195.02 208.317 195.346 208.04 195.48 207.659C195.562 207.412 195.477 206.912 195.226 206.159L192.518 198.044C192.305 197.408 192.125 197.001 191.977 196.824C191.864 196.691 191.693 196.6 191.464 196.553C191.143 196.495 190.834 196.516 190.538 196.615L190.093 196.763L189.979 196.421L195.361 194.624L195.475 194.967L195.021 195.119C194.509 195.29 194.185 195.566 194.052 195.947C193.963 196.196 194.045 196.697 194.296 197.45L197.004 205.565C197.217 206.201 197.397 206.608 197.545 206.785C197.659 206.919 197.833 207.008 198.067 207.053C198.382 207.113 198.688 207.093 198.984 206.994L199.438 206.843Z" fill="#141414"/>
<path d="M1130.74 396.91L1130.67 397.263L1125.12 396.075L1125.19 395.721L1125.65 395.819C1126.19 395.934 1126.61 395.861 1126.92 395.601C1127.11 395.43 1127.3 394.956 1127.46 394.18L1129.25 385.815C1129.39 385.159 1129.45 384.717 1129.41 384.49C1129.38 384.317 1129.28 384.152 1129.1 383.995C1128.86 383.782 1128.58 383.643 1128.27 383.578L1127.82 383.479L1127.89 383.126L1133.44 384.315L1133.36 384.668L1132.9 384.568C1132.37 384.455 1131.95 384.528 1131.64 384.788C1131.44 384.958 1131.25 385.431 1131.09 386.208L1129.3 394.572C1129.15 395.228 1129.1 395.67 1129.14 395.898C1129.17 396.07 1129.28 396.236 1129.45 396.394C1129.7 396.606 1129.97 396.744 1130.27 396.81L1130.74 396.91ZM1137.25 398.305L1137.18 398.658L1131.63 397.47L1131.71 397.116L1132.16 397.215C1132.7 397.329 1133.12 397.256 1133.43 396.996C1133.63 396.825 1133.81 396.351 1133.97 395.575L1135.77 387.21C1135.91 386.554 1135.96 386.112 1135.92 385.885C1135.89 385.712 1135.79 385.547 1135.62 385.39C1135.37 385.177 1135.09 385.038 1134.79 384.973L1134.33 384.875L1134.4 384.521L1139.95 385.71L1139.88 386.063L1139.41 385.963C1138.88 385.85 1138.46 385.923 1138.15 386.183C1137.95 386.353 1137.77 386.826 1137.6 387.603L1135.81 395.968C1135.67 396.623 1135.62 397.065 1135.65 397.293C1135.68 397.466 1135.79 397.631 1135.97 397.789C1136.21 398.001 1136.48 398.139 1136.79 398.205L1137.25 398.305Z" fill="#141414"/>
<path d="M246.807 634.489L246.517 634.705L243.127 630.156L243.416 629.94L243.697 630.315C244.023 630.754 244.389 630.977 244.792 630.985C245.053 630.986 245.501 630.749 246.138 630.274L252.997 625.162C253.535 624.761 253.865 624.463 253.986 624.267C254.078 624.117 254.111 623.927 254.084 623.695C254.038 623.372 253.922 623.085 253.735 622.834L253.455 622.458L253.745 622.242L257.135 626.792L256.845 627.008L256.559 626.624C256.236 626.191 255.873 625.97 255.47 625.963C255.205 625.957 254.755 626.191 254.118 626.665L247.259 631.777C246.721 632.178 246.391 632.477 246.269 632.673C246.178 632.822 246.147 633.016 246.178 633.253C246.22 633.571 246.334 633.855 246.521 634.105L246.807 634.489ZM250.787 639.829L250.497 640.045L247.107 635.496L247.396 635.28L247.676 635.656C248.003 636.094 248.368 636.317 248.772 636.325C249.032 636.326 249.481 636.089 250.118 635.614L256.977 630.502C257.515 630.102 257.845 629.803 257.966 629.607C258.058 629.457 258.09 629.267 258.064 629.035C258.018 628.712 257.902 628.425 257.715 628.174L257.435 627.799L257.724 627.583L261.115 632.132L260.825 632.348L260.539 631.964C260.216 631.531 259.853 631.311 259.449 631.303C259.185 631.297 258.735 631.531 258.098 632.006L251.238 637.118C250.701 637.518 250.371 637.817 250.249 638.013C250.158 638.163 250.127 638.356 250.158 638.593C250.2 638.911 250.314 639.195 250.501 639.446L250.787 639.829ZM254.767 645.169L254.477 645.385L251.086 640.836L251.376 640.62L251.656 640.996C251.983 641.434 252.348 641.658 252.752 641.665C253.012 641.666 253.461 641.429 254.098 640.955L260.957 635.843C261.495 635.442 261.825 635.143 261.946 634.947C262.038 634.798 262.07 634.607 262.044 634.375C261.998 634.052 261.881 633.765 261.695 633.515L261.415 633.139L261.704 632.923L265.095 637.472L264.805 637.688L264.519 637.305C264.196 636.871 263.833 636.651 263.429 636.643C263.165 636.637 262.714 636.871 262.078 637.346L255.218 642.458C254.681 642.859 254.351 643.157 254.229 643.353C254.138 643.503 254.107 643.696 254.138 643.933C254.18 644.251 254.294 644.535 254.481 644.786L254.767 645.169Z" fill="#141414"/>
<path d="M831.485 579.017L831.262 579.302L826.794 575.805L827.017 575.521L827.386 575.81C827.816 576.147 828.227 576.266 828.619 576.167C828.87 576.099 829.241 575.753 829.73 575.127L835.002 568.39C835.415 567.862 835.655 567.487 835.72 567.265C835.769 567.097 835.751 566.905 835.664 566.688C835.534 566.388 835.347 566.142 835.101 565.95L834.731 565.661L834.954 565.376L839.423 568.873L839.2 569.157L838.823 568.862C838.398 568.529 837.989 568.412 837.598 568.511C837.341 568.575 836.968 568.92 836.479 569.545L831.207 576.283C830.794 576.811 830.554 577.185 830.488 577.407C830.439 577.575 830.461 577.77 830.553 577.99C830.677 578.286 830.862 578.53 831.108 578.722L831.485 579.017ZM850.99 577.924L850.767 578.208C850.346 577.986 849.974 577.885 849.652 577.906C849.184 577.945 848.642 578.141 848.027 578.494L837.444 584.523L837.159 584.3L840.287 572.252C840.448 571.635 840.528 571.242 840.526 571.075C840.522 570.816 840.46 570.569 840.338 570.333C840.226 570.096 840.021 569.841 839.723 569.567L839.946 569.282L844.207 572.616L843.984 572.9C843.466 572.57 843.089 572.407 842.853 572.412C842.617 572.418 842.427 572.513 842.283 572.698C842.082 572.954 841.887 573.446 841.698 574.174L839.567 582.365L846.752 578.253C847.458 577.847 847.902 577.528 848.082 577.298C848.199 577.149 848.235 576.95 848.19 576.7C848.15 576.445 847.975 576.151 847.665 575.818C847.644 575.793 847.606 575.751 847.552 575.693L847.775 575.408L850.99 577.924Z" fill="#141414"/>
</svg>
