<svg width="205" height="128" viewBox="0 0 205 128" fill="none" xmlns="http://www.w3.org/2000/svg">
<path d="M40.4977 27.6289C40.5134 27.4211 40.4671 27.1695 40.3588 26.8741C40.2505 26.5787 40.1013 26.3062 39.9112 26.0569C39.749 25.7835 39.5709 25.5481 39.3769 25.3506C39.1828 25.1532 39.0079 25.0486 38.8521 25.0368C38.4366 25.0055 37.9714 25.114 37.4565 25.3625C36.9675 25.6128 36.5464 25.8292 36.1931 26.0115L35.7845 25.1972C36.3391 24.7689 36.9336 24.3306 37.5681 23.8823C38.2286 23.4359 38.8721 23.0405 39.4987 22.696C40.1533 22.3275 40.7751 22.048 41.364 21.8574C41.9549 21.6408 42.458 21.5482 42.8735 21.5795C43.7564 21.6461 44.5399 21.9925 45.2239 22.6186C45.9079 23.2447 46.4692 23.94 46.9077 24.7043C47.3742 25.4446 47.7118 26.1621 47.9206 26.8569C48.1553 27.5536 48.2648 28.0058 48.2491 28.2135C48.2041 28.8108 47.9391 29.9007 47.4541 31.4833C46.997 33.0419 46.3068 34.9224 45.3833 37.1248C44.4618 39.3012 43.3278 41.6967 41.9816 44.3112C40.6372 46.8997 39.0682 49.5235 37.2746 52.1826C35.507 54.8436 33.5095 57.4351 31.2823 59.957C29.0829 62.4549 26.6546 64.7005 23.9971 66.6937C21.3397 68.687 18.461 70.3241 15.3611 71.605C12.2612 72.8859 8.94074 73.6278 5.39981 73.8308L4.60751 72.9092C5.05528 71.82 5.67722 70.3261 6.47332 68.4275C7.29735 66.5049 8.20491 64.3404 9.19599 61.9342C10.215 59.504 11.2847 56.9208 12.4051 54.1849C13.5535 51.4249 14.6879 48.6769 15.8083 45.9409C16.9307 43.179 18.0062 40.518 19.035 37.9579C20.0898 35.3998 21.0211 33.0935 21.829 31.0391C22.6368 28.9846 23.2874 27.2839 23.7808 25.937C24.302 24.5661 24.6013 23.7138 24.6787 23.3801C24.7003 23.0945 24.642 22.8289 24.5038 22.5835C23.5371 22.5889 22.5805 22.6343 21.6339 22.7196C20.6873 22.8049 19.8406 22.9499 19.0939 23.1548C18.7466 23.2591 18.3664 23.4524 17.9533 23.7347C17.5423 23.9909 17.1513 24.3271 16.7804 24.7431C16.4095 25.159 16.0867 25.6309 15.8118 26.1586C15.5649 26.6623 15.4209 27.1868 15.3798 27.7321C15.3543 28.0697 15.3479 28.5001 15.3607 29.0234C15.3754 29.5207 15.4411 30.0349 15.5577 30.566L15.0551 30.9982C13.8032 29.9375 12.8269 28.8584 12.1262 27.7609C11.4275 26.6375 11.1124 25.6213 11.1809 24.7124C11.2201 24.1931 11.432 23.6345 11.8166 23.0367C12.2271 22.4409 12.7117 21.9029 13.2702 21.4228C13.8307 20.9166 14.4233 20.5043 15.048 20.1858C15.6727 19.8673 16.2187 19.7257 16.6861 19.7609C18.2961 19.8824 20.0571 20.0805 21.9689 20.3553C23.8807 20.63 25.9143 20.8487 28.0696 21.0113C28.5371 21.0465 28.9526 21.0779 29.3161 21.1053C29.6797 21.1327 30.0172 21.1582 30.3288 21.1817C30.6684 21.1812 31.007 21.1937 31.3445 21.2191C31.6841 21.2186 32.0895 21.21 32.5609 21.1934L32.7652 21.6005C32.192 22.9675 31.5073 24.6003 30.7112 26.499C29.9431 28.3736 29.1112 30.4001 28.2157 32.5785C27.3201 34.7569 26.3898 37.0502 25.4247 39.4584C24.4615 41.8406 23.4974 44.2358 22.5323 46.644C21.5691 49.0262 20.6219 51.3704 19.6906 53.6767C18.7852 55.9849 17.9296 58.1533 17.1237 60.1818C16.3457 62.1862 15.6344 63.9998 14.9897 65.6226C14.345 67.2454 13.8276 68.5644 13.4376 69.5796C16.0447 68.601 18.4922 67.1403 20.7802 65.1976C23.0942 63.2567 25.233 61.0415 27.1967 58.552C29.1623 56.0364 30.9309 53.3624 32.5026 50.5299C34.0762 47.6714 35.4252 44.8482 36.5495 42.0603C37.6998 39.2743 38.6047 36.6266 39.264 34.117C39.9494 31.6093 40.3606 29.4466 40.4977 27.6289ZM60.9225 30.5406C61.8201 29.7203 62.7706 28.891 63.774 28.0527C64.7793 27.1883 65.7509 26.4259 66.6886 25.7654C67.6524 25.1069 68.5544 24.5742 69.3946 24.1675C70.2349 23.7608 70.9277 23.5781 71.473 23.6192C72.1222 23.6682 72.7129 23.9739 73.245 24.5363C73.805 25.0748 74.2744 25.7761 74.6532 26.6404C75.0339 27.4787 75.302 28.426 75.4573 29.4823C75.6387 30.5407 75.6902 31.5892 75.6118 32.6279C75.4943 34.186 75.1683 35.9111 74.6338 37.8034C74.1273 39.6716 73.424 41.5511 72.5241 43.4419C71.6261 45.3067 70.5362 47.1179 69.2546 48.8754C67.9749 50.607 66.5021 52.1281 64.8363 53.4389C63.1705 54.7496 61.3185 55.759 59.2803 56.467C57.2421 57.1751 55.0285 57.4391 52.6395 57.2588C51.7046 57.1883 50.8146 57.0429 49.9694 56.8224C49.1454 58.745 48.3503 60.6307 47.584 62.4793C46.8457 64.304 46.1403 66.0397 45.4676 67.6865C44.8229 69.3092 44.213 70.8171 43.6378 72.2101C43.0906 73.5791 42.6081 74.7831 42.1902 75.8224C41.8746 75.8508 41.5341 75.8643 41.1686 75.8628C40.8531 75.8913 40.4746 75.8888 40.0331 75.8555C39.5897 75.8482 39.1083 75.8249 38.589 75.7858C37.4723 75.7016 36.3356 75.5375 35.1788 75.2935L34.9356 74.8834C35.2903 74.3356 35.8409 73.2673 36.5876 71.6783C37.3361 70.0634 38.2261 68.1326 39.2573 65.8861C40.2646 63.6117 41.3544 61.1085 42.5268 58.3764C43.6991 55.6443 44.8744 52.8733 46.0526 50.0634C47.2588 47.2294 48.4211 44.4574 49.5395 41.7474C50.658 39.0374 51.667 36.5672 52.5664 34.3369C53.4659 32.1065 54.1951 30.229 54.7541 28.7042C55.3391 27.1814 55.6751 26.1882 55.7623 25.7247C55.778 25.517 55.7527 25.3323 55.6866 25.1706C55.6224 24.9829 55.5283 24.8453 55.4044 24.7576L55.4396 24.2901C56.1564 24.1353 56.8183 24.0155 57.4254 23.9307C58.0344 23.8199 58.6405 23.7481 59.2436 23.7153C59.8747 23.6584 60.5428 23.6304 61.2478 23.6314C61.9529 23.6323 62.7608 23.6541 63.6716 23.6967L63.8098 23.9422L60.9225 30.5406ZM50.9394 54.3493C51.6313 54.8716 52.5225 55.1738 53.6132 55.2561C55.0414 55.3638 56.3653 55.1242 57.5847 54.5372C58.8302 53.9521 59.9634 53.1235 60.9844 52.0515C62.0055 50.9794 62.9094 49.7287 63.6962 48.2995C64.5109 46.8462 65.2017 45.3053 65.7685 43.6766C66.3613 42.0499 66.8252 40.4005 67.1603 38.7282C67.5233 37.032 67.7626 35.4178 67.8781 33.8857C67.8899 33.7299 67.9024 33.3913 67.9156 32.87C67.9288 32.3487 67.904 31.8114 67.8413 31.2583C67.7805 30.6792 67.6629 30.161 67.4884 29.7039C67.314 29.2468 67.058 29.0055 66.7204 28.98C66.253 28.9448 65.7468 29.0763 65.202 29.3748C64.6592 29.6472 64.0685 30.0336 63.4301 30.5338C62.8197 31.0101 62.1634 31.5743 61.4613 32.2265C60.7871 32.8546 60.0851 33.5068 59.3551 34.183L50.9394 54.3493ZM70.2062 80.4035C70.5188 79.722 71.0542 78.5088 71.8126 76.764C72.571 75.0192 73.4717 72.9457 74.5147 70.5434C75.5577 68.1411 76.6963 65.5109 77.9304 62.6529C79.1664 59.769 80.4044 56.8591 81.6444 53.9232C82.9103 50.9893 84.1314 48.1303 85.3077 45.3463C86.4859 42.5363 87.5397 39.9912 88.469 37.7109C89.4004 35.4046 90.1725 33.4781 90.7853 31.9312C91.4002 30.3584 91.7512 29.3403 91.8384 28.8768C91.854 28.669 91.7957 28.4035 91.6634 28.0801C91.5311 27.7568 91.403 27.5512 91.279 27.4635C90.2344 27.4631 89.3028 27.5234 88.484 27.6444C87.6653 27.7655 86.7599 27.9975 85.7677 28.3405C85.4204 28.4449 85.0421 28.6123 84.633 28.8426C84.2239 29.0729 83.8359 29.37 83.4689 29.7341C83.102 30.0981 82.782 30.531 82.5091 31.0328C82.2642 31.5105 82.1182 32.061 82.0712 32.6842C82.0457 33.0218 82.0384 33.4652 82.0492 34.0144C82.062 34.5377 82.1267 35.0649 82.2433 35.596L81.7406 36.0282C80.4887 34.9675 79.5124 33.8884 78.8117 32.7909C78.113 31.6675 77.7979 30.6513 77.8665 29.7424C77.9057 29.2231 78.1175 28.6645 78.5021 28.0667C78.9127 27.4709 79.3982 26.9199 79.9587 26.4138C80.5192 25.9076 81.1118 25.4953 81.7365 25.1768C82.3631 24.8323 82.9101 24.6777 83.3776 24.713C84.1826 24.7737 84.9077 24.8545 85.553 24.9554C86.2242 25.0583 86.8955 25.1612 87.5667 25.264C88.264 25.3688 89.0001 25.4766 89.7752 25.5873C90.5763 25.7 91.5222 25.7974 92.6129 25.8797C93.0803 25.9149 93.6126 25.9551 94.2099 26.0001C94.8351 26.0212 95.4603 26.0422 96.0854 26.0633C96.7386 26.0603 97.3647 26.0684 97.9639 26.0874C98.5632 26.1065 99.0984 26.1077 99.5698 26.091L99.7212 27.1993C99.4366 27.8569 98.9609 28.9701 98.2941 30.5389C97.6274 32.1078 96.8332 33.9805 95.9117 36.1569C94.9902 38.3333 93.9721 40.7506 92.8576 43.4087C91.7431 46.0668 90.5957 48.8138 89.4155 51.6497C88.2373 54.4597 87.0451 57.2816 85.8389 60.1156C84.6587 62.9515 83.5273 65.6606 82.4446 68.2427C81.3898 70.8008 80.4027 73.1551 79.4831 75.3056C78.5915 77.432 77.8441 79.2038 77.241 80.6207C76.8609 81.5061 76.2379 82.3209 75.3722 83.0652C74.5324 83.8115 73.5687 84.47 72.481 85.0409C71.3914 85.6377 70.2557 86.1527 69.0739 86.5858C67.9162 87.0469 66.8302 87.4221 65.816 87.7112C64.8018 88.0003 63.9503 88.2103 63.2614 88.3411C62.5446 88.496 62.1083 88.5675 61.9525 88.5558C61.8226 88.546 61.6548 88.5203 61.449 88.4786C61.2413 88.463 61.0345 88.4343 60.8287 88.3927C60.597 88.3491 60.3802 88.2805 60.1783 88.1869C59.9485 88.1174 59.7846 88.0397 59.6866 87.954C59.4127 87.7766 59.1097 87.4665 58.7775 87.0236C58.4453 86.5807 58.1309 86.0738 57.8345 85.503C57.5121 84.9303 57.2195 84.3076 56.9569 83.6349C56.6663 82.9862 56.4536 82.3433 56.3189 81.7064L62.1049 78.2255C62.4004 79.5013 62.7456 80.6373 63.1406 81.6334C63.317 82.0645 63.5073 82.4837 63.7117 82.8908C63.914 83.3239 64.1463 83.7071 64.4084 84.0402C64.6446 84.3714 64.9116 84.6397 65.2096 84.8449C65.4815 85.0483 65.7733 85.1617 66.0849 85.1852C66.4225 85.2106 66.7997 85.0563 67.2167 84.7221C67.6057 84.412 67.9886 84.0099 68.3653 83.516C68.7421 83.0221 69.0958 82.4873 69.4265 81.9116C69.7552 81.3619 70.0151 80.8592 70.2062 80.4035ZM129.561 28.9016C129.25 29.5572 128.763 30.6435 128.1 32.1604C127.463 33.6793 126.7 35.489 125.811 37.5895C124.921 39.69 123.936 42.0183 122.855 44.5745C121.802 47.1066 120.702 49.7397 119.556 52.4737C118.438 55.1837 117.304 57.9187 116.156 60.6787C115.035 63.4147 113.95 66.0358 112.899 68.542C111.874 71.0501 110.93 73.3554 110.066 75.4579C109.202 77.5603 108.481 79.334 107.902 80.7789C107.586 80.8073 107.246 80.8208 106.88 80.8194C106.251 80.8503 105.391 80.8246 104.301 80.7423C103.781 80.7031 103.225 80.6351 102.632 80.5381C102.062 80.469 101.482 80.373 100.891 80.25L100.686 79.8429C101.041 79.2951 101.594 78.2008 102.344 76.5599C103.121 74.9209 104.014 72.9512 105.023 70.6508C106.058 68.3524 107.176 65.8251 108.376 63.0691C109.578 60.287 110.783 57.466 111.991 54.6061L102.475 54.045C101.425 56.5512 100.375 59.0444 99.3258 61.5246C98.3029 64.0068 97.3278 66.3751 96.4004 68.6294C95.5009 70.8597 94.6661 72.9252 93.896 74.8258C93.1278 76.7004 92.486 78.2842 91.9706 79.5772C91.6551 79.6057 91.3146 79.6191 90.9491 79.6177C90.6335 79.6461 90.255 79.6437 89.8136 79.6104C89.3702 79.6031 88.8888 79.5798 88.3694 79.5406C87.2528 79.4564 86.1161 79.2923 84.9593 79.0484L84.716 78.6383C85.0707 78.0905 85.6214 77.0221 86.368 75.4332C87.1166 73.8182 88.0065 71.8875 89.0378 69.641C90.0451 67.3666 91.1349 64.8633 92.3072 62.1313C93.4796 59.3992 94.6549 56.6282 95.8331 53.8182C97.0392 50.9842 98.2016 48.2122 99.32 45.5022C100.438 42.7922 101.447 40.3221 102.347 38.0917C103.246 35.8614 103.976 33.9838 104.535 32.4591C105.12 30.9362 105.456 29.9431 105.543 29.4796C105.558 29.2718 105.533 29.0871 105.467 28.9254C105.403 28.7378 105.309 28.6001 105.185 28.5124L105.22 28.045C105.937 27.8901 106.599 27.7703 107.206 27.6855C107.815 27.5748 108.421 27.503 109.024 27.4701C109.655 27.4133 110.323 27.3853 111.028 27.3862C111.733 27.3872 112.541 27.409 113.452 27.4515L113.59 27.697C113.28 28.3526 112.791 29.4648 112.124 31.0337C111.459 32.5766 110.666 34.4363 109.745 36.6127C108.825 38.7632 107.81 41.1415 106.699 43.7476C105.615 46.3557 104.498 49.0398 103.35 51.7997L112.944 52.3667C114.027 49.7846 115.051 47.2764 116.019 44.8423C117.012 42.4101 117.895 40.2177 118.669 38.2652C119.443 36.3127 120.077 34.663 120.57 33.316C121.09 31.9711 121.391 31.0928 121.474 30.6813C121.507 30.2398 121.401 29.9184 121.155 29.717L121.19 29.2496C121.907 29.0948 122.569 28.9749 123.176 28.8901C123.785 28.7794 124.391 28.7076 124.994 28.6747C125.625 28.6179 126.293 28.5899 126.999 28.5909C127.704 28.5918 128.512 28.6136 129.422 28.6562L129.561 28.9016ZM125.062 78.1559L114.779 77.3802L114.165 75.6495C116.374 73.3613 118.318 71.3142 119.995 69.5081C121.674 67.6761 123.239 65.966 124.691 64.378C126.143 62.79 127.564 61.252 128.956 59.7639C130.374 58.2778 131.93 56.6976 133.623 55.0234C133.962 54.6833 134.313 54.3572 134.676 54.0451C135.065 53.7349 135.424 53.4748 135.753 53.2646C136.085 53.0284 136.373 52.8412 136.618 52.703C136.864 52.5648 137.026 52.4987 137.103 52.5046C137.311 52.5202 137.591 52.6197 137.943 52.8029C138.321 52.9881 138.682 53.2113 139.028 53.4724C139.376 53.7076 139.671 53.9518 139.913 54.2051C140.181 54.4604 140.309 54.6659 140.298 54.8217C140.292 54.8996 140.256 55.0275 140.19 55.2053C140.153 55.3592 140.101 55.525 140.035 55.7029C139.998 55.8567 139.947 56.0096 139.883 56.1615C139.845 56.3154 139.812 56.4173 139.782 56.4672C138.532 59.533 137.205 62.7626 135.8 66.1561C134.422 69.5256 133.051 72.987 131.687 76.5402L136.945 76.9369L136.046 78.9844L130.866 78.5937C130.275 80.1944 129.686 81.7691 129.099 83.3179C128.51 84.8927 127.961 86.4574 127.452 88.0121C127.163 88.0424 126.847 88.0709 126.506 88.0973C125.903 88.1302 125.121 88.1104 124.16 88.0379C123.718 88.0046 123.253 87.9434 122.763 87.8542C122.272 87.7911 121.783 87.6889 121.298 87.5478L121.094 87.1407L125.062 78.1559ZM133.447 57.3605C132.92 57.7647 132.192 58.4149 131.262 59.3111C130.333 60.2073 129.322 61.3193 128.23 62.6471C127.885 63.065 127.322 63.7669 126.543 64.7528C125.789 65.7406 124.974 66.8543 124.097 68.0939C123.246 69.3355 122.416 70.644 121.607 72.0193C120.801 73.3687 120.157 74.626 119.678 75.7911L125.838 76.1774C126.535 74.5586 127.215 72.9777 127.88 71.4348C128.547 69.8659 129.152 68.4229 129.695 67.1059C130.266 65.7649 130.761 64.5747 131.179 63.5355C131.599 62.4703 131.938 61.608 132.197 60.9485C132.292 60.7207 132.455 60.289 132.686 59.6535C132.919 58.992 133.172 58.2277 133.447 57.3605Z" fill="#141414"/>
<path d="M55.742 108.91L55.6663 109.263L50.1183 108.075L50.194 107.721L50.6524 107.819C51.1871 107.934 51.6089 107.861 51.9176 107.601C52.114 107.43 52.2954 106.956 52.4618 106.18L54.2538 97.8148C54.3942 97.1591 54.4456 96.7173 54.4078 96.4895C54.3783 96.3167 54.2771 96.1519 54.1043 95.995C53.8569 95.7822 53.5804 95.6431 53.2749 95.5777L52.8165 95.4795L52.8922 95.1262L58.4402 96.3147L58.3645 96.668L57.8966 96.5677C57.3682 96.4546 56.9497 96.528 56.6409 96.7881C56.4381 96.9577 56.2535 97.4309 56.0872 98.2075L54.2952 106.572C54.1547 107.228 54.1034 107.67 54.1411 107.898C54.1707 108.07 54.2751 108.236 54.4542 108.394C54.6952 108.606 54.9685 108.744 55.2741 108.81L55.742 108.91ZM62.2544 110.305L62.1787 110.658L56.6307 109.47L56.7064 109.116L57.1648 109.215C57.6995 109.329 58.1213 109.256 58.43 108.996C58.6264 108.825 58.8078 108.351 58.9742 107.575L60.7662 99.2099C60.9066 98.5542 60.958 98.1124 60.9202 97.8846C60.8907 97.7118 60.7895 97.547 60.6167 97.3902C60.3693 97.1774 60.0928 97.0382 59.7873 96.9728L59.3289 96.8746L59.4046 96.5213L64.9526 97.7098L64.8769 98.0631L64.409 97.9629C63.8806 97.8497 63.462 97.9231 63.1533 98.1832C62.9505 98.3529 62.7659 98.826 62.5996 99.6026L60.8076 107.968C60.6671 108.623 60.6158 109.065 60.6535 109.293C60.6831 109.466 60.7874 109.631 60.9666 109.789C61.2076 110.001 61.4809 110.139 61.7865 110.205L62.2544 110.305Z" fill="#141414"/>
</svg>
