<svg width="197" height="220" viewBox="0 0 197 220" fill="none" xmlns="http://www.w3.org/2000/svg">
<path d="M24.7898 43.1669C26.4068 45.2756 27.7556 46.9679 28.836 48.2435C29.9529 49.5251 30.9515 50.4424 31.8319 50.9954C32.7276 51.5696 33.5777 51.7913 34.3824 51.6605C35.1871 51.5297 36.0963 51.0988 37.1102 50.3676C37.3003 50.2305 37.4934 50.0753 37.6894 49.9018C37.8853 49.7284 38.0737 49.5444 38.2545 49.3498L38.9369 49.6283C38.9552 50.3214 38.872 51.0075 38.6874 51.6864C38.5391 52.3713 38.324 53.008 38.0421 53.5966C37.7965 54.191 37.4977 54.7116 37.1455 55.1582C36.8086 55.6259 36.4605 55.9892 36.1015 56.2482C35.848 56.431 35.4673 56.5931 34.9593 56.7347C34.4666 56.8974 33.9235 56.9679 33.3301 56.9464C32.7519 56.946 32.1655 56.823 31.5711 56.5775C30.9766 56.3319 30.4585 55.9029 30.0168 55.2903C29.2552 54.2342 28.5786 53.2292 27.9869 52.2752C27.4106 51.3424 26.8447 50.4019 26.2895 49.4539C25.7342 48.5058 25.1456 47.5337 24.5235 46.5375C23.9014 45.5413 23.1791 44.4729 22.3566 43.3323C22.2652 43.2055 22.0642 42.9491 21.7537 42.563C21.4432 42.1769 21.084 41.7457 20.6762 41.2692C20.2684 40.7927 19.85 40.3239 19.421 39.8626C18.9557 39.3955 18.5332 39.0099 18.1534 38.7059L18.5358 37.9004C19.2348 37.8458 20.2723 37.6594 21.6483 37.3414C23.0091 37.0022 24.6086 36.5712 26.4468 36.0482C28.2851 35.5253 30.3409 34.9256 32.6144 34.2493C34.8938 33.5367 37.2834 32.7766 39.7834 31.9691C42.2985 31.1828 44.8953 30.3537 47.5735 29.4818C50.2881 28.6158 53.0133 27.7422 55.749 26.861C57.4993 26.3051 59.1598 25.9586 60.7303 25.8213C62.322 25.6688 63.784 25.6258 65.1163 25.6925C66.4639 25.7802 67.6255 25.9218 68.6011 26.1172C69.6132 26.3185 70.4071 26.4844 70.9829 26.615C71.7557 26.7962 72.6058 27.0179 73.5334 27.2801C74.4761 27.5634 75.3796 27.859 76.2438 28.1669C77.1232 28.496 77.8982 28.8361 78.5688 29.1872C79.2758 29.5443 79.7588 29.9023 80.0177 30.2614C80.5356 30.9796 80.4635 31.77 79.8014 32.6328C79.1604 33.4803 77.9 34.5819 76.0201 35.9375C75.1752 36.5468 74.1898 36.8722 73.0638 36.9136C71.9531 36.9761 70.8705 36.922 69.8163 36.7512C68.6166 36.5568 67.383 36.2264 66.1154 35.7598L66.4396 35.1408C66.6636 35.1398 66.9586 35.1036 67.3246 35.0323C67.7117 34.9458 68.1334 34.8183 68.5898 34.6497C69.0614 34.5023 69.5418 34.3003 70.0311 34.0438C70.5356 33.8084 71.0096 33.5308 71.4532 33.2109C72.3826 32.5407 72.9531 31.8403 73.1647 31.1098C73.4127 30.3851 73.3463 29.7588 72.9655 29.2307C72.7675 28.9561 72.3324 28.8204 71.6604 28.8234C70.9883 28.8264 70.1608 28.9255 69.1778 29.1207C68.2312 29.3218 67.1684 29.6066 65.9894 29.9752C64.8467 30.3497 63.6847 30.7864 62.5033 31.2851C62.0622 31.4748 61.3096 31.7446 60.2456 32.0946C59.1968 32.4656 57.9227 32.9028 56.4234 33.406C54.9453 33.8941 53.2918 34.4283 51.4629 35.0087C49.634 35.5892 47.737 36.1865 45.7721 36.8009C43.8434 37.4211 41.8679 38.0431 39.8455 38.6668C37.8594 39.2964 35.9442 39.8908 34.1001 40.4501C32.256 41.0094 30.5221 41.5213 28.8986 41.9858C27.3113 42.4562 25.9418 42.8498 24.7898 43.1669ZM95.8871 54.0706C95.1856 54.2554 94.0412 54.583 92.454 55.0534C90.8821 55.5448 89.0062 56.127 86.8266 56.7998C84.6469 57.4727 82.2315 58.2192 79.5803 59.0395C76.9654 59.8657 74.2431 60.7211 71.4136 61.6058C68.6204 62.4963 65.7984 63.3916 62.9477 64.2914C60.1334 65.1972 57.437 66.0662 54.8584 66.8982C52.2799 67.7303 49.9084 68.4933 47.744 69.1873C45.5796 69.8812 43.7583 70.4722 42.2801 70.9602C42.0551 70.7372 41.833 70.4961 41.6139 70.2367C41.2002 69.7966 40.7039 69.1752 40.1251 68.3726C39.4701 67.4643 38.81 66.4153 38.1446 65.2255L38.3244 64.807C38.9719 64.7253 40.1437 64.4582 41.84 64.0055C43.5574 63.5375 45.5998 62.9637 47.9671 62.284C50.3707 61.6101 52.995 60.8414 55.8398 59.9779C58.6846 59.1143 61.561 58.228 64.4692 57.3187C67.4137 56.4154 70.2826 55.5184 73.0758 54.6279C75.869 53.7373 78.4006 52.907 80.6707 52.1369C82.9559 51.3879 84.8617 50.7359 86.388 50.1811C87.9295 49.6474 88.9056 49.2645 89.3162 49.0326C89.5486 48.8651 89.7141 48.6494 89.8128 48.3855C89.1706 47.6286 88.512 46.9156 87.8369 46.2466C87.1618 45.5776 86.4978 45.013 85.8448 44.5527C85.5412 44.3543 85.1484 44.1881 84.6665 44.054C84.2057 43.9047 83.6967 43.8223 83.1396 43.8066C82.5825 43.791 82.0136 43.8481 81.433 43.9778C80.8887 44.1135 80.3947 44.3413 79.9512 44.6611C79.6766 44.8592 79.3433 45.1316 78.9513 45.4785C78.5804 45.8101 78.2295 46.1917 77.8984 46.623L77.2441 46.517C77.2487 44.8762 77.4451 43.4343 77.833 42.1913C78.242 40.9332 78.8162 40.0375 79.5555 39.5044C79.9779 39.1997 80.5416 39.0019 81.2466 38.911C81.9668 38.8411 82.6904 38.8651 83.4175 38.9829C84.1657 39.0854 84.8628 39.273 85.5089 39.5456C86.1549 39.8181 86.615 40.1445 86.8892 40.5247C87.8336 41.8343 88.8166 43.3087 89.8381 44.9479C90.8597 46.5871 92.0026 48.2833 93.2669 50.0365C93.5411 50.4167 93.7848 50.7546 93.998 51.0503C94.2113 51.346 94.4169 51.6312 94.6149 51.9058C94.8341 52.1651 95.0426 52.4321 95.2407 52.7067C95.475 52.9872 95.7504 53.3023 96.0669 53.652L95.8871 54.0706ZM94.7933 63.2392C95.0257 63.0717 95.2592 62.839 95.494 62.5413C95.7652 62.2494 95.9923 61.9411 96.1755 61.6164C96.3587 61.2916 96.4768 60.9657 96.5298 60.6385C96.5829 60.3113 96.518 60.021 96.3352 59.7675C96.0458 59.3662 95.7006 59.0211 95.2997 58.7323L95.6238 58.1133C96.4364 58.3942 97.2326 58.719 98.0123 59.0879C98.8072 59.4778 99.5188 59.8636 100.147 60.2452C100.797 60.6116 101.33 60.9498 101.746 61.2597C102.162 61.5696 102.416 61.788 102.507 61.9147C102.781 62.2949 102.895 62.7424 102.849 63.2573C102.824 63.7569 102.708 64.2418 102.501 64.712C102.331 65.188 102.104 65.6083 101.821 65.9729C101.575 66.3433 101.357 66.5971 101.166 66.7342C99.8358 67.6938 98.228 68.2914 96.343 68.527C94.4733 68.7837 92.4724 68.8139 90.3403 68.6177C88.2293 68.4063 86.0586 68.0452 83.8281 67.5346C81.6189 67.0088 79.4987 66.4508 77.4678 65.8605C76.2766 66.8801 74.924 68.032 73.4101 69.3164C71.9326 70.6067 70.4145 71.9743 68.8559 73.4193C67.3185 74.8491 65.7857 76.3076 64.2576 77.7949C62.7447 79.3033 61.3784 80.7702 60.1588 82.1955C58.6317 83.9068 57.456 85.3485 56.6319 86.5208C55.844 87.699 55.278 88.7172 54.9337 89.5755C54.6047 90.4549 54.4599 91.2336 54.4993 91.9115C54.5539 92.6106 54.6677 93.3472 54.8408 94.1214L53.8379 94.2667C53.3013 93.4336 52.8276 92.4428 52.4167 91.2943C51.9848 90.161 51.7505 88.9012 51.714 87.5148C51.6715 86.1648 51.886 84.7259 52.3574 83.198C52.844 81.6912 53.7195 80.1448 54.9838 78.5589C56.1037 77.1733 57.3462 75.7797 58.7112 74.3779C60.0762 72.9762 61.4958 71.5832 62.9699 70.1991C64.4804 68.8209 65.9984 67.4533 67.5241 66.0962C69.0498 64.7391 70.5362 63.3943 71.9833 62.0618C75.2336 63.1854 78.0256 64.0295 80.3592 64.5941C82.7291 65.1647 84.7937 65.4899 86.5529 65.5697C88.3122 65.6495 89.8311 65.4852 91.1098 65.0768C92.4249 64.6743 93.6527 64.0618 94.7933 63.2392ZM71.8334 87.165C73.4994 88.0505 75.1715 88.6106 76.8497 88.8452C78.5642 89.0857 80.1311 89.1437 81.5504 89.0192C82.9849 88.9158 84.2024 88.712 85.2031 88.4078C86.2038 88.1036 86.852 87.8448 87.1477 87.6316C87.6968 87.2355 88.0021 86.7907 88.0634 86.2969C88.1459 85.788 88.012 85.2906 87.6616 84.8048C87.3418 84.3612 86.8271 84.026 86.1177 83.7991C85.4294 83.557 84.6372 83.438 83.7412 83.442C82.8662 83.4309 81.9495 83.5622 80.9911 83.8359C80.0327 84.1097 79.131 84.5512 78.2861 85.1605L78.0363 85.148C78.0361 83.7675 78.1701 82.5954 78.4382 81.6315C78.7426 80.6735 79.2011 79.9736 79.8137 79.5319C80.3418 79.1511 81.0069 78.9604 81.8091 78.9598C82.6325 78.9439 83.5114 79.1609 84.4458 79.6108C85.4014 80.0455 86.402 80.7206 87.4475 81.6361C88.5142 82.5365 89.5654 83.7048 90.6012 85.1411C91.1495 85.9015 91.4815 86.6735 91.597 87.4571C91.7337 88.2254 91.7173 88.9596 91.548 89.6596C91.4149 90.3656 91.1635 90.9964 90.7936 91.5521C90.4601 92.1137 90.0927 92.5392 89.6914 92.8286C88.9732 93.3465 88.1649 93.6725 87.2664 93.8068C86.389 93.9258 85.4414 93.9028 84.4235 93.7379C83.4208 93.5941 82.3449 93.3265 81.1957 92.9351C80.0677 92.5285 78.9046 92.0509 77.7063 91.5023C77.8572 92.0677 77.9448 92.6789 77.9689 93.3357C78.0142 93.9773 77.9475 94.6193 77.7687 95.2619C77.6111 95.8893 77.3233 96.5142 76.9054 97.1367C76.5085 97.744 75.9404 98.3142 75.2011 98.8473C74.0817 99.6546 72.8116 100.298 71.3909 100.776C70.0066 101.261 68.5368 101.582 66.9815 101.741C65.4473 101.884 63.885 101.855 62.2948 101.653C60.6986 101.488 59.1607 101.136 57.6809 100.598C56.2012 100.059 54.8341 99.3436 53.5798 98.4501C52.2891 97.5508 51.1868 96.4675 50.2729 95.2001C50.0596 94.9044 49.8201 94.4832 49.5542 93.9364C49.2732 93.3686 49.0525 92.7732 48.8923 92.1503C48.732 91.5274 48.6809 90.9222 48.7387 90.3346C48.7966 89.747 49.0579 89.2857 49.5226 88.9506C49.9873 88.6155 50.6706 88.4277 51.5726 88.3873C52.4534 88.3622 53.4738 88.3969 54.6337 88.4915L54.9514 89.4664C54.4071 89.6021 53.9102 89.848 53.4608 90.2043C52.9902 90.5757 52.6304 91.0118 52.3814 91.5124C52.1324 92.013 52.0229 92.5736 52.053 93.194C52.083 93.8145 52.3265 94.4416 52.7835 95.0752C53.3471 95.8568 54.201 96.5734 55.3452 97.2252C56.4531 97.871 57.7553 98.2965 59.2517 98.5017C60.727 98.722 62.3251 98.6452 64.0459 98.2711C65.7879 97.8818 67.546 97.0474 69.3203 95.7679C70.1863 95.1434 70.8236 94.4911 71.2323 93.8112C71.662 93.116 71.9223 92.4306 72.0131 91.7551C72.1191 91.1007 72.092 90.4621 71.9318 89.8392C71.7715 89.2163 71.545 88.6573 71.2521 88.1621L71.8334 87.165ZM74.3151 112.778C74.7264 113.349 75.5571 113.633 76.8074 113.63C78.0729 113.648 79.5449 113.486 81.2235 113.142C82.9233 112.783 84.7269 112.301 86.6344 111.696C88.563 111.076 90.3855 110.42 92.1019 109.728C93.8546 109.042 95.3986 108.378 96.7338 107.737C98.1053 107.101 99.0762 106.577 99.6465 106.166C99.8788 105.998 100.104 105.82 100.321 105.631C100.559 105.428 100.735 105.204 100.849 104.962C100.999 104.725 101.077 104.476 101.082 104.216C101.087 103.955 100.982 103.677 100.769 103.382C100.358 102.811 99.5195 102.517 98.254 102.498C97.0037 102.501 95.5287 102.682 93.829 103.041C92.1504 103.384 90.3468 103.866 88.4182 104.486C86.5107 105.091 84.6805 105.737 82.9278 106.423C81.2114 107.115 79.6675 107.779 78.2959 108.415C76.9608 109.057 76.008 109.583 75.4377 109.994C74.9308 110.36 74.5089 110.777 74.1719 111.244C73.8713 111.718 73.9191 112.229 74.3151 112.778ZM72.1789 113.356C71.7219 112.722 71.4023 111.989 71.2199 111.158C71.0528 110.347 71.0264 109.531 71.1407 108.71C71.2762 107.874 71.5541 107.08 71.9746 106.327C72.3797 105.553 72.9309 104.915 73.6279 104.413C74.6418 103.681 75.7846 103.018 77.0564 102.422C78.313 101.805 79.5548 101.278 80.7819 100.843C82.0149 100.371 83.1681 99.9889 84.2415 99.6964C85.3208 99.3676 86.1824 99.1155 86.8264 98.94C88.3866 98.5213 89.9233 98.2479 91.4364 98.12C92.9858 97.9979 94.4559 98.0776 95.8467 98.3589C97.2587 98.6249 98.5596 99.1155 99.7495 99.8307C100.939 100.546 101.991 101.537 102.905 102.804C103.362 103.438 103.674 104.16 103.841 104.971C104.024 105.802 104.047 106.636 103.912 107.472C103.797 108.293 103.53 109.08 103.11 109.833C102.704 110.607 102.153 111.245 101.456 111.748C100.442 112.479 99.2996 113.142 98.0278 113.738C96.7713 114.356 95.5189 114.889 94.2706 115.34C93.0587 115.797 91.9055 116.179 90.811 116.486C89.7529 116.8 88.9018 117.045 88.2578 117.22C86.6765 117.654 85.1216 117.924 83.5933 118.031C82.0803 118.159 80.6178 118.09 79.2058 117.824C77.815 117.543 76.5246 117.045 75.3347 116.329C74.1448 115.614 73.0928 114.623 72.1789 113.356ZM126.529 120.203C126.768 120.223 127.1 120.193 127.523 120.112C127.968 120.016 128.447 119.879 128.961 119.702C129.496 119.508 130.039 119.261 130.592 118.959C131.181 118.662 131.74 118.324 132.268 117.943C133.324 117.181 133.942 116.414 134.124 115.641C134.341 114.874 134.267 114.237 133.901 113.731C133.703 113.456 133.413 113.232 133.031 113.058C132.649 112.884 132.194 112.81 131.668 112.837C131.162 112.848 130.585 112.96 129.935 113.172C129.3 113.405 128.613 113.788 127.874 114.321C127.494 114.595 126.879 115.167 126.029 116.037C125.194 116.927 124.221 117.982 123.11 119.201C121.998 120.42 120.778 121.734 119.449 123.141C118.157 124.555 116.849 125.947 115.527 127.318C114.204 128.69 112.906 129.963 111.634 131.137C110.398 132.317 109.273 133.273 108.259 134.004C107.246 134.735 106.049 135.325 104.671 135.773C103.329 136.227 101.921 136.568 100.448 136.796C98.9958 137.008 97.5584 137.129 96.1357 137.16C94.713 137.191 93.4112 137.166 92.2302 137.087C91.0703 136.992 90.1039 136.854 89.3312 136.673C88.5584 136.492 88.0958 136.296 87.9435 136.085C87.6845 135.726 87.462 135.372 87.2757 135.025C87.1047 134.699 86.9637 134.303 86.8526 133.837C86.7454 132.887 86.7285 131.84 86.802 130.695C86.8908 129.572 87.0552 128.442 87.2953 127.305C87.5201 126.148 87.8012 125.046 88.1386 124C88.4818 122.918 88.8696 121.964 89.3018 121.139C90.328 121.137 91.3484 121.172 92.3629 121.243C93.2319 121.29 94.1602 121.376 95.1476 121.498C96.1198 121.6 97.0287 121.747 97.8742 121.94L97.9199 122.003C97.3246 122.914 96.7058 123.971 96.0633 125.172C95.4209 126.374 94.8647 127.562 94.3948 128.735C93.94 129.93 93.6302 131.037 93.4653 132.055C93.3214 133.057 93.4399 133.823 93.8207 134.351C93.8969 134.456 94.0428 134.592 94.2585 134.757C94.4894 134.944 94.7867 135.067 95.1502 135.126C95.5349 135.169 96.0023 135.105 96.5525 134.933C97.1391 134.767 97.8337 134.395 98.6363 133.816C99.1855 133.42 100.028 132.652 101.164 131.511C102.316 130.392 103.601 129.08 105.02 127.575C106.439 126.07 107.927 124.483 109.485 122.814C111.058 121.166 112.532 119.605 113.909 118.13C115.286 116.656 116.5 115.379 117.552 114.299C118.64 113.226 119.406 112.529 119.849 112.209C120.779 111.539 121.814 111.082 122.954 110.837C124.13 110.599 125.279 110.477 126.399 110.472C127.555 110.473 128.624 110.553 129.606 110.712C130.587 110.871 131.358 111.005 131.919 111.115C132.707 111.317 133.565 111.549 134.492 111.812C135.435 112.095 136.338 112.39 137.203 112.698C138.082 113.027 138.857 113.368 139.528 113.719C140.219 114.055 140.695 114.402 140.954 114.761C141.213 115.12 141.364 115.509 141.409 115.926C141.474 116.329 141.382 116.78 141.133 117.281C140.92 117.787 140.504 118.345 139.883 118.953C139.298 119.567 138.467 120.262 137.39 121.039C136.904 121.39 136.368 121.648 135.782 121.814C135.231 121.986 134.643 122.105 134.017 122.172C133.412 122.223 132.794 122.235 132.164 122.207C131.556 122.165 130.96 122.096 130.379 122.002C128.997 121.778 127.611 121.414 126.219 120.908L126.529 120.203Z" fill="#141414"/>
<path d="M27.8069 107.489L27.5172 107.705L24.1267 103.156L24.4165 102.94L24.6966 103.315C25.0234 103.754 25.3886 103.977 25.7922 103.985C26.0526 103.986 26.5012 103.749 27.1381 103.274L33.9974 98.1621C34.5351 97.7614 34.8648 97.4629 34.9865 97.2666C35.0781 97.1172 35.1106 96.9265 35.0839 96.6947C35.038 96.3716 34.9217 96.0848 34.735 95.8342L34.4549 95.4584L34.7446 95.2424L38.1351 99.7918L37.8453 100.008L37.5594 99.6241C37.2365 99.1908 36.8732 98.9703 36.4696 98.9626C36.2053 98.9565 35.7547 99.1909 35.1179 99.6655L28.2585 104.777C27.7209 105.178 27.3912 105.477 27.2695 105.673C27.1779 105.822 27.1474 106.016 27.1779 106.253C27.2199 106.571 27.3343 106.855 27.521 107.105L27.8069 107.489ZM31.7868 112.829L31.4971 113.045L28.1066 108.496L28.3963 108.28L28.6764 108.656C29.0032 109.094 29.3684 109.317 29.7721 109.325C30.0325 109.326 30.4811 109.089 31.118 108.614L37.9773 103.502C38.515 103.102 38.8447 102.803 38.9664 102.607C39.058 102.457 39.0904 102.267 39.0638 102.035C39.0179 101.712 38.9016 101.425 38.7149 101.174L38.4347 100.799L38.7245 100.583L42.1149 105.132L41.8252 105.348L41.5393 104.964C41.2164 104.531 40.8531 104.311 40.4495 104.303C40.1852 104.297 39.7346 104.531 39.0977 105.006L32.2384 110.118C31.7007 110.518 31.3711 110.817 31.2494 111.013C31.1578 111.163 31.1272 111.356 31.1578 111.593C31.1998 111.911 31.3141 112.195 31.5009 112.446L31.7868 112.829ZM35.7667 118.169L35.477 118.385L32.0865 113.836L32.3762 113.62L32.6563 113.996C32.9831 114.434 33.3483 114.658 33.752 114.665C34.0124 114.666 34.461 114.429 35.0979 113.955L41.9572 108.843C42.4949 108.442 42.8245 108.143 42.9462 107.947C43.0378 107.798 43.0703 107.607 43.0437 107.375C42.9978 107.052 42.8815 106.765 42.6947 106.515L42.4146 106.139L42.7043 105.923L46.0948 110.472L45.8051 110.688L45.5192 110.305C45.1963 109.871 44.833 109.651 44.4294 109.643C44.1651 109.637 43.7145 109.871 43.0776 110.346L36.2183 115.458C35.6806 115.859 35.3509 116.157 35.2292 116.353C35.1376 116.503 35.1071 116.696 35.1376 116.933C35.1796 117.251 35.294 117.535 35.4808 117.786L35.7667 118.169Z" fill="#141414"/>
</svg>
