<svg width="222" height="169" viewBox="0 0 222 169" fill="none" xmlns="http://www.w3.org/2000/svg">
<path d="M44.7746 128.445C43.6831 127.037 42.7238 125.743 41.8964 124.564C41.059 123.36 40.2727 122.178 39.5375 121.017C38.7922 119.832 38.0491 118.618 37.3079 117.375C36.5668 116.131 35.7418 114.754 34.8328 113.242C36.6345 111.536 38.1388 109.827 39.3456 108.114C40.5523 106.401 41.4346 104.654 41.9925 102.872C42.5503 101.09 42.7617 99.2546 42.6266 97.3653C42.5056 95.4421 42.0161 93.4461 41.1582 91.3773C41.0883 91.2089 40.8976 90.851 40.586 90.3037C40.2985 89.7463 39.9529 89.1848 39.5492 88.6192C39.1695 88.0437 38.7717 87.5603 38.3557 87.1689C37.9637 86.7676 37.6234 86.6269 37.3347 86.7466C37.0461 86.8663 36.7219 87.2403 36.3623 87.8688C36.0027 88.4972 35.6278 89.2588 35.2377 90.1536C34.8617 91.0143 34.4795 91.9622 34.0912 92.9972C33.7169 93.9982 33.3808 94.9552 33.0828 95.8681C33.2572 98.1921 33.4314 100.685 33.6053 103.348C33.8032 106.001 34.014 108.718 34.2378 111.501C34.4515 114.26 34.6653 117.019 34.8791 119.777C35.0829 122.512 35.2779 125.124 35.464 127.612C35.6743 130.09 35.8628 132.38 36.0296 134.482C36.2104 136.549 36.3607 138.306 36.4805 139.75C35.895 140.106 35.2584 140.44 34.5708 140.753C33.9894 141.051 33.2968 141.352 32.493 141.657C31.6892 141.963 30.8414 142.23 29.9496 142.459L29.5835 142.188C29.6527 141.539 29.6617 140.337 29.6105 138.582C29.5493 136.803 29.4597 134.683 29.3416 132.223C29.2376 129.729 29.0918 126.998 28.9045 124.031C28.7171 121.064 28.5147 118.061 28.2974 115.022C28.0942 111.949 27.8798 108.95 27.6543 106.027C27.4288 103.104 27.2018 100.45 26.9734 98.0635C26.769 95.6673 26.572 93.6628 26.3824 92.0499C26.2168 90.427 26.0683 89.3891 25.9369 88.9362C25.8271 88.6716 25.6552 88.461 25.4211 88.3043C24.5369 88.7556 23.6918 89.2329 22.8856 89.7364C22.0795 90.2399 21.3775 90.7566 20.7797 91.2864C20.5169 91.5364 20.2649 91.8805 20.0238 92.3188C19.7727 92.7331 19.5756 93.2095 19.4325 93.7481C19.2893 94.2867 19.2143 94.8535 19.2073 95.4485C19.2144 96.0094 19.3227 96.5424 19.5322 97.0476C19.6618 97.3603 19.8505 97.7472 20.0981 98.2084C20.3358 98.6455 20.6266 99.0746 20.9704 99.4959L20.717 100.108C19.1211 99.7272 17.7627 99.2051 16.6421 98.5422C15.5114 97.8552 14.7715 97.0908 14.4223 96.2488C14.2228 95.7677 14.1597 95.1737 14.2329 94.4667C14.3303 93.7497 14.5198 93.0509 14.8013 92.3702C15.0729 91.6656 15.4155 91.0301 15.8291 90.4639C16.2427 89.8977 16.666 89.5248 17.099 89.3452C18.5904 88.7267 20.2511 88.1084 22.0811 87.4905C23.911 86.8725 25.8243 86.1495 27.8209 85.3215C28.2538 85.142 28.6387 84.9823 28.9755 84.8427C29.3123 84.703 29.637 84.5683 29.9497 84.4386C30.2525 84.2849 30.5602 84.1432 30.8729 84.0135C31.1997 83.8498 31.5696 83.6541 31.9827 83.4264L32.3488 83.6974C32.3817 84.3886 32.439 85.4784 32.5207 86.9669C32.6023 88.4555 32.7116 90.2145 32.8484 92.2439C33.191 91.0306 33.5837 89.7682 34.0266 88.4568C34.4695 87.1455 34.9353 85.9233 35.4239 84.7903C35.9366 83.6473 36.4491 82.6736 36.9612 81.8691C37.4634 81.0406 37.9671 80.5216 38.4722 80.3121C39.0255 80.0827 39.6756 80.0527 40.4225 80.2222C41.1594 80.3677 41.8961 80.6824 42.6325 81.1664C43.3829 81.6164 44.087 82.2265 44.7448 82.9968C45.4266 83.7572 45.9671 84.6185 46.3661 85.5807C47.4236 88.1305 48.0105 90.5654 48.1268 92.8853C48.2332 95.1811 47.9802 97.3582 47.3678 99.4165C46.7454 101.451 45.8268 103.382 44.6118 105.211C43.3868 107.016 41.9598 108.707 40.3305 110.285C40.8839 111.212 41.5062 112.236 42.1974 113.359C42.9028 114.448 43.655 115.616 44.4542 116.864C45.2435 118.087 46.0987 119.367 47.02 120.705C47.9313 122.019 48.8766 123.346 49.8559 124.688C51.2331 126.513 52.4586 128.007 53.5324 129.168C54.6062 130.33 55.5972 131.258 56.5055 131.953C57.4138 132.647 58.2593 133.157 59.0421 133.48C59.8588 133.818 60.6697 134.074 61.4747 134.248L61.3947 135.38C60.4688 135.595 59.3728 135.74 58.1067 135.814C56.8505 135.912 55.4896 135.757 54.0239 135.35C52.5923 134.957 51.0791 134.231 49.4843 133.173C47.9135 132.105 46.3436 130.529 44.7746 128.445ZM61.0342 140.731C63.094 136.86 64.6937 133.138 65.8334 129.564C67.0072 126.005 67.6271 122.435 67.6931 118.855C66.8454 120.278 66.0153 121.37 65.2027 122.129C64.3802 122.865 63.4758 123.438 62.4895 123.847C62.0325 124.036 61.4845 124.108 60.8456 124.063C60.2066 124.018 59.5709 123.845 58.9384 123.543C58.2718 123.228 57.6496 122.781 57.0716 122.203C56.4596 121.611 55.974 120.882 55.6149 120.016C55.0462 118.645 54.607 117.178 54.2971 115.615C53.9772 114.028 53.8145 112.446 53.8091 110.869C53.7697 109.279 53.8855 107.723 54.1564 106.201C54.4174 104.655 54.8395 103.225 55.4226 101.912C56.0297 100.589 56.7889 99.4281 57.7 98.43C58.6352 97.422 59.7522 96.6486 61.0512 96.1099C61.8931 95.7607 62.7667 95.6239 63.6721 95.6995C64.5774 95.7752 65.4414 96.023 66.264 96.443C67.0866 96.8631 67.8289 97.4292 68.4907 98.1414C69.1767 98.8437 69.7042 99.6398 70.0733 100.53C71.5099 103.994 72.3858 107.296 72.7011 110.435C73.0164 113.575 72.8268 116.754 72.1324 119.974C71.428 123.17 70.2295 126.501 68.5371 129.965C66.8687 133.42 64.7571 137.2 62.2022 141.304L61.0342 140.731ZM63.7962 120.471C64.0368 120.372 64.3175 120.199 64.6384 119.953C64.9734 119.673 65.3175 119.347 65.6707 118.975C66.0139 118.579 66.3592 118.154 66.7065 117.7C67.0438 117.222 67.3542 116.712 67.6375 116.172C67.3989 111.45 66.1623 106.395 63.9277 101.006C63.5486 100.092 63.1261 99.3795 62.6602 98.8679C62.1943 98.3563 61.6607 98.2253 61.0593 98.4747C60.4098 98.744 59.939 99.3762 59.6469 100.371C59.3688 101.332 59.2117 102.483 59.1754 103.823C59.1292 105.139 59.1689 106.56 59.2945 108.087C59.4343 109.58 59.6092 110.987 59.8194 112.31C60.0196 113.608 60.22 114.737 60.4207 115.697C60.6355 116.623 60.7878 117.194 60.8776 117.411C60.9973 117.699 61.142 118.048 61.3116 118.457C61.5052 118.856 61.73 119.228 61.9858 119.573C62.2417 119.918 62.5136 120.2 62.8017 120.419C63.1039 120.603 63.4354 120.621 63.7962 120.471ZM102.998 54.3976C103.017 55.1228 103.073 56.3117 103.167 57.9646C103.284 59.6074 103.42 61.5667 103.575 63.8426C103.729 66.1185 103.901 68.6409 104.091 71.4096C104.295 74.1443 104.502 76.9902 104.714 79.9473C104.915 82.8803 105.127 85.8374 105.348 88.8186C105.584 91.7657 105.81 94.5896 106.028 97.2903C106.246 99.991 106.444 102.474 106.623 104.74C106.801 107.006 106.958 108.914 107.094 110.465C106.825 110.633 106.528 110.799 106.201 110.962C105.932 111.13 105.593 111.299 105.184 111.469C104.785 111.662 104.345 111.859 103.864 112.058C102.854 112.477 101.766 112.844 100.599 113.159L100.233 112.888C100.272 112.167 100.262 110.747 100.201 108.63C100.141 106.512 100.029 103.965 99.8653 100.988C99.5761 102.602 99.2298 104.282 98.8263 106.028C98.4468 107.764 97.9933 109.39 97.466 110.906C96.9527 112.387 96.3766 113.684 95.7378 114.794C95.0889 115.881 94.3917 116.579 93.646 116.888C93.0927 117.118 92.4737 117.121 91.789 116.897C91.1043 116.674 90.4148 116.269 89.7207 115.683C89.0506 115.087 88.3908 114.345 87.7412 113.459C87.1057 112.538 86.5485 111.501 86.0697 110.346C85.6706 109.384 85.3153 108.051 85.0036 106.348C84.6919 104.645 84.4137 102.716 84.1688 100.562C83.9381 98.3744 83.7346 96.0483 83.5584 93.5841C83.3822 91.1199 83.223 88.6627 83.0809 86.2125C82.9287 83.7383 82.7945 81.3412 82.6781 79.0213C82.5859 76.6914 82.4942 74.6009 82.4031 72.7498C82.312 70.8987 82.2224 69.3571 82.1343 68.125C82.0362 66.8688 81.9464 66.0744 81.8648 65.7417C81.7551 65.4771 81.5832 65.2665 81.3491 65.1098C80.4649 65.5611 79.6198 66.0385 78.8136 66.5419C78.0075 67.0454 77.3055 67.5621 76.7077 68.0919C76.4449 68.3419 76.1929 68.686 75.9518 69.1243C75.7007 69.5386 75.5036 70.015 75.3605 70.5536C75.2173 71.0923 75.1423 71.659 75.1353 72.254C75.1424 72.8149 75.2506 73.3479 75.4601 73.8531C75.5898 74.1658 75.7785 74.5527 76.0261 75.0139C76.2638 75.451 76.5545 75.8801 76.8984 76.3014L76.645 76.914C75.049 76.5327 73.6907 76.0106 72.57 75.3477C71.4394 74.6607 70.6995 73.8963 70.3503 73.0543C70.1508 72.5732 70.0876 71.9792 70.1609 71.2722C70.2583 70.5552 70.4477 69.8564 70.7293 69.1758C71.0009 68.4711 71.3435 67.8356 71.7571 67.2694C72.1707 66.7032 72.594 66.3303 73.027 66.1507C73.7727 65.8415 74.4442 65.5912 75.0415 65.3999C75.6528 65.1745 76.2812 64.9562 76.9266 64.7449C77.572 64.5337 78.2655 64.3024 79.0071 64.0513C79.7387 63.776 80.6097 63.4289 81.62 63.0099C82.053 62.8304 82.5461 62.6259 83.0994 62.3964C83.6426 62.1429 84.1909 61.9014 84.7442 61.672C85.3115 61.4085 85.8548 61.155 86.3741 60.9114C86.9174 60.6579 87.3955 60.4173 87.8086 60.1897L88.2768 60.5029C88.335 61.6629 88.3896 63.1203 88.4408 64.8752C88.482 66.6061 88.5209 68.5352 88.5574 70.6627C88.618 72.7802 88.6874 75.0209 88.7656 77.3848C88.8438 79.7487 88.932 82.1367 89.0302 84.5487C89.1424 86.9267 89.2737 89.2827 89.4241 91.6167C89.5985 93.9407 89.8002 96.1265 90.0292 98.1742C90.2822 100.212 90.5666 102.053 90.8824 103.698C91.1882 105.32 91.5506 106.635 91.9696 107.646C92.0295 107.79 92.1292 108.03 92.2689 108.367C92.4085 108.704 92.5723 109.031 92.76 109.348C92.9719 109.654 93.2048 109.91 93.4589 110.115C93.713 110.32 93.9843 110.362 94.273 110.243C94.5135 110.143 94.874 109.584 95.3545 108.568C95.825 107.527 96.3218 106.278 96.8451 104.82C97.3584 103.339 97.8658 101.775 98.3673 100.129C98.8688 98.4833 99.2659 96.9936 99.5586 95.6599C99.4164 93.2098 99.2564 90.6825 99.0784 88.078C98.8905 85.4495 98.7054 82.862 98.5234 80.3156C98.3413 77.7693 98.151 75.3391 97.9525 73.025C97.7781 70.701 97.6043 68.6164 97.4311 66.7712C97.2819 64.9159 97.1342 63.3702 96.988 62.134C96.8319 60.8737 96.698 60.0412 96.5865 59.6363C96.4169 59.2274 96.1769 58.9886 95.8666 58.92L95.687 58.487C96.2567 58.0252 96.7812 57.6244 97.2605 57.2847C97.7539 56.9109 98.2623 56.5732 98.7856 56.2716C99.323 55.9359 99.9065 55.6094 100.536 55.2919C101.166 54.9744 101.908 54.6241 102.764 54.2409L102.998 54.3976ZM129.591 43.369C129.61 44.0942 129.654 45.2881 129.724 46.9509C129.817 48.6037 129.917 50.578 130.023 52.8739C130.154 55.1598 130.29 57.6971 130.431 60.4858C130.587 63.2404 130.747 66.1063 130.91 69.0833C131.087 72.0263 131.263 74.9984 131.436 77.9995C131.623 80.9665 131.802 83.8104 131.972 86.531C132.165 89.2417 132.34 91.735 132.494 94.0109C132.649 96.2868 132.794 98.2001 132.929 99.7508L132.857 99.7807C132.612 99.9386 132.339 100.094 132.036 100.248C131.513 100.55 130.782 100.895 129.844 101.284C129.411 101.464 128.908 101.644 128.334 101.825C127.795 102.021 127.234 102.197 126.651 102.355L126.285 102.084C125.787 100.542 125.193 98.7724 124.506 96.7741C123.842 94.7657 123.111 92.6301 122.314 90.3672C121.54 88.0942 120.72 85.7421 119.853 83.3108C118.999 80.8454 118.139 78.3971 117.272 75.9657C116.428 73.5244 115.576 71.1292 114.714 68.78C113.877 66.4208 113.082 64.199 112.331 62.1144C112.729 66.0654 113.144 70.0234 113.576 73.9885C113.998 77.9295 114.414 81.7883 114.825 85.5651C115.259 89.3318 115.668 92.9683 116.051 96.4746C116.458 99.9708 116.816 103.248 117.125 106.305C116.991 106.389 116.82 106.488 116.614 106.602C116.431 106.706 116.208 106.812 115.943 106.922C115.664 107.066 115.345 107.213 114.984 107.362C114.575 107.532 114.137 107.699 113.67 107.865C113.203 108.03 112.659 108.214 112.037 108.415L111.9 107.88C112.02 107.83 112.137 107.669 112.249 107.397C112.352 107.1 112.43 106.744 112.483 106.327C112.573 104.711 112.607 102.752 112.583 100.45C112.548 98.1244 112.465 95.5792 112.334 92.8145C112.192 90.0258 112.022 87.0658 111.823 83.9345C111.624 80.8031 111.399 77.6117 111.15 74.36C110.926 71.0984 110.684 67.8298 110.425 64.5541C110.166 61.2785 109.929 58.092 109.716 54.9946L109.432 54.3091C109.262 53.9001 109.022 53.6614 108.712 53.5927L108.532 53.1597C109.102 52.698 109.603 52.3072 110.034 51.9874C110.479 51.6335 110.939 51.3158 111.415 51.0341C111.904 50.7184 112.439 50.4118 113.021 50.1143C113.602 49.8168 114.309 49.4814 115.141 49.1082L115.375 49.2648C115.857 50.6999 116.42 52.3976 117.064 54.3578C117.708 56.318 118.409 58.4516 119.169 60.7585C119.952 63.0555 120.762 65.4827 121.597 68.0402C122.456 70.5877 123.33 73.1713 124.219 75.791C125.132 78.4007 126.045 81.0104 126.958 83.6201C127.862 86.2057 128.749 88.6851 129.62 91.0584C129.532 88.6704 129.407 86.058 129.246 83.2212C129.098 80.3504 128.919 77.4364 128.707 74.4793C128.51 71.4882 128.28 68.5531 128.016 65.6741C127.766 62.761 127.493 60.0973 127.197 57.6829C126.914 55.2345 126.614 53.1176 126.297 51.3323C125.993 49.5128 125.682 48.2182 125.363 47.4485C125.193 47.0396 124.953 46.8008 124.643 46.7321L124.448 46.2631C124.807 45.9732 125.207 45.6804 125.649 45.3847C126.09 45.0889 126.524 44.8102 126.951 44.5485C127.402 44.2768 127.834 44.0271 128.247 43.7994C128.661 43.5717 129.018 43.381 129.321 43.2273L129.591 43.369ZM158.589 37.2212C158.509 37.0287 158.354 36.8251 158.124 36.6104C157.894 36.3957 157.638 36.22 157.356 36.0833C157.088 35.9126 156.823 35.7829 156.56 35.6944C156.298 35.6058 156.095 35.5914 155.95 35.6513C155.565 35.8109 155.199 36.1178 154.852 36.5719C154.529 37.0161 154.251 37.3993 154.018 37.7214L153.286 37.1793C153.587 36.5468 153.92 35.8873 154.283 35.2008C154.671 34.5043 155.067 33.8609 155.471 33.2707C155.888 32.6464 156.317 32.1162 156.756 31.6802C157.186 31.2202 157.593 30.9104 157.978 30.7508C158.796 30.4116 159.651 30.3669 160.544 30.6168C161.437 30.8667 162.252 31.2336 162.988 31.7176C163.739 32.1676 164.364 32.6554 164.864 33.1811C165.388 33.6968 165.69 34.0508 165.769 34.2433C165.999 34.7966 166.254 35.8887 166.536 37.5198C166.832 39.1169 167.065 41.1064 167.235 43.4885C167.396 45.8466 167.465 48.4959 167.445 51.4366C167.414 54.3532 167.198 57.4027 166.798 60.5852C166.423 63.7576 165.81 66.9718 164.961 70.2276C164.127 73.4493 162.974 76.5494 161.503 79.5277C160.031 82.5061 158.202 85.2665 156.014 87.8089C153.826 90.3513 151.199 92.5125 148.131 94.2922L147.008 93.8276C146.915 92.6536 146.796 91.0398 146.649 88.9863C146.516 86.8987 146.349 84.5577 146.147 81.9632C145.959 79.3347 145.747 76.5469 145.512 73.5997C145.29 70.6186 145.062 67.6545 144.826 64.7074C144.581 61.7362 144.339 58.8762 144.101 56.1274C143.888 53.3687 143.677 50.8903 143.471 48.6925C143.264 46.4946 143.077 44.6834 142.909 43.2588C142.755 41.8003 142.637 40.9046 142.556 40.572C142.446 40.3074 142.274 40.0967 142.04 39.9401C141.18 40.3814 140.347 40.8538 139.541 41.3572C138.734 41.8607 138.045 42.3724 137.471 42.8923C137.208 43.1422 136.956 43.4863 136.715 43.9247C136.464 44.3389 136.267 44.8153 136.124 45.354C135.98 45.8926 135.905 46.4594 135.898 47.0543C135.905 47.6152 136.014 48.1483 136.223 48.6534C136.353 48.9661 136.542 49.3531 136.789 49.8142C137.027 50.2513 137.318 50.6805 137.661 51.1017L137.408 51.7143C135.812 51.333 134.454 50.8109 133.333 50.148C132.202 49.461 131.463 48.6966 131.113 47.8547C130.914 47.3736 130.851 46.7795 130.924 46.0725C131.021 45.3555 131.211 44.6567 131.492 43.9761C131.764 43.2714 132.107 42.636 132.52 42.0697C132.934 41.5035 133.357 41.1306 133.79 40.951C135.281 40.3325 136.942 39.7143 138.772 39.0963C140.602 38.4784 142.515 37.7554 144.512 36.9274C144.945 36.7478 145.33 36.5882 145.667 36.4485C146.003 36.3088 146.316 36.1792 146.605 36.0594C146.907 35.9057 147.215 35.764 147.528 35.6343C147.831 35.4805 148.188 35.2898 148.602 35.0622L148.968 35.3332C149.073 36.8117 149.2 38.5778 149.347 40.6313C149.507 42.6508 149.68 44.8346 149.864 47.1827C150.049 49.5307 150.254 51.997 150.48 54.5815C150.696 57.142 150.917 59.7145 151.143 62.299C151.36 64.8594 151.573 67.3788 151.783 69.8571C152.017 72.3255 152.233 74.6466 152.429 76.8204C152.64 78.9601 152.824 80.8996 152.982 82.6386C153.139 84.3776 153.273 85.7881 153.383 86.87C155.268 84.8199 156.792 82.4115 157.957 79.645C159.145 76.8686 160.053 73.9264 160.682 70.8184C161.3 67.6864 161.671 64.5019 161.794 61.265C161.908 58.0039 161.837 54.8758 161.581 51.8806C161.35 48.8754 160.962 46.1043 160.417 43.5674C159.897 41.0204 159.287 38.905 158.589 37.2212Z" fill="#141414"/>
<path d="M122.438 131.843L122.553 132.185L117.171 133.982L117.056 133.639L117.501 133.49C118.02 133.317 118.346 133.04 118.48 132.659C118.562 132.412 118.477 131.912 118.226 131.159L115.518 123.044C115.305 122.408 115.125 122.001 114.977 121.824C114.864 121.691 114.693 121.6 114.464 121.553C114.143 121.495 113.834 121.516 113.538 121.615L113.093 121.763L112.979 121.421L118.361 119.624L118.475 119.967L118.021 120.119C117.509 120.29 117.185 120.566 117.052 120.947C116.963 121.196 117.045 121.697 117.296 122.45L120.004 130.565C120.217 131.201 120.397 131.608 120.545 131.785C120.659 131.919 120.833 132.008 121.067 132.053C121.382 132.113 121.688 132.093 121.984 131.994L122.438 131.843Z" fill="#141414"/>
</svg>
