<svg width="220" height="197" viewBox="0 0 220 197" fill="none" xmlns="http://www.w3.org/2000/svg">
<path d="M26.2677 60.9999C26.713 61.3173 27.1188 61.5107 27.4852 61.5799C27.8728 61.6643 28.2603 61.6367 28.6476 61.4971L28.9978 62.0825C28.2506 62.6372 27.3869 63.2208 26.4066 63.8333C25.4476 64.4608 24.4687 64.9144 23.47 65.1938L23.0612 65.0943C22.2644 64.4624 21.5843 63.9136 21.0207 63.4479C20.4633 63.0186 19.9695 62.6346 19.5393 62.296C19.1091 61.9573 18.7107 61.6414 18.3441 61.3481C17.9836 61.0911 17.5913 60.8115 17.1672 60.5091C16.7855 60.2371 16.2448 59.8516 15.545 59.3528C14.8089 58.86 14.0591 58.3416 13.2957 57.7974C12.496 57.2593 11.7387 56.7515 11.0238 56.2739C10.2938 55.8174 9.73034 55.4638 9.33353 55.2129L9.51427 54.2864C10.931 54.2729 12.549 54.179 14.3682 54.0047C16.1663 53.8153 18.0429 53.538 19.9982 53.1728C21.9535 52.8077 23.9117 52.3486 25.8728 51.7958C27.834 51.2429 29.686 50.5963 31.429 49.856C33.1872 49.0944 34.7711 48.2407 36.1809 47.2949C37.5907 46.349 38.7113 45.2929 39.5427 44.1266C39.6485 43.9782 39.724 43.7601 39.7691 43.4725C39.8506 43.1788 39.882 42.8654 39.8636 42.5324C39.8663 42.2146 39.807 41.9164 39.6856 41.638C39.5793 41.3384 39.4096 41.1055 39.1763 40.9392C38.2645 40.2892 37.3454 39.9859 36.4191 40.0292C35.5079 40.0512 34.6227 40.2837 33.7633 40.7265C32.9403 41.1632 32.1568 41.724 31.4128 42.4089C30.6899 43.1089 30.0579 43.7937 29.5166 44.4632L29.2669 44.4771C28.8237 43.1697 28.5939 41.9666 28.5777 40.8677C28.5555 39.7325 28.7635 38.8574 29.2019 38.2425C29.5798 37.7123 30.1879 37.3303 31.0262 37.0964C31.8797 36.8413 32.868 36.7783 33.9912 36.9073C35.1508 37.0303 36.412 37.3697 37.7748 37.9254C39.1527 38.4599 40.5627 39.2411 42.0047 40.269C42.7257 40.7829 43.2833 41.4363 43.6776 42.229C44.0932 43.0369 44.3452 43.8722 44.4338 44.7349C44.5588 45.5915 44.5324 46.4361 44.3546 47.2688C44.1768 48.1015 43.8838 48.8041 43.4757 49.3766C42.3722 50.9247 40.8688 52.0916 38.9654 52.8775C37.0983 53.6573 35.0251 54.2103 32.7459 54.5364C30.4667 54.8625 28.0617 55.051 25.5309 55.1019C23.0365 55.1467 20.6102 55.2081 18.252 55.286L26.2677 60.9999ZM58.5313 66.0091C58.894 65.5002 59.0617 65.108 59.0342 64.8326C59.0279 64.5722 58.9944 64.3725 58.9337 64.2333L59.2058 63.8516C59.9144 64.0688 60.5654 64.2771 61.159 64.4763C61.7737 64.6907 62.3733 64.9262 62.9579 65.183C63.5636 65.4548 64.1784 65.7812 64.8024 66.162C65.4415 66.5217 66.1503 66.963 66.9289 67.4859L66.92 67.7675C65.725 68.5466 64.4514 69.4137 63.0991 70.3686C61.7619 71.3023 60.2584 72.3572 58.5885 73.5334C56.9397 74.7247 55.0989 76.0509 53.066 77.512C51.0331 78.9732 48.7445 80.6358 46.2004 82.5001C44.5002 83.7187 42.8089 84.6557 41.1264 85.3113C39.4438 85.9668 37.8004 86.4103 36.1962 86.642C34.598 86.9099 33.0663 87.0173 31.6011 86.9643C30.1358 86.9112 28.7886 86.7823 27.5593 86.5777C26.3149 86.3942 25.1946 86.1712 24.1984 85.9088C23.2082 85.6827 22.3862 85.5125 21.7321 85.3981L21.9308 84.2445C23.0753 84.3887 24.2424 84.5011 25.4322 84.5817C26.6281 84.6986 27.9237 84.6308 29.319 84.3781C30.7205 84.1619 32.2564 83.6896 33.9267 82.9615C35.582 82.2545 37.4442 81.1674 39.5135 79.7002C40.1639 79.2364 40.9247 78.7074 41.796 78.1132C42.6885 77.5342 43.6551 76.896 44.6958 76.1987C42.8463 76.4154 41.1556 76.4095 39.6236 76.1809C38.1128 75.9674 36.8378 75.4903 35.7987 74.7497C35.1838 74.3113 34.6943 73.6745 34.3302 72.8394C33.9722 72.0405 33.7806 71.1204 33.7554 70.079C33.7665 69.0316 33.9637 67.9249 34.347 66.759C34.7243 65.5568 35.3361 64.362 36.1826 63.1745C36.9535 62.093 38.0089 60.9265 39.3488 59.6749C40.7038 58.4021 42.1784 57.1187 43.7725 55.8245C45.4029 54.5242 47.0652 53.2466 48.7593 51.9917C50.4745 50.7518 52.0673 49.6166 53.5376 48.5859C55.0291 47.5703 56.3133 46.7108 57.3903 46.0075C58.4825 45.2829 59.2131 44.7963 59.5822 44.5477C61.0283 43.5958 62.5881 42.8208 64.2616 42.2228C65.9352 41.6248 67.633 41.1721 69.3553 40.8647C71.1138 40.5512 72.8286 40.3664 74.4996 40.3103C76.1918 40.2693 77.7721 40.3404 79.2405 40.5236C80.7452 40.7008 82.0881 40.9704 83.2691 41.3326C84.4713 41.7098 85.4329 42.1554 86.1539 42.6694C86.7264 43.0775 87.1083 43.5736 87.2996 44.1577C87.4909 44.7418 87.54 45.3684 87.4468 46.0375C87.3748 46.7217 87.165 47.4197 86.8176 48.1315C86.4913 48.8583 86.0864 49.561 85.6027 50.2396C85.1492 50.8758 84.5654 51.4031 83.8514 51.8216C83.1586 52.2551 82.4142 52.604 81.6183 52.8681C80.8375 53.1111 80.0263 53.2844 79.1848 53.3881C78.3433 53.4919 77.5502 53.5502 76.8055 53.563C76.0972 53.5697 75.4478 53.5386 74.8574 53.4695C74.2882 53.4156 73.8674 53.3554 73.5948 53.2891L73.7895 52.6123C74.3947 52.4361 74.9954 52.1767 75.5914 51.8341C76.2087 51.5065 76.7987 51.1276 77.3613 50.6971C77.924 50.2667 78.4518 49.7955 78.9447 49.2834C79.4589 48.7864 79.9049 48.2729 80.2828 47.7427C80.561 47.3973 80.7786 47.0248 80.9356 46.625C81.0927 46.2253 81.1952 45.8346 81.2433 45.4532C81.2914 45.0717 81.2623 44.7311 81.156 44.4315C81.0649 44.1107 80.8921 43.8596 80.6376 43.6782C79.853 43.119 78.7343 42.9611 77.2814 43.2047C75.8649 43.4422 74.2261 43.969 72.3651 44.7851C70.5405 45.5952 68.5677 46.6354 66.4468 47.9059C64.3471 49.1915 62.2187 50.5846 60.0617 52.0852C57.9198 53.5646 55.8158 55.103 53.7498 56.7003C51.7049 58.3128 49.8173 59.8616 48.0872 61.3466C46.3933 62.8256 44.9128 64.1847 43.6455 65.4241C42.3995 66.6786 41.5044 67.6876 40.9602 68.451C40.7033 68.8115 40.4842 69.2309 40.303 69.7094C40.1218 70.1879 40.0057 70.6648 39.9547 71.1402C39.9037 71.6155 39.9223 72.0605 40.0105 72.4751C40.135 72.8837 40.3563 73.2014 40.6744 73.4281C41.353 73.9118 42.3084 74.2091 43.5406 74.3199C44.8091 74.4246 46.2909 74.2976 47.9858 73.9387C49.205 73.0808 50.3984 72.2366 51.5661 71.4059C52.7702 70.5693 53.8532 69.7902 54.8152 69.0688C55.7772 68.3474 56.5879 67.726 57.2473 67.2046C57.9219 66.6621 58.3499 66.2636 58.5313 66.0091ZM77.7826 82.6103C77.6919 82.7376 77.5408 82.9496 77.3292 83.2465C77.1175 83.5434 76.9271 83.8554 76.7579 84.1825C76.6099 84.5247 76.5164 84.8578 76.4773 85.1818C76.4383 85.5057 76.546 85.7584 76.8005 85.9398C77.2034 86.227 77.9406 86.3368 79.0122 86.2691C80.0989 86.1803 81.3263 85.9839 82.6943 85.6798C84.0987 85.3697 85.5454 84.9778 87.0343 84.5041C88.5233 84.0304 89.8897 83.5492 91.1334 83.0606C93.7502 81.1842 96.3004 79.3563 98.7841 77.5769C101.304 75.7914 103.552 74.1636 105.527 72.6934C107.518 71.2021 109.172 69.9351 110.491 68.8924C111.81 67.8498 112.606 67.1376 112.878 66.7559C113.089 66.459 113.213 66.1955 113.249 65.9654C113.322 65.7292 113.343 65.5203 113.312 65.3387C113.282 65.1571 113.229 65.0073 113.153 64.8893C113.077 64.7713 113.033 64.676 113.021 64.6034L113.452 63.999C113.894 64.1863 114.382 64.4219 114.915 64.706C115.484 64.9839 116.038 65.2831 116.578 65.6035C117.153 65.9177 117.703 66.2457 118.227 66.5873C118.772 66.9439 119.267 67.281 119.713 67.5984L120.89 68.4374L120.446 69.4641C119.862 69.8794 118.86 70.5887 117.442 71.5921C116.023 72.5955 114.312 73.8066 112.309 75.2253C110.322 76.6228 108.109 78.1794 105.67 79.8952C103.268 81.6049 100.774 83.3768 98.1875 85.2108C95.6373 87.0387 93.0507 88.8727 90.4279 90.7128C87.8262 92.568 85.3395 94.3292 82.9677 95.9965C80.6171 97.6789 78.448 99.2189 76.4604 100.616C74.4941 102.029 72.8529 103.21 71.537 104.159C70.7534 104.719 69.8063 105.084 68.6954 105.251C67.5906 105.455 66.4252 105.52 65.1991 105.445C63.9578 105.392 62.7195 105.245 61.4842 105.004C60.2549 104.799 59.1391 104.547 58.1368 104.249C57.1406 103.986 56.3033 103.725 55.6249 103.466C54.9314 103.227 54.5317 103.07 54.4256 102.994C53.429 102.284 52.7801 101.198 52.479 99.7359C52.1839 98.3103 52.4122 96.4423 53.1638 94.1317L60.1253 94.3929C59.7178 95.6375 59.4253 96.7882 59.2477 97.8449C59.1542 98.29 59.0896 98.7396 59.0537 99.1937C59.0027 99.6691 58.9925 100.11 59.0232 100.515C59.0751 100.936 59.1647 101.304 59.2922 101.618C59.4196 101.933 59.6106 102.181 59.8651 102.363C60.1407 102.559 60.5328 102.615 61.0413 102.529C61.5559 102.48 62.1022 102.342 62.6802 102.115C63.2794 101.902 63.8619 101.646 64.4277 101.345C64.9935 101.045 65.4867 100.757 65.9072 100.481C66.4608 100.108 67.4062 99.4551 68.7434 98.5214C70.0654 97.6089 71.6461 96.513 73.4855 95.2337C75.3612 93.9484 77.4183 92.5205 79.657 90.9502C81.932 89.3738 84.2736 87.749 86.6817 86.0756C85.1958 86.6794 83.6495 87.2561 82.0425 87.8056C80.4507 88.3339 78.9268 88.7667 77.471 89.1042C76.0304 89.4204 74.7137 89.5851 73.5209 89.5984C72.3645 89.6056 71.4682 89.3824 70.832 88.9289C70.3443 88.5813 70.0138 88.0579 69.8406 87.3587C69.6674 86.6596 69.6454 85.8604 69.7747 84.9612C69.904 84.062 70.1831 83.1096 70.612 82.1041C71.056 81.0775 71.6408 80.0552 72.3664 79.0373C72.971 78.1891 73.8057 77.265 74.8703 76.2649C75.9713 75.2588 77.1963 74.2132 78.5454 73.1282C79.9309 72.037 81.3965 70.9231 82.9424 69.7863C84.5094 68.6647 86.072 67.5719 87.63 66.5078C89.2031 65.4225 90.7203 64.3933 92.1816 63.4201C93.6579 62.4257 94.983 61.5314 96.1568 60.7371C97.3518 59.958 98.3487 59.2774 99.1473 58.6954C99.946 58.1134 100.465 57.6996 100.704 57.4542C100.87 57.2209 100.957 56.9635 100.966 56.682C100.115 56.1712 99.2625 55.7073 98.4084 55.2904C97.5543 54.8735 96.7442 54.5518 95.9781 54.3255C95.6268 54.235 95.2015 54.2037 94.702 54.2314C94.2176 54.2379 93.7091 54.3232 93.1765 54.4872C92.6438 54.6511 92.1234 54.8878 91.6151 55.1971C91.1431 55.5002 90.7484 55.8745 90.431 56.3198C90.2345 56.5955 90.0063 56.9605 89.7464 57.4148C89.5016 57.848 89.2916 58.3219 89.1165 58.8367L88.4628 58.9464C87.9406 57.3908 87.6637 55.9622 87.6322 54.6605C87.6158 53.3376 87.8721 52.3051 88.4011 51.5629C88.7035 51.1388 89.1738 50.7705 89.8123 50.4581C90.472 50.1608 91.165 49.9512 91.8914 49.8294C92.633 49.6864 93.3534 49.6403 94.0528 49.6911C94.7521 49.7419 95.2927 49.9033 95.6744 50.1754C96.9891 51.1126 98.3933 52.1935 99.8869 53.4181C101.381 54.6427 103.007 55.8823 104.767 57.137C105.149 57.409 105.488 57.6509 105.785 57.8625C106.082 58.0741 106.368 58.2782 106.644 58.4747C106.935 58.65 107.218 58.8359 107.494 59.0324C107.806 59.2228 108.168 59.4329 108.58 59.6626L108.544 60.1167C107.273 61.0019 105.742 62.0054 103.951 63.1272C102.181 64.2642 100.301 65.4663 98.3105 66.7336C96.3197 68.0009 94.2806 69.3137 92.1931 70.672C90.1419 72.0241 88.177 73.3898 86.2984 74.769C84.4561 76.1422 82.7879 77.4955 81.2937 78.8289C79.7995 80.1624 78.6291 81.4228 77.7826 82.6103ZM118.785 94.8086C116.978 94.8315 115.144 95.027 113.282 95.3951C111.421 95.7632 109.603 96.2266 107.83 96.7854C106.093 97.338 104.425 97.9723 102.828 98.6883C101.23 99.4043 99.7761 100.143 98.4661 100.904C97.1711 101.644 96.0532 102.382 95.1124 103.119C94.1868 103.834 93.5123 104.488 93.0891 105.082C92.5147 105.888 92.1354 106.577 91.9513 107.149C91.8035 107.716 91.7525 108.191 91.7983 108.575C91.8441 108.96 91.9503 109.259 92.117 109.474C92.3049 109.704 92.4519 109.857 92.5579 109.932C93.0881 110.31 93.8435 110.417 94.8242 110.253C95.82 110.067 96.8928 109.728 98.0427 109.237C99.2138 108.761 100.388 108.19 101.565 107.526C102.742 106.862 103.784 106.23 104.692 105.63L104.755 105.675C104.932 106.504 105.075 107.358 105.185 108.236C105.316 109.129 105.409 109.962 105.464 110.737C105.538 111.621 105.579 112.482 105.589 113.321C104.766 113.758 103.851 114.145 102.843 114.482C101.835 114.819 100.79 115.097 99.706 115.316C98.6588 115.529 97.5994 115.669 96.5278 115.736C95.4925 115.798 94.5328 115.754 93.6487 115.603C93.1673 115.516 92.816 115.425 92.5949 115.332C92.3799 115.274 92.1134 115.132 91.7953 114.906C91.6045 114.769 91.4302 114.565 91.2725 114.293C91.1209 114.057 90.9739 113.792 90.8313 113.499C90.4855 112.773 90.1213 111.825 89.7387 110.657C89.3562 109.489 89.0885 108.227 88.9359 106.871C88.8044 105.53 88.8621 104.148 89.109 102.725C89.3346 101.287 89.9009 99.9314 90.8079 98.659C91.6544 97.4715 92.9248 96.3623 94.619 95.3314C96.3284 94.2793 98.2408 93.3238 100.356 92.4651C102.471 91.6063 104.659 90.8474 106.92 90.1883C109.217 89.5231 111.384 88.973 113.421 88.5382C113.208 87.2669 113.116 86.05 113.145 84.8875C113.21 83.7189 113.523 82.7423 114.082 81.9577C114.747 81.0247 115.537 80.2762 116.45 79.7122C117.379 79.1271 118.376 78.6705 119.442 78.3425C120.528 78.0297 121.658 77.8121 122.833 77.6899C124.044 77.5616 125.261 77.4696 126.484 77.4139C127.28 77.3738 128.165 77.3654 129.14 77.3887C130.13 77.3907 131.1 77.4428 132.051 77.5448C133.002 77.6468 133.889 77.8155 134.712 78.0508C135.572 78.28 136.278 78.5912 136.829 78.9842C137.19 79.2412 137.458 79.5603 137.634 79.9415C137.825 80.3016 137.883 80.7587 137.808 81.3127C137.769 81.8607 137.564 82.5299 137.192 83.3204C136.836 84.0897 136.272 85.0151 135.501 86.0966C135.153 86.5843 134.729 87.0009 134.226 87.3465C133.76 87.686 133.242 87.9878 132.67 88.2517C132.113 88.4944 131.532 88.7038 130.927 88.88C130.336 89.035 129.751 89.1612 129.17 89.2586C127.789 89.49 126.359 89.5898 124.879 89.5579L124.946 88.7904C125.179 88.7327 125.483 88.5977 125.858 88.3854C126.249 88.1519 126.648 87.8609 127.056 87.5124C127.501 87.1578 127.947 86.7562 128.395 86.3078C128.858 85.8381 129.278 85.3382 129.656 84.808C130.412 83.7478 130.772 82.8377 130.738 82.0779C130.719 81.2969 130.413 80.6947 129.819 80.2715C129.395 79.9692 128.775 79.8305 127.957 79.8555C127.155 79.8593 126.279 80.0342 125.329 80.3803C124.415 80.7202 123.474 81.2327 122.506 81.9178C121.537 82.6029 120.691 83.4544 119.965 84.4723C119.678 84.8752 119.361 85.4325 119.013 86.1443C118.681 86.8348 118.429 87.6146 118.257 88.4836C118.122 89.3465 118.107 90.2638 118.214 91.2354C118.342 92.2222 118.72 93.1951 119.348 94.1541L118.785 94.8086ZM111.997 123.309L103.6 117.324L103.97 115.525C107.045 114.711 109.767 113.965 112.137 113.287C114.522 112.589 116.746 111.936 118.81 111.328C120.874 110.721 122.887 110.141 124.848 109.588C126.83 109.05 128.979 108.503 131.295 107.947C131.761 107.832 132.23 107.734 132.702 107.655C133.195 107.591 133.637 107.554 134.028 107.545C134.434 107.514 134.777 107.503 135.059 107.512C135.34 107.521 135.513 107.548 135.576 107.593C135.746 107.714 135.934 107.944 136.14 108.283C136.368 108.637 136.562 109.015 136.722 109.418C136.898 109.799 137.024 110.16 137.1 110.502C137.198 110.86 137.201 111.102 137.11 111.229C137.065 111.293 136.968 111.384 136.82 111.502C136.708 111.614 136.578 111.729 136.43 111.847C136.318 111.959 136.195 112.064 136.062 112.161C135.95 112.273 135.869 112.343 135.817 112.37C133.161 114.346 130.354 116.423 127.395 118.599C124.473 120.77 121.508 123.022 118.502 125.356L122.796 128.417L120.967 129.703L116.736 126.688C115.402 127.752 114.083 128.794 112.78 129.816C111.461 130.858 110.181 131.913 108.941 132.98C108.678 132.856 108.393 132.717 108.087 132.563C107.554 132.279 106.895 131.857 106.111 131.298C105.75 131.041 105.383 130.748 105.011 130.418C104.623 130.11 104.258 129.77 103.915 129.398L103.951 128.943L111.997 123.309ZM129.934 109.856C129.274 109.929 128.315 110.108 127.056 110.394C125.797 110.68 124.356 111.108 122.734 111.679C122.223 111.858 121.378 112.168 120.201 112.608C119.045 113.063 117.771 113.594 116.379 114.201C115.008 114.823 113.621 115.513 112.217 116.271C110.828 117.008 109.627 117.751 108.614 118.499L113.685 122.018C115.119 120.994 116.52 119.993 117.887 119.017C119.269 118.02 120.534 117.098 121.68 116.253C122.863 115.401 123.902 114.638 124.798 113.965C125.708 113.271 126.445 112.709 127.008 112.279C127.207 112.133 127.57 111.848 128.097 111.424C128.638 110.978 129.251 110.456 129.934 109.856Z" fill="#141414"/>
<path d="M38.4851 115.017L38.2624 115.302L33.7939 111.805L34.0166 111.521L34.3857 111.81C34.8164 112.147 35.2275 112.266 35.6189 112.167C35.8704 112.099 36.2408 111.753 36.7303 111.127L42.0019 104.39C42.4152 103.862 42.6546 103.487 42.7204 103.265C42.7694 103.097 42.7506 102.905 42.6638 102.688C42.5345 102.388 42.3468 102.142 42.1007 101.95L41.7315 101.661L41.9542 101.376L46.4227 104.873L46.2 105.157L45.8231 104.862C45.3976 104.529 44.9891 104.412 44.5976 104.511C44.3411 104.575 43.9681 104.92 43.4786 105.545L38.2069 112.283C37.7937 112.811 37.5542 113.185 37.4885 113.407C37.4395 113.575 37.4609 113.77 37.5527 113.99C37.6769 114.286 37.8621 114.53 38.1082 114.722L38.4851 115.017ZM57.99 113.924L57.7674 114.208C57.346 113.986 56.9743 113.885 56.6522 113.906C56.1839 113.945 55.642 114.141 55.0266 114.494L44.444 120.523L44.1595 120.3L47.2873 108.252C47.4484 107.635 47.5281 107.242 47.5263 107.075C47.5225 106.816 47.4598 106.569 47.3383 106.333C47.2259 106.096 47.0208 105.841 46.723 105.567L46.9457 105.282L51.2065 108.616L50.9838 108.9C50.4658 108.57 50.0888 108.407 49.853 108.412C49.6171 108.418 49.427 108.513 49.2826 108.698C49.082 108.954 48.887 109.446 48.6976 110.174L46.5667 118.365L53.7519 114.253C54.4583 113.847 54.9018 113.528 55.0823 113.298C55.1986 113.149 55.2346 112.95 55.1902 112.7C55.1499 112.445 54.9748 112.151 54.6652 111.818C54.6436 111.793 54.606 111.751 54.5525 111.693L54.7752 111.408L57.99 113.924Z" fill="#141414"/>
</svg>
